<svg width="370" height="240" viewBox="0 0 370 240" fill="none" xmlns="http://www.w3.org/2000/svg">
<g clip-path="url(#clip0_42_5321)">
<path d="M314.912 0L55.0876 0C51.1732 0 48 3.18182 48 7.1068L48 147.893C48 151.818 51.1732 155 55.0876 155L314.912 155C318.827 155 322 151.818 322 147.893V7.1068C322 3.18182 318.827 0 314.912 0Z" fill="#1814F3"/>
<path d="M177.194 67.6951L173.055 63.5025L170.822 65.707L174.962 69.8996L177.194 67.6951Z" fill="white"/>
<path d="M190.669 70.8219C189.8 71.7154 188.645 72.2075 187.416 72.2075C186.188 72.2075 185.033 71.7154 184.164 70.822C184.164 70.8219 179.871 66.4052 179.871 66.4052C179.296 65.8144 178.361 65.8144 177.787 66.4052C177.509 66.6913 177.355 67.0719 177.355 67.4766C177.355 67.8814 177.509 68.262 177.787 68.5481C178.074 68.8435 178.452 68.9912 178.829 68.9912C179.206 68.9912 179.583 68.8434 179.871 68.5481L180.175 68.2347L182.386 70.5091L182.082 70.8219C181.213 71.7154 180.058 72.2075 178.829 72.2075C177.6 72.2075 176.445 71.7154 175.576 70.8219C174.707 69.9282 174.229 68.7403 174.229 67.4766C174.229 66.213 174.707 65.0248 175.576 64.1313C176.445 63.2378 177.6 62.7457 178.829 62.7457C180.058 62.7457 181.213 63.2377 182.082 64.1312L185.333 67.4763L186.371 68.545L186.374 68.5481C186.949 69.1389 187.884 69.1389 188.458 68.5481C188.737 68.262 188.89 67.8814 188.89 67.4766C188.89 67.0719 188.737 66.6913 188.458 66.4052C187.884 65.8144 186.949 65.8144 186.374 66.4052L186.07 66.7185L183.859 64.4441L184.164 64.1313C185.032 63.2378 186.188 62.7457 187.416 62.7457C188.645 62.7457 189.8 63.2378 190.669 64.1313C191.538 65.0248 192.017 66.213 192.017 67.4766C192.017 68.7403 191.538 69.9282 190.669 70.8219Z" fill="white"/>
<path d="M154.181 88.7534L151.057 79.9083H152.738L155.147 87.16H154.645L157.242 79.9083H158.447L160.855 87.16H160.391L162.913 79.9083H164.494L161.345 88.7534H160.002L157.669 81.9533H157.945L155.523 88.7534H154.181ZM167.361 88.8789C166.809 88.8789 166.324 88.7492 165.906 88.4899C165.487 88.2223 165.161 87.8417 164.927 87.3482C164.693 86.8547 164.576 86.2651 164.576 85.5792C164.576 84.8933 164.693 84.3079 164.927 83.8227C165.161 83.3292 165.487 82.9529 165.906 82.6936C166.324 82.4259 166.809 82.2921 167.361 82.2921C167.896 82.2921 168.365 82.4259 168.766 82.6936C169.176 82.9529 169.448 83.3041 169.582 83.7474H169.444L169.582 82.4175H171.087C171.062 82.6768 171.037 82.9403 171.012 83.208C170.995 83.4756 170.987 83.7391 170.987 83.9984V88.7534H169.431L169.419 87.4486H169.569C169.435 87.8835 169.163 88.2307 168.754 88.4899C168.344 88.7492 167.88 88.8789 167.361 88.8789ZM167.8 87.6744C168.294 87.6744 168.691 87.503 168.992 87.16C169.293 86.8087 169.444 86.2818 169.444 85.5792C169.444 84.8766 169.293 84.3539 168.992 84.0109C168.691 83.668 168.294 83.4965 167.8 83.4965C167.307 83.4965 166.909 83.668 166.608 84.0109C166.307 84.3539 166.157 84.8766 166.157 85.5792C166.157 86.2818 166.303 86.8087 166.596 87.16C166.897 87.503 167.298 87.6744 167.8 87.6744ZM174.49 88.7534L171.755 82.4175H173.424L175.406 87.3733H175.017L177.05 82.4175H178.618L175.87 88.7534H174.49ZM182.397 88.8789C181.334 88.8789 180.502 88.5861 179.9 88.0006C179.298 87.4151 178.997 86.6122 178.997 85.5918C178.997 84.931 179.126 84.3539 179.386 83.8604C179.645 83.3669 180.005 82.9821 180.465 82.7061C180.933 82.4301 181.477 82.2921 182.096 82.2921C182.706 82.2921 183.216 82.4217 183.626 82.681C184.036 82.9403 184.346 83.3041 184.555 83.7725C184.772 84.2409 184.881 84.7888 184.881 85.4161V85.8301H180.264V85.0021H183.764L183.551 85.1777C183.551 84.5922 183.425 84.1447 183.175 83.8353C182.932 83.5258 182.576 83.3711 182.108 83.3711C181.59 83.3711 181.188 83.5551 180.904 83.9231C180.628 84.2911 180.49 84.8055 180.49 85.4663V85.6294C180.49 86.3153 180.657 86.8297 180.991 87.1726C181.334 87.5072 181.815 87.6744 182.434 87.6744C182.794 87.6744 183.129 87.6284 183.438 87.5364C183.756 87.4361 184.057 87.2771 184.341 87.0597L184.806 88.1136C184.504 88.3561 184.145 88.5443 183.727 88.6781C183.308 88.812 182.865 88.8789 182.397 88.8789ZM188.417 88.7534V81.2382H185.494V79.9083H192.959V81.2382H190.035V88.7534H188.417ZM195.443 88.8789C194.891 88.8789 194.406 88.7492 193.988 88.4899C193.57 88.2223 193.243 87.8417 193.009 87.3482C192.775 86.8547 192.658 86.2651 192.658 85.5792C192.658 84.8933 192.775 84.3079 193.009 83.8227C193.243 83.3292 193.57 82.9529 193.988 82.6936C194.406 82.4259 194.891 82.2921 195.443 82.2921C195.978 82.2921 196.447 82.4259 196.848 82.6936C197.258 82.9529 197.53 83.3041 197.664 83.7474H197.526L197.664 82.4175H199.169C199.144 82.6768 199.119 82.9403 199.094 83.208C199.077 83.4756 199.069 83.7391 199.069 83.9984V88.7534H197.513L197.501 87.4486H197.651C197.517 87.8835 197.246 88.2307 196.836 88.4899C196.426 88.7492 195.962 88.8789 195.443 88.8789ZM195.882 87.6744C196.376 87.6744 196.773 87.503 197.074 87.16C197.375 86.8087 197.526 86.2818 197.526 85.5792C197.526 84.8766 197.375 84.3539 197.074 84.0109C196.773 83.668 196.376 83.4965 195.882 83.4965C195.389 83.4965 194.991 83.668 194.69 84.0109C194.389 84.3539 194.239 84.8766 194.239 85.5792C194.239 86.2818 194.385 86.8087 194.678 87.16C194.979 87.503 195.38 87.6744 195.882 87.6744ZM203.713 91.5638C203.127 91.5638 202.596 91.5011 202.119 91.3756C201.651 91.2501 201.233 91.0578 200.865 90.7985L201.203 89.6693C201.446 89.8282 201.697 89.9579 201.956 90.0582C202.215 90.1586 202.483 90.2339 202.759 90.2841C203.035 90.3343 203.315 90.3593 203.6 90.3593C204.185 90.3593 204.62 90.213 204.904 89.9202C205.197 89.6358 205.344 89.226 205.344 88.6907V87.1726H205.469C205.335 87.6075 205.063 87.9546 204.654 88.2139C204.252 88.4732 203.788 88.6029 203.261 88.6029C202.692 88.6029 202.194 88.4774 201.768 88.2265C201.35 87.9672 201.024 87.5992 200.789 87.1224C200.555 86.6456 200.438 86.0852 200.438 85.4412C200.438 84.7972 200.555 84.2409 200.789 83.7725C201.024 83.2958 201.35 82.9319 201.768 82.681C202.194 82.4217 202.692 82.2921 203.261 82.2921C203.796 82.2921 204.26 82.4217 204.654 82.681C205.055 82.9319 205.323 83.2749 205.457 83.7098L205.344 83.6345L205.469 82.4175H206.987C206.954 82.6768 206.929 82.9403 206.912 83.208C206.895 83.4756 206.887 83.7391 206.887 83.9984V88.5025C206.887 89.4978 206.615 90.2548 206.071 90.7734C205.536 91.3003 204.75 91.5638 203.713 91.5638ZM203.688 87.3984C204.189 87.3984 204.587 87.2311 204.879 86.8966C205.181 86.5536 205.331 86.0685 205.331 85.4412C205.331 84.8139 205.181 84.3329 204.879 83.9984C204.587 83.6638 204.189 83.4965 203.688 83.4965C203.177 83.4965 202.772 83.6638 202.471 83.9984C202.169 84.3329 202.019 84.8139 202.019 85.4412C202.019 86.0685 202.169 86.5536 202.471 86.8966C202.772 87.2311 203.177 87.3984 203.688 87.3984Z" fill="white"/>
<path d="M214.225 75.9939C213.341 75.9939 212.646 76.2701 212.141 76.8227C211.628 77.3752 211.375 78.0619 211.375 78.875C211.375 79.6959 211.628 80.3747 212.141 80.9273C212.646 81.4798 213.341 81.7561 214.225 81.7561C215.109 81.7561 215.803 81.4798 216.316 80.9273C216.822 80.3747 217.082 79.6959 217.082 78.875C217.082 78.0619 216.822 77.3752 216.316 76.8227C215.803 76.2701 215.109 75.9939 214.225 75.9939ZM212.101 78.875C212.101 78.2277 212.299 77.6988 212.678 77.2726C213.056 76.8542 213.57 76.6411 214.225 76.6411C214.88 76.6411 215.401 76.8542 215.78 77.2726C216.159 77.6988 216.348 78.2277 216.348 78.875C216.348 79.5222 216.159 80.059 215.78 80.4774C215.401 80.8957 214.88 81.1009 214.225 81.1009C213.562 81.1009 213.049 80.8957 212.67 80.4774C212.291 80.059 212.101 79.5222 212.101 78.875ZM215.622 80.1853V80.3274H214.904L214.146 79.3644H213.775V80.3274H213.112V77.3989H214.485C214.722 77.3989 214.935 77.462 215.117 77.5726C215.29 77.6831 215.417 77.8251 215.48 77.9909C215.543 78.1646 215.567 78.3382 215.559 78.5119C215.543 78.6855 215.48 78.8434 215.353 78.9855C215.227 79.1276 215.054 79.2144 214.848 79.2539L215.622 80.1853ZM213.775 77.9988V78.796H214.477C214.651 78.796 214.769 78.7329 214.84 78.5987C214.911 78.4645 214.911 78.3303 214.848 78.1961C214.777 78.0698 214.659 77.9988 214.485 77.9988H213.775Z" fill="white"/>
</g>
<g filter="url(#filter0_f_42_5321)">
<rect x="44.5" y="179" width="281" height="17" rx="8.5" fill="black"/>
</g>
<defs>
<filter id="filter0_f_42_5321" x="0.5" y="135" width="369" height="105" filterUnits="userSpaceOnUse" color-interpolation-filters="sRGB">
<feFlood flood-opacity="0" result="BackgroundImageFix"/>
<feBlend mode="normal" in="SourceGraphic" in2="BackgroundImageFix" result="shape"/>
<feGaussianBlur stdDeviation="22" result="effect1_foregroundBlur_42_5321"/>
</filter>
<clipPath id="clip0_42_5321">
<rect width="274" height="155" fill="white" transform="translate(48)"/>
</clipPath>
</defs>
</svg>
