<svg width="510" height="640" viewBox="0 0 510 640" fill="none" xmlns="http://www.w3.org/2000/svg">
<path d="M211.128 78H164.872C156.106 78 149 85.1646 149 94.0025V139.998C149 148.835 156.106 156 164.872 156H211.128C219.894 156 227 148.835 227 139.998V94.0025C227 85.1646 219.894 78 211.128 78Z" fill="#10A37F"/>
<path d="M206.689 113.041C207.058 111.933 207.246 110.774 207.246 109.607C207.246 107.675 206.731 105.779 205.755 104.112C203.795 100.699 200.157 98.5922 196.221 98.5922C195.445 98.5922 194.672 98.6741 193.913 98.8365C192.893 97.6873 191.641 96.7674 190.24 96.1374C188.838 95.5074 187.319 95.1817 185.783 95.1816H185.714L185.688 95.1818C180.92 95.1818 176.692 98.2584 175.226 102.794C173.709 103.105 172.275 103.736 171.022 104.645C169.769 105.555 168.724 106.722 167.958 108.068C166.985 109.744 166.472 111.648 166.472 113.587C166.472 116.311 167.483 118.938 169.31 120.959C168.941 122.067 168.753 123.226 168.753 124.393C168.753 126.324 169.267 128.221 170.243 129.887C171.403 131.908 173.176 133.507 175.304 134.456C177.432 135.404 179.806 135.652 182.084 135.163C183.105 136.312 184.357 137.232 185.758 137.862C187.16 138.492 188.679 138.818 190.216 138.818H190.285L190.313 138.818C195.083 138.818 199.31 135.741 200.776 131.202C202.293 130.891 203.726 130.259 204.98 129.35C206.233 128.44 207.278 127.274 208.044 125.928C209.016 124.253 209.528 122.35 209.527 120.414C209.527 117.69 208.516 115.063 206.69 113.041L206.689 113.041ZM190.287 135.965H190.276C188.367 135.965 186.519 135.295 185.053 134.073C185.14 134.026 185.226 133.977 185.311 133.927L193.999 128.908C194.216 128.785 194.396 128.606 194.522 128.39C194.647 128.175 194.713 127.93 194.713 127.68V115.423L198.386 117.543C198.405 117.553 198.422 117.567 198.434 117.585C198.447 117.602 198.455 117.622 198.457 117.644V127.788C198.452 132.298 194.798 135.956 190.287 135.965ZM172.718 128.461C172 127.221 171.622 125.812 171.622 124.379C171.622 123.911 171.662 123.443 171.742 122.982C171.806 123.021 171.919 123.089 172 123.136L180.689 128.155C180.905 128.281 181.151 128.348 181.402 128.348C181.653 128.348 181.899 128.281 182.116 128.154L192.724 122.029V126.27L192.724 126.278C192.724 126.298 192.719 126.318 192.71 126.337C192.701 126.355 192.688 126.371 192.671 126.383L183.888 131.454C182.645 132.169 181.237 132.546 179.803 132.547C178.367 132.546 176.957 132.169 175.714 131.452C174.47 130.735 173.437 129.703 172.718 128.461V128.461ZM170.432 109.494C171.386 107.836 172.893 106.567 174.689 105.908C174.689 105.983 174.684 106.116 174.684 106.208V116.245L174.684 116.254C174.684 116.503 174.75 116.748 174.876 116.963C175.001 117.178 175.181 117.357 175.397 117.48L186.005 123.604L182.333 125.725C182.315 125.737 182.294 125.744 182.272 125.746C182.251 125.748 182.229 125.745 182.209 125.736L173.425 120.661C172.183 119.941 171.152 118.908 170.435 117.665C169.719 116.422 169.341 115.012 169.341 113.577C169.342 112.144 169.718 110.736 170.432 109.494L170.432 109.494ZM200.604 116.515L189.997 110.39L193.669 108.271C193.687 108.259 193.708 108.251 193.73 108.249C193.751 108.247 193.773 108.251 193.793 108.259L202.577 113.331C203.82 114.049 204.852 115.081 205.569 116.324C206.287 117.568 206.665 118.978 206.665 120.413C206.665 123.839 204.527 126.905 201.313 128.088V117.75C201.313 117.747 201.313 117.743 201.313 117.739C201.313 117.491 201.248 117.247 201.123 117.032C200.999 116.817 200.82 116.639 200.604 116.515ZM204.26 111.014C204.174 110.961 204.088 110.91 204.002 110.86L195.313 105.841C195.096 105.715 194.85 105.648 194.6 105.648C194.349 105.648 194.103 105.715 193.886 105.841L183.278 111.966V107.725L183.278 107.718C183.278 107.676 183.298 107.637 183.331 107.612L192.114 102.545C193.356 101.829 194.765 101.452 196.199 101.452C200.715 101.452 204.378 105.114 204.378 109.631C204.377 110.094 204.338 110.557 204.26 111.013V111.014ZM181.281 118.573L177.608 116.452C177.589 116.443 177.572 116.429 177.56 116.411C177.548 116.393 177.54 116.373 177.537 116.352V106.208C177.539 101.694 181.201 98.0346 185.715 98.0346C187.627 98.035 189.479 98.7047 190.948 99.9276C190.882 99.9637 190.767 100.027 190.69 100.074L182.002 105.093C181.785 105.216 181.605 105.394 181.479 105.61C181.354 105.826 181.288 106.071 181.288 106.32V106.328L181.281 118.573ZM183.276 114.272L188.001 111.543L192.725 114.27V119.726L188.001 122.453L183.276 119.726V114.272Z" fill="white"/>
<path d="M380.3 99H325.7C319.238 99 314 104.238 314 110.7V165.3C314 171.762 319.238 177 325.7 177H380.3C386.762 177 392 171.762 392 165.3V110.7C392 104.238 386.762 99 380.3 99Z" fill="#37AEE2"/>
<path d="M344.316 160.547C342.641 160.547 342.793 159.938 342.336 158.414L337.461 142.418L374.785 120.48" fill="#C8DAEA"/>
<path d="M344.316 160.547C345.383 160.547 345.992 159.938 346.754 159.328L353.609 152.777L345.078 147.598" fill="#A9C9DD"/>
<path d="M345.078 147.598L365.645 162.68C367.778 164.051 369.606 163.289 370.215 160.547L378.594 121.243C379.356 117.891 377.223 116.368 374.938 117.434L326.035 136.325C322.836 137.543 322.836 139.524 325.426 140.286L338.07 144.246L367.016 125.813C368.387 125.051 369.606 125.356 368.692 126.422" fill="#F6FBFE"/>
<g filter="url(#filter0_d_0_1)">
<rect x="70" y="473" width="381.909" height="83.2499" rx="18.0403" fill="white"/>
<g clip-path="url(#clip0_0_1)">
<g filter="url(#filter1_f_0_1)">
<path d="M140.604 514.543C140.604 529.488 128.489 541.604 113.544 541.604C98.5988 541.604 86.4834 529.488 86.4834 514.543C86.4834 499.598 98.5988 487.483 113.544 487.483C128.489 487.483 140.604 499.598 140.604 514.543ZM95.5754 514.543C95.5754 524.467 103.62 532.512 113.544 532.512C123.467 532.512 131.512 524.467 131.512 514.543C131.512 504.62 123.467 496.575 113.544 496.575C103.62 496.575 95.5754 504.62 95.5754 514.543Z" fill="#8CFDBC"/>
</g>
<path d="M113.544 531.724C123.032 531.724 130.725 524.032 130.725 514.543C130.725 505.054 123.032 497.362 113.544 497.362C104.055 497.362 96.3623 505.054 96.3623 514.543C96.3623 524.032 104.055 531.724 113.544 531.724Z" stroke="#27AE60" stroke-width="2.57718" stroke-linecap="round" stroke-linejoin="round"/>
<path d="M110.107 507.671L120.416 514.543L110.107 521.416V507.671Z" fill="#27AE60" stroke="#27AE60" stroke-width="2.57718" stroke-linecap="round" stroke-linejoin="round"/>
</g>
<path d="M162.939 508.299H160.127L165.248 493.754H168.5L173.628 508.299H170.816L166.931 496.737H166.817L162.939 508.299ZM163.032 502.596H170.702V504.713H163.032V502.596ZM182.384 503.711V497.39H184.955V508.299H182.462V506.36H182.348C182.102 506.971 181.697 507.471 181.134 507.859C180.575 508.247 179.886 508.441 179.067 508.441C178.352 508.441 177.72 508.283 177.17 507.966C176.626 507.644 176.2 507.177 175.892 506.566C175.584 505.951 175.43 505.207 175.43 504.336V497.39H178.001V503.939C178.001 504.63 178.191 505.179 178.57 505.586C178.948 505.993 179.446 506.197 180.061 506.197C180.44 506.197 180.807 506.105 181.162 505.92C181.517 505.735 181.808 505.461 182.036 505.096C182.268 504.727 182.384 504.265 182.384 503.711ZM191.647 508.491C190.79 508.491 190.023 508.271 189.346 507.831C188.668 507.39 188.133 506.751 187.74 505.913C187.347 505.075 187.151 504.057 187.151 502.859C187.151 501.647 187.35 500.624 187.748 499.791C188.15 498.953 188.692 498.321 189.374 497.894C190.056 497.464 190.816 497.248 191.654 497.248C192.293 497.248 192.819 497.357 193.23 497.575C193.642 497.788 193.969 498.046 194.211 498.349C194.452 498.647 194.639 498.929 194.772 499.194H194.878V493.754H197.456V508.299H194.928V506.581H194.772C194.639 506.846 194.447 507.127 194.196 507.426C193.945 507.719 193.614 507.97 193.202 508.179C192.79 508.387 192.272 508.491 191.647 508.491ZM192.364 506.382C192.908 506.382 193.373 506.235 193.756 505.941C194.14 505.643 194.431 505.229 194.63 504.698C194.828 504.168 194.928 503.55 194.928 502.845C194.928 502.139 194.828 501.526 194.63 501.005C194.435 500.484 194.147 500.08 193.763 499.791C193.384 499.502 192.918 499.358 192.364 499.358C191.791 499.358 191.313 499.507 190.929 499.805C190.546 500.103 190.257 500.515 190.063 501.041C189.869 501.566 189.772 502.168 189.772 502.845C189.772 503.527 189.869 504.135 190.063 504.67C190.262 505.2 190.553 505.619 190.936 505.927C191.325 506.23 191.801 506.382 192.364 506.382ZM200.196 508.299V497.39H202.767V508.299H200.196ZM201.489 495.842C201.081 495.842 200.731 495.707 200.438 495.437C200.144 495.162 199.997 494.833 199.997 494.45C199.997 494.062 200.144 493.733 200.438 493.463C200.731 493.188 201.081 493.051 201.489 493.051C201.901 493.051 202.251 493.188 202.54 493.463C202.833 493.733 202.98 494.062 202.98 494.45C202.98 494.833 202.833 495.162 202.54 495.437C202.251 495.707 201.901 495.842 201.489 495.842ZM210.169 508.512C209.104 508.512 208.181 508.278 207.4 507.809C206.618 507.341 206.012 506.685 205.581 505.842C205.155 504.999 204.942 504.014 204.942 502.887C204.942 501.76 205.155 500.773 205.581 499.926C206.012 499.078 206.618 498.42 207.4 497.951C208.181 497.483 209.104 497.248 210.169 497.248C211.235 497.248 212.158 497.483 212.939 497.951C213.721 498.42 214.324 499.078 214.75 499.926C215.181 500.773 215.397 501.76 215.397 502.887C215.397 504.014 215.181 504.999 214.75 505.842C214.324 506.685 213.721 507.341 212.939 507.809C212.158 508.278 211.235 508.512 210.169 508.512ZM210.184 506.453C210.761 506.453 211.244 506.294 211.632 505.977C212.021 505.655 212.31 505.224 212.499 504.684C212.693 504.144 212.79 503.543 212.79 502.88C212.79 502.213 212.693 501.609 212.499 501.069C212.31 500.525 212.021 500.091 211.632 499.769C211.244 499.448 210.761 499.287 210.184 499.287C209.592 499.287 209.099 499.448 208.706 499.769C208.318 500.091 208.027 500.525 207.833 501.069C207.643 501.609 207.549 502.213 207.549 502.88C207.549 503.543 207.643 504.144 207.833 504.684C208.027 505.224 208.318 505.655 208.706 505.977C209.099 506.294 209.592 506.453 210.184 506.453ZM224.599 493.754L228.385 505.203H228.534L232.312 493.754H235.21L230.082 508.299H226.83L221.709 493.754H224.599ZM237.012 508.299V497.39H239.583V508.299H237.012ZM238.305 495.842C237.898 495.842 237.547 495.707 237.254 495.437C236.96 495.162 236.814 494.833 236.814 494.45C236.814 494.062 236.96 493.733 237.254 493.463C237.547 493.188 237.898 493.051 238.305 493.051C238.717 493.051 239.067 493.188 239.356 493.463C239.65 493.733 239.797 494.062 239.797 494.45C239.797 494.833 239.65 495.162 239.356 495.437C239.067 495.707 238.717 495.842 238.305 495.842ZM246.276 508.491C245.419 508.491 244.652 508.271 243.974 507.831C243.297 507.39 242.762 506.751 242.369 505.913C241.976 505.075 241.78 504.057 241.78 502.859C241.78 501.647 241.979 500.624 242.376 499.791C242.779 498.953 243.321 498.321 244.003 497.894C244.685 497.464 245.445 497.248 246.283 497.248C246.922 497.248 247.447 497.357 247.859 497.575C248.271 497.788 248.598 498.046 248.839 498.349C249.081 498.647 249.268 498.929 249.401 499.194H249.507V493.754H252.085V508.299H249.557V506.581H249.401C249.268 506.846 249.076 507.127 248.825 507.426C248.574 507.719 248.243 507.97 247.831 508.179C247.419 508.387 246.901 508.491 246.276 508.491ZM246.993 506.382C247.537 506.382 248.001 506.235 248.385 505.941C248.768 505.643 249.06 505.229 249.259 504.698C249.457 504.168 249.557 503.55 249.557 502.845C249.557 502.139 249.457 501.526 249.259 501.005C249.064 500.484 248.776 500.08 248.392 499.791C248.013 499.502 247.547 499.358 246.993 499.358C246.42 499.358 245.942 499.507 245.558 499.805C245.175 500.103 244.886 500.515 244.692 501.041C244.498 501.566 244.401 502.168 244.401 502.845C244.401 503.527 244.498 504.135 244.692 504.67C244.891 505.2 245.182 505.619 245.565 505.927C245.954 506.23 246.429 506.382 246.993 506.382ZM259.654 508.512C258.561 508.512 257.616 508.285 256.821 507.831C256.03 507.371 255.422 506.723 254.995 505.885C254.569 505.042 254.356 504.05 254.356 502.909C254.356 501.787 254.569 500.802 254.995 499.954C255.426 499.102 256.028 498.439 256.799 497.966C257.571 497.487 258.478 497.248 259.52 497.248C260.192 497.248 260.826 497.357 261.423 497.575C262.024 497.788 262.555 498.119 263.014 498.569C263.478 499.019 263.842 499.592 264.108 500.288C264.373 500.979 264.505 501.803 264.505 502.76V503.548H255.564V501.815H262.041C262.036 501.323 261.93 500.885 261.721 500.501C261.513 500.113 261.222 499.807 260.848 499.585C260.478 499.362 260.047 499.251 259.555 499.251C259.029 499.251 258.568 499.379 258.17 499.635C257.772 499.885 257.462 500.217 257.24 500.629C257.022 501.036 256.911 501.484 256.906 501.971V503.484C256.906 504.118 257.022 504.663 257.254 505.117C257.486 505.567 257.81 505.913 258.227 506.154C258.644 506.391 259.131 506.51 259.69 506.51C260.064 506.51 260.403 506.457 260.706 506.353C261.009 506.244 261.271 506.086 261.494 505.877C261.717 505.669 261.885 505.411 261.998 505.103L264.399 505.373C264.247 506.008 263.958 506.562 263.532 507.035C263.111 507.504 262.571 507.868 261.913 508.129C261.255 508.385 260.502 508.512 259.654 508.512ZM271.439 508.512C270.374 508.512 269.45 508.278 268.669 507.809C267.888 507.341 267.282 506.685 266.851 505.842C266.425 504.999 266.212 504.014 266.212 502.887C266.212 501.76 266.425 500.773 266.851 499.926C267.282 499.078 267.888 498.42 268.669 497.951C269.45 497.483 270.374 497.248 271.439 497.248C272.504 497.248 273.428 497.483 274.209 497.951C274.99 498.42 275.594 499.078 276.02 499.926C276.451 500.773 276.666 501.76 276.666 502.887C276.666 504.014 276.451 504.999 276.02 505.842C275.594 506.685 274.99 507.341 274.209 507.809C273.428 508.278 272.504 508.512 271.439 508.512ZM271.453 506.453C272.031 506.453 272.514 506.294 272.902 505.977C273.29 505.655 273.579 505.224 273.768 504.684C273.963 504.144 274.06 503.543 274.06 502.88C274.06 502.213 273.963 501.609 273.768 501.069C273.579 500.525 273.29 500.091 272.902 499.769C272.514 499.448 272.031 499.287 271.453 499.287C270.861 499.287 270.369 499.448 269.976 499.769C269.588 500.091 269.296 500.525 269.102 501.069C268.913 501.609 268.818 502.213 268.818 502.88C268.818 503.543 268.913 504.144 269.102 504.684C269.296 505.224 269.588 505.655 269.976 505.977C270.369 506.294 270.861 506.453 271.453 506.453ZM286.558 493.754V508.299H283.923V493.754H286.558ZM291.869 501.907V508.299H289.298V497.39H291.755V499.244H291.883C292.134 498.633 292.534 498.148 293.083 497.788C293.637 497.428 294.321 497.248 295.136 497.248C295.888 497.248 296.544 497.409 297.103 497.731C297.666 498.053 298.102 498.519 298.41 499.13C298.722 499.741 298.876 500.482 298.871 501.353V508.299H296.3V501.751C296.3 501.022 296.111 500.451 295.732 500.039C295.358 499.627 294.84 499.421 294.177 499.421C293.727 499.421 293.327 499.521 292.977 499.72C292.631 499.914 292.359 500.196 292.16 500.565C291.966 500.934 291.869 501.382 291.869 501.907ZM306.933 497.39V499.379H300.661V497.39H306.933ZM302.21 494.777H304.781V505.018C304.781 505.364 304.833 505.629 304.937 505.814C305.046 505.993 305.188 506.117 305.363 506.183C305.538 506.249 305.732 506.282 305.945 506.282C306.106 506.282 306.253 506.27 306.386 506.247C306.523 506.223 306.627 506.202 306.698 506.183L307.131 508.193C306.994 508.24 306.798 508.292 306.542 508.349C306.291 508.406 305.983 508.439 305.619 508.448C304.975 508.467 304.395 508.37 303.879 508.157C303.362 507.939 302.953 507.603 302.65 507.149C302.352 506.694 302.205 506.126 302.21 505.444V494.777ZM313.795 508.512C312.701 508.512 311.757 508.285 310.961 507.831C310.171 507.371 309.562 506.723 309.136 505.885C308.71 505.042 308.497 504.05 308.497 502.909C308.497 501.787 308.71 500.802 309.136 499.954C309.567 499.102 310.168 498.439 310.94 497.966C311.712 497.487 312.618 497.248 313.66 497.248C314.333 497.248 314.967 497.357 315.564 497.575C316.165 497.788 316.695 498.119 317.154 498.569C317.618 499.019 317.983 499.592 318.248 500.288C318.513 500.979 318.646 501.803 318.646 502.76V503.548H309.704V501.815H316.181C316.177 501.323 316.07 500.885 315.862 500.501C315.654 500.113 315.362 499.807 314.988 499.585C314.619 499.362 314.188 499.251 313.696 499.251C313.17 499.251 312.708 499.379 312.311 499.635C311.913 499.885 311.603 500.217 311.38 500.629C311.163 501.036 311.051 501.484 311.047 501.971V503.484C311.047 504.118 311.163 504.663 311.395 505.117C311.627 505.567 311.951 505.913 312.368 506.154C312.784 506.391 313.272 506.51 313.831 506.51C314.205 506.51 314.543 506.457 314.846 506.353C315.149 506.244 315.412 506.086 315.635 505.877C315.857 505.669 316.025 505.411 316.139 505.103L318.539 505.373C318.388 506.008 318.099 506.562 317.673 507.035C317.252 507.504 316.712 507.868 316.054 508.129C315.395 508.385 314.643 508.512 313.795 508.512ZM325.565 512.617C324.642 512.617 323.849 512.492 323.186 512.241C322.523 511.995 321.991 511.663 321.588 511.247C321.186 510.83 320.906 510.368 320.75 509.862L323.065 509.301C323.17 509.514 323.321 509.725 323.52 509.933C323.719 510.146 323.986 510.321 324.322 510.458C324.663 510.6 325.092 510.671 325.608 510.671C326.337 510.671 326.941 510.494 327.419 510.139C327.897 509.788 328.136 509.211 328.136 508.406V506.339H328.009C327.876 506.604 327.682 506.876 327.426 507.156C327.175 507.435 326.841 507.67 326.425 507.859C326.013 508.048 325.494 508.143 324.869 508.143C324.031 508.143 323.271 507.947 322.589 507.554C321.912 507.156 321.373 506.564 320.97 505.778C320.572 504.987 320.374 503.998 320.374 502.809C320.374 501.611 320.572 500.6 320.97 499.777C321.373 498.948 321.915 498.321 322.597 497.894C323.278 497.464 324.038 497.248 324.876 497.248C325.516 497.248 326.041 497.357 326.453 497.575C326.87 497.788 327.201 498.046 327.447 498.349C327.694 498.647 327.881 498.929 328.009 499.194H328.151V497.39H330.686V508.477C330.686 509.41 330.464 510.181 330.018 510.792C329.573 511.403 328.965 511.86 328.193 512.163C327.421 512.466 326.545 512.617 325.565 512.617ZM325.587 506.126C326.131 506.126 326.595 505.993 326.979 505.728C327.362 505.463 327.653 505.082 327.852 504.585C328.051 504.088 328.151 503.491 328.151 502.795C328.151 502.109 328.051 501.507 327.852 500.991C327.658 500.475 327.369 500.075 326.986 499.791C326.607 499.502 326.141 499.358 325.587 499.358C325.014 499.358 324.536 499.507 324.152 499.805C323.768 500.103 323.48 500.513 323.286 501.034C323.091 501.55 322.994 502.137 322.994 502.795C322.994 503.463 323.091 504.047 323.286 504.549C323.484 505.046 323.776 505.435 324.159 505.714C324.547 505.989 325.023 506.126 325.587 506.126ZM333.321 508.299V497.39H335.814V499.208H335.928C336.126 498.579 336.467 498.093 336.95 497.752C337.438 497.407 337.994 497.234 338.619 497.234C338.761 497.234 338.92 497.241 339.095 497.255C339.275 497.265 339.424 497.281 339.543 497.305V499.67C339.434 499.632 339.261 499.599 339.024 499.571C338.792 499.537 338.567 499.521 338.349 499.521C337.881 499.521 337.459 499.623 337.085 499.826C336.716 500.025 336.425 500.302 336.212 500.657C335.999 501.012 335.892 501.422 335.892 501.886V508.299H333.321ZM344.195 508.519C343.503 508.519 342.881 508.396 342.327 508.15C341.777 507.899 341.342 507.53 341.02 507.042C340.703 506.555 340.544 505.953 340.544 505.238C340.544 504.623 340.658 504.114 340.885 503.711C341.112 503.309 341.422 502.987 341.815 502.745C342.208 502.504 342.651 502.322 343.143 502.198C343.641 502.071 344.154 501.978 344.685 501.921C345.324 501.855 345.842 501.796 346.24 501.744C346.638 501.687 346.927 501.602 347.107 501.488C347.291 501.37 347.384 501.188 347.384 500.941V500.899C347.384 500.364 347.225 499.949 346.908 499.656C346.59 499.362 346.134 499.216 345.537 499.216C344.907 499.216 344.408 499.353 344.038 499.627C343.674 499.902 343.428 500.226 343.3 500.6L340.899 500.26C341.089 499.597 341.401 499.043 341.837 498.598C342.272 498.148 342.805 497.812 343.435 497.589C344.064 497.362 344.76 497.248 345.523 497.248C346.048 497.248 346.571 497.31 347.092 497.433C347.613 497.556 348.089 497.76 348.52 498.044C348.951 498.323 349.296 498.704 349.557 499.187C349.822 499.67 349.955 500.274 349.955 500.998V508.299H347.483V506.801H347.398C347.241 507.104 347.021 507.388 346.737 507.653C346.458 507.913 346.105 508.124 345.679 508.285C345.258 508.441 344.763 508.519 344.195 508.519ZM344.862 506.63C345.378 506.63 345.826 506.528 346.205 506.325C346.583 506.117 346.875 505.842 347.078 505.501C347.286 505.16 347.391 504.788 347.391 504.386V503.1C347.31 503.167 347.173 503.228 346.979 503.285C346.789 503.342 346.576 503.392 346.339 503.434C346.103 503.477 345.868 503.515 345.636 503.548C345.404 503.581 345.203 503.609 345.033 503.633C344.649 503.685 344.306 503.77 344.003 503.889C343.7 504.007 343.461 504.173 343.286 504.386C343.11 504.594 343.023 504.864 343.023 505.196C343.023 505.669 343.196 506.027 343.541 506.268C343.887 506.51 344.327 506.63 344.862 506.63ZM357.987 497.39V499.379H351.716V497.39H357.987ZM353.264 494.777H355.835V505.018C355.835 505.364 355.887 505.629 355.991 505.814C356.1 505.993 356.242 506.117 356.418 506.183C356.593 506.249 356.787 506.282 357 506.282C357.161 506.282 357.308 506.27 357.44 506.247C357.578 506.223 357.682 506.202 357.753 506.183L358.186 508.193C358.049 508.24 357.852 508.292 357.597 508.349C357.346 508.406 357.038 508.439 356.673 508.448C356.029 508.467 355.449 508.37 354.933 508.157C354.417 507.939 354.008 507.603 353.705 507.149C353.406 506.694 353.259 506.126 353.264 505.444V494.777ZM360.137 508.299V497.39H362.708V508.299H360.137ZM361.43 495.842C361.023 495.842 360.672 495.707 360.379 495.437C360.085 495.162 359.939 494.833 359.939 494.45C359.939 494.062 360.085 493.733 360.379 493.463C360.672 493.188 361.023 493.051 361.43 493.051C361.842 493.051 362.192 493.188 362.481 493.463C362.775 493.733 362.922 494.062 362.922 494.45C362.922 494.833 362.775 495.162 362.481 495.437C362.192 495.707 361.842 495.842 361.43 495.842ZM370.111 508.512C369.045 508.512 368.122 508.278 367.341 507.809C366.56 507.341 365.954 506.685 365.523 505.842C365.097 504.999 364.884 504.014 364.884 502.887C364.884 501.76 365.097 500.773 365.523 499.926C365.954 499.078 366.56 498.42 367.341 497.951C368.122 497.483 369.045 497.248 370.111 497.248C371.176 497.248 372.099 497.483 372.881 497.951C373.662 498.42 374.266 499.078 374.692 499.926C375.123 500.773 375.338 501.76 375.338 502.887C375.338 504.014 375.123 504.999 374.692 505.842C374.266 506.685 373.662 507.341 372.881 507.809C372.099 508.278 371.176 508.512 370.111 508.512ZM370.125 506.453C370.703 506.453 371.186 506.294 371.574 505.977C371.962 505.655 372.251 505.224 372.44 504.684C372.634 504.144 372.732 503.543 372.732 502.88C372.732 502.213 372.634 501.609 372.44 501.069C372.251 500.525 371.962 500.091 371.574 499.769C371.186 499.448 370.703 499.287 370.125 499.287C369.533 499.287 369.041 499.448 368.648 499.769C368.259 500.091 367.968 500.525 367.774 501.069C367.585 501.609 367.49 502.213 367.49 502.88C367.49 503.543 367.585 504.144 367.774 504.684C367.968 505.224 368.259 505.655 368.648 505.977C369.041 506.294 369.533 506.453 370.125 506.453ZM380.091 501.907V508.299H377.52V497.39H379.978V499.244H380.105C380.356 498.633 380.757 498.148 381.306 497.788C381.86 497.428 382.544 497.248 383.358 497.248C384.111 497.248 384.767 497.409 385.326 497.731C385.889 498.053 386.325 498.519 386.632 499.13C386.945 499.741 387.099 500.482 387.094 501.353V508.299H384.523V501.751C384.523 501.022 384.334 500.451 383.955 500.039C383.581 499.627 383.062 499.421 382.4 499.421C381.95 499.421 381.55 499.521 381.199 499.72C380.854 499.914 380.581 500.196 380.382 500.565C380.188 500.934 380.091 501.382 380.091 501.907Z" fill="#27AE60"/>
<path d="M161.485 519.736V527.876H160.484V519.736H161.485ZM163.708 520.869C163.517 520.869 163.356 520.803 163.224 520.671C163.092 520.539 163.026 520.378 163.026 520.187C163.026 519.997 163.092 519.835 163.224 519.703C163.356 519.571 163.517 519.505 163.708 519.505C163.891 519.505 164.045 519.571 164.17 519.703C164.302 519.835 164.368 519.997 164.368 520.187C164.368 520.378 164.302 520.539 164.17 520.671C164.045 520.803 163.891 520.869 163.708 520.869ZM164.192 521.848V527.876H163.191V521.848H164.192ZM168.142 526.952L170.012 521.848H171.079L168.714 527.876H167.548L165.183 521.848H166.261L168.142 526.952ZM177.564 524.631C177.564 524.822 177.553 525.024 177.531 525.236H172.713C172.749 525.83 172.951 526.296 173.318 526.633C173.692 526.963 174.143 527.128 174.671 527.128C175.103 527.128 175.463 527.029 175.749 526.831C176.042 526.626 176.247 526.355 176.365 526.017H177.443C177.281 526.597 176.959 527.07 176.475 527.436C175.991 527.796 175.389 527.975 174.671 527.975C174.099 527.975 173.585 527.847 173.131 527.59C172.683 527.334 172.331 526.971 172.075 526.501C171.818 526.025 171.69 525.475 171.69 524.851C171.69 524.228 171.814 523.682 172.064 523.212C172.313 522.743 172.661 522.384 173.109 522.134C173.563 521.878 174.084 521.749 174.671 521.749C175.243 521.749 175.749 521.874 176.189 522.123C176.629 522.373 176.966 522.717 177.201 523.157C177.443 523.59 177.564 524.081 177.564 524.631ZM176.53 524.422C176.53 524.041 176.445 523.715 176.277 523.443C176.108 523.165 175.877 522.956 175.584 522.816C175.298 522.67 174.979 522.596 174.627 522.596C174.121 522.596 173.688 522.758 173.329 523.08C172.977 523.403 172.775 523.85 172.724 524.422H176.53ZM181.019 527.975C180.557 527.975 180.143 527.898 179.776 527.744C179.409 527.583 179.12 527.363 178.907 527.084C178.694 526.798 178.577 526.472 178.555 526.105H179.589C179.618 526.406 179.758 526.652 180.007 526.842C180.264 527.033 180.597 527.128 181.008 527.128C181.389 527.128 181.69 527.044 181.91 526.875C182.13 526.707 182.24 526.494 182.24 526.237C182.24 525.973 182.123 525.779 181.888 525.654C181.653 525.522 181.29 525.394 180.799 525.269C180.352 525.152 179.985 525.035 179.699 524.917C179.42 524.793 179.178 524.613 178.973 524.378C178.775 524.136 178.676 523.821 178.676 523.432C178.676 523.124 178.768 522.842 178.951 522.585C179.134 522.329 179.395 522.127 179.732 521.98C180.069 521.826 180.454 521.749 180.887 521.749C181.554 521.749 182.093 521.918 182.504 522.255C182.915 522.593 183.135 523.055 183.164 523.641H182.163C182.141 523.326 182.013 523.073 181.778 522.882C181.551 522.692 181.243 522.596 180.854 522.596C180.495 522.596 180.209 522.673 179.996 522.827C179.783 522.981 179.677 523.183 179.677 523.432C179.677 523.63 179.739 523.795 179.864 523.927C179.996 524.052 180.157 524.155 180.348 524.235C180.546 524.309 180.817 524.393 181.162 524.488C181.595 524.606 181.947 524.723 182.218 524.84C182.489 524.95 182.72 525.119 182.911 525.346C183.109 525.574 183.212 525.871 183.219 526.237C183.219 526.567 183.127 526.864 182.944 527.128C182.761 527.392 182.5 527.601 182.163 527.755C181.833 527.902 181.452 527.975 181.019 527.975ZM185.853 522.673V526.226C185.853 526.52 185.915 526.729 186.04 526.853C186.165 526.971 186.381 527.029 186.689 527.029H187.426V527.876H186.524C185.967 527.876 185.549 527.748 185.27 527.491C184.991 527.235 184.852 526.813 184.852 526.226V522.673H184.071V521.848H184.852V520.33H185.853V521.848H187.426V522.673H185.853ZM189.64 522.827C189.816 522.483 190.065 522.215 190.388 522.024C190.718 521.834 191.118 521.738 191.587 521.738V522.772H191.323C190.201 522.772 189.64 523.381 189.64 524.598V527.876H188.639V521.848H189.64V522.827ZM198.243 524.631C198.243 524.822 198.232 525.024 198.21 525.236H193.392C193.428 525.83 193.63 526.296 193.997 526.633C194.371 526.963 194.822 527.128 195.35 527.128C195.782 527.128 196.142 527.029 196.428 526.831C196.721 526.626 196.926 526.355 197.044 526.017H198.122C197.96 526.597 197.638 527.07 197.154 527.436C196.67 527.796 196.068 527.975 195.35 527.975C194.778 527.975 194.264 527.847 193.81 527.59C193.362 527.334 193.01 526.971 192.754 526.501C192.497 526.025 192.369 525.475 192.369 524.851C192.369 524.228 192.493 523.682 192.743 523.212C192.992 522.743 193.34 522.384 193.788 522.134C194.242 521.878 194.763 521.749 195.35 521.749C195.922 521.749 196.428 521.874 196.868 522.123C197.308 522.373 197.645 522.717 197.88 523.157C198.122 523.59 198.243 524.081 198.243 524.631ZM197.209 524.422C197.209 524.041 197.124 523.715 196.956 523.443C196.787 523.165 196.556 522.956 196.263 522.816C195.977 522.67 195.658 522.596 195.306 522.596C194.8 522.596 194.367 522.758 194.008 523.08C193.656 523.403 193.454 523.85 193.403 524.422H197.209ZM199.19 524.84C199.19 524.224 199.314 523.685 199.564 523.223C199.813 522.754 200.154 522.391 200.587 522.134C201.027 521.878 201.514 521.749 202.05 521.749C202.578 521.749 203.036 521.863 203.425 522.09C203.813 522.318 204.103 522.604 204.294 522.948V521.848H205.306V527.876H204.294V526.754C204.096 527.106 203.799 527.4 203.403 527.634C203.014 527.862 202.559 527.975 202.039 527.975C201.503 527.975 201.019 527.843 200.587 527.579C200.154 527.315 199.813 526.945 199.564 526.468C199.314 525.992 199.19 525.449 199.19 524.84ZM204.294 524.851C204.294 524.397 204.202 524.001 204.019 523.663C203.835 523.326 203.586 523.069 203.271 522.893C202.963 522.71 202.622 522.618 202.248 522.618C201.874 522.618 201.533 522.706 201.225 522.882C200.917 523.058 200.671 523.315 200.488 523.652C200.304 523.99 200.213 524.386 200.213 524.84C200.213 525.302 200.304 525.706 200.488 526.05C200.671 526.388 200.917 526.648 201.225 526.831C201.533 527.007 201.874 527.095 202.248 527.095C202.622 527.095 202.963 527.007 203.271 526.831C203.586 526.648 203.835 526.388 204.019 526.05C204.202 525.706 204.294 525.306 204.294 524.851ZM214.246 521.738C214.716 521.738 215.134 521.837 215.5 522.035C215.867 522.226 216.157 522.516 216.369 522.904C216.582 523.293 216.688 523.766 216.688 524.323V527.876H215.698V524.466C215.698 523.865 215.548 523.407 215.247 523.091C214.954 522.769 214.554 522.607 214.048 522.607C213.528 522.607 213.113 522.776 212.805 523.113C212.497 523.443 212.343 523.924 212.343 524.554V527.876H211.353V524.466C211.353 523.865 211.203 523.407 210.902 523.091C210.609 522.769 210.209 522.607 209.703 522.607C209.183 522.607 208.768 522.776 208.46 523.113C208.152 523.443 207.998 523.924 207.998 524.554V527.876H206.997V521.848H207.998V522.717C208.196 522.402 208.46 522.16 208.79 521.991C209.128 521.823 209.498 521.738 209.901 521.738C210.407 521.738 210.855 521.852 211.243 522.079C211.632 522.307 211.922 522.64 212.112 523.08C212.281 522.655 212.56 522.325 212.948 522.09C213.337 521.856 213.77 521.738 214.246 521.738ZM226.455 521.848L222.825 530.714H221.791L222.979 527.81L220.548 521.848H221.659L223.551 526.732L225.421 521.848H226.455ZM230.09 527.975C229.526 527.975 229.012 527.847 228.55 527.59C228.096 527.334 227.736 526.971 227.472 526.501C227.216 526.025 227.087 525.475 227.087 524.851C227.087 524.235 227.219 523.693 227.483 523.223C227.755 522.747 228.121 522.384 228.583 522.134C229.045 521.878 229.562 521.749 230.134 521.749C230.706 521.749 231.223 521.878 231.685 522.134C232.147 522.384 232.51 522.743 232.774 523.212C233.046 523.682 233.181 524.228 233.181 524.851C233.181 525.475 233.042 526.025 232.763 526.501C232.492 526.971 232.122 527.334 231.652 527.59C231.183 527.847 230.662 527.975 230.09 527.975ZM230.09 527.095C230.45 527.095 230.787 527.011 231.102 526.842C231.418 526.674 231.671 526.421 231.861 526.083C232.059 525.746 232.158 525.335 232.158 524.851C232.158 524.367 232.063 523.957 231.872 523.619C231.682 523.282 231.432 523.033 231.124 522.871C230.816 522.703 230.483 522.618 230.123 522.618C229.757 522.618 229.419 522.703 229.111 522.871C228.811 523.033 228.569 523.282 228.385 523.619C228.202 523.957 228.11 524.367 228.11 524.851C228.11 525.343 228.198 525.757 228.374 526.094C228.558 526.432 228.8 526.685 229.1 526.853C229.401 527.015 229.731 527.095 230.09 527.095ZM239.843 521.848V527.876H238.842V526.985C238.652 527.293 238.384 527.535 238.039 527.711C237.702 527.88 237.328 527.964 236.917 527.964C236.448 527.964 236.026 527.869 235.652 527.678C235.278 527.48 234.981 527.187 234.761 526.798C234.549 526.41 234.442 525.937 234.442 525.379V521.848H235.432V525.247C235.432 525.841 235.583 526.3 235.883 526.622C236.184 526.938 236.595 527.095 237.115 527.095C237.651 527.095 238.072 526.93 238.38 526.6C238.688 526.27 238.842 525.79 238.842 525.159V521.848H239.843ZM242.535 522.827C242.711 522.483 242.96 522.215 243.283 522.024C243.613 521.834 244.012 521.738 244.482 521.738V522.772H244.218C243.096 522.772 242.535 523.381 242.535 524.598V527.876H241.534V521.848H242.535V522.827ZM250.814 526.952L252.684 521.848H253.751L251.386 527.876H250.22L247.855 521.848H248.933L250.814 526.952ZM255.253 520.869C255.062 520.869 254.901 520.803 254.769 520.671C254.637 520.539 254.571 520.378 254.571 520.187C254.571 519.997 254.637 519.835 254.769 519.703C254.901 519.571 255.062 519.505 255.253 519.505C255.436 519.505 255.59 519.571 255.715 519.703C255.847 519.835 255.913 519.997 255.913 520.187C255.913 520.378 255.847 520.539 255.715 520.671C255.59 520.803 255.436 520.869 255.253 520.869ZM255.737 521.848V527.876H254.736V521.848H255.737ZM257.069 524.84C257.069 524.224 257.193 523.685 257.443 523.223C257.692 522.754 258.033 522.391 258.466 522.134C258.906 521.878 259.397 521.749 259.94 521.749C260.409 521.749 260.845 521.859 261.249 522.079C261.652 522.292 261.96 522.574 262.173 522.926V519.736H263.185V527.876H262.173V526.743C261.975 527.103 261.681 527.4 261.293 527.634C260.904 527.862 260.449 527.975 259.929 527.975C259.393 527.975 258.906 527.843 258.466 527.579C258.033 527.315 257.692 526.945 257.443 526.468C257.193 525.992 257.069 525.449 257.069 524.84ZM262.173 524.851C262.173 524.397 262.081 524.001 261.898 523.663C261.714 523.326 261.465 523.069 261.15 522.893C260.842 522.71 260.501 522.618 260.127 522.618C259.753 522.618 259.412 522.706 259.104 522.882C258.796 523.058 258.55 523.315 258.367 523.652C258.183 523.99 258.092 524.386 258.092 524.84C258.092 525.302 258.183 525.706 258.367 526.05C258.55 526.388 258.796 526.648 259.104 526.831C259.412 527.007 259.753 527.095 260.127 527.095C260.501 527.095 260.842 527.007 261.15 526.831C261.465 526.648 261.714 526.388 261.898 526.05C262.081 525.706 262.173 525.306 262.173 524.851ZM270.376 524.631C270.376 524.822 270.365 525.024 270.343 525.236H265.525C265.562 525.83 265.764 526.296 266.13 526.633C266.504 526.963 266.955 527.128 267.483 527.128C267.916 527.128 268.275 527.029 268.561 526.831C268.855 526.626 269.06 526.355 269.177 526.017H270.255C270.094 526.597 269.771 527.07 269.287 527.436C268.803 527.796 268.202 527.975 267.483 527.975C266.911 527.975 266.398 527.847 265.943 527.59C265.496 527.334 265.144 526.971 264.887 526.501C264.631 526.025 264.502 525.475 264.502 524.851C264.502 524.228 264.627 523.682 264.876 523.212C265.126 522.743 265.474 522.384 265.921 522.134C266.376 521.878 266.897 521.749 267.483 521.749C268.055 521.749 268.561 521.874 269.001 522.123C269.441 522.373 269.779 522.717 270.013 523.157C270.255 523.59 270.376 524.081 270.376 524.631ZM269.342 524.422C269.342 524.041 269.258 523.715 269.089 523.443C268.921 523.165 268.69 522.956 268.396 522.816C268.11 522.67 267.791 522.596 267.439 522.596C266.933 522.596 266.501 522.758 266.141 523.08C265.789 523.403 265.588 523.85 265.536 524.422H269.342ZM274.327 527.975C273.762 527.975 273.249 527.847 272.787 527.59C272.332 527.334 271.973 526.971 271.709 526.501C271.452 526.025 271.324 525.475 271.324 524.851C271.324 524.235 271.456 523.693 271.72 523.223C271.991 522.747 272.358 522.384 272.82 522.134C273.282 521.878 273.799 521.749 274.371 521.749C274.943 521.749 275.46 521.878 275.922 522.134C276.384 522.384 276.747 522.743 277.011 523.212C277.282 523.682 277.418 524.228 277.418 524.851C277.418 525.475 277.278 526.025 277 526.501C276.728 526.971 276.358 527.334 275.889 527.59C275.419 527.847 274.899 527.975 274.327 527.975ZM274.327 527.095C274.686 527.095 275.023 527.011 275.339 526.842C275.654 526.674 275.907 526.421 276.098 526.083C276.296 525.746 276.395 525.335 276.395 524.851C276.395 524.367 276.299 523.957 276.109 523.619C275.918 523.282 275.669 523.033 275.361 522.871C275.053 522.703 274.719 522.618 274.36 522.618C273.993 522.618 273.656 522.703 273.348 522.871C273.047 523.033 272.805 523.282 272.622 523.619C272.438 523.957 272.347 524.367 272.347 524.851C272.347 525.343 272.435 525.757 272.611 526.094C272.794 526.432 273.036 526.685 273.337 526.853C273.637 527.015 273.967 527.095 274.327 527.095ZM284.295 527.975C283.731 527.975 283.217 527.847 282.755 527.59C282.301 527.334 281.941 526.971 281.677 526.501C281.421 526.025 281.292 525.475 281.292 524.851C281.292 524.235 281.424 523.693 281.688 523.223C281.96 522.747 282.326 522.384 282.788 522.134C283.25 521.878 283.767 521.749 284.339 521.749C284.911 521.749 285.428 521.878 285.89 522.134C286.352 522.384 286.715 522.743 286.979 523.212C287.251 523.682 287.386 524.228 287.386 524.851C287.386 525.475 287.247 526.025 286.968 526.501C286.697 526.971 286.327 527.334 285.857 527.59C285.388 527.847 284.867 527.975 284.295 527.975ZM284.295 527.095C284.655 527.095 284.992 527.011 285.307 526.842C285.623 526.674 285.876 526.421 286.066 526.083C286.264 525.746 286.363 525.335 286.363 524.851C286.363 524.367 286.268 523.957 286.077 523.619C285.887 523.282 285.637 523.033 285.329 522.871C285.021 522.703 284.688 522.618 284.328 522.618C283.962 522.618 283.624 522.703 283.316 522.871C283.016 523.033 282.774 523.282 282.59 523.619C282.407 523.957 282.315 524.367 282.315 524.851C282.315 525.343 282.403 525.757 282.579 526.094C282.763 526.432 283.005 526.685 283.305 526.853C283.606 527.015 283.936 527.095 284.295 527.095ZM289.703 522.827C289.879 522.483 290.129 522.215 290.451 522.024C290.781 521.834 291.181 521.738 291.65 521.738V522.772H291.386C290.264 522.772 289.703 523.381 289.703 524.598V527.876H288.702V521.848H289.703V522.827ZM295.365 524.84C295.365 524.224 295.489 523.685 295.739 523.223C295.988 522.754 296.329 522.391 296.762 522.134C297.202 521.878 297.689 521.749 298.225 521.749C298.753 521.749 299.211 521.863 299.6 522.09C299.988 522.318 300.278 522.604 300.469 522.948V521.848H301.481V527.876H300.469V526.754C300.271 527.106 299.974 527.4 299.578 527.634C299.189 527.862 298.734 527.975 298.214 527.975C297.678 527.975 297.194 527.843 296.762 527.579C296.329 527.315 295.988 526.945 295.739 526.468C295.489 525.992 295.365 525.449 295.365 524.84ZM300.469 524.851C300.469 524.397 300.377 524.001 300.194 523.663C300.01 523.326 299.761 523.069 299.446 522.893C299.138 522.71 298.797 522.618 298.423 522.618C298.049 522.618 297.708 522.706 297.4 522.882C297.092 523.058 296.846 523.315 296.663 523.652C296.479 523.99 296.388 524.386 296.388 524.84C296.388 525.302 296.479 525.706 296.663 526.05C296.846 526.388 297.092 526.648 297.4 526.831C297.708 527.007 298.049 527.095 298.423 527.095C298.797 527.095 299.138 527.007 299.446 526.831C299.761 526.648 300.01 526.388 300.194 526.05C300.377 525.706 300.469 525.306 300.469 524.851ZM308.518 521.848V527.876H307.517V526.985C307.327 527.293 307.059 527.535 306.714 527.711C306.377 527.88 306.003 527.964 305.592 527.964C305.123 527.964 304.701 527.869 304.327 527.678C303.953 527.48 303.656 527.187 303.436 526.798C303.224 526.41 303.117 525.937 303.117 525.379V521.848H304.107V525.247C304.107 525.841 304.258 526.3 304.558 526.622C304.859 526.938 305.27 527.095 305.79 527.095C306.326 527.095 306.747 526.93 307.055 526.6C307.363 526.27 307.517 525.79 307.517 525.159V521.848H308.518ZM309.834 524.84C309.834 524.224 309.959 523.685 310.208 523.223C310.458 522.754 310.799 522.391 311.231 522.134C311.671 521.878 312.163 521.749 312.705 521.749C313.175 521.749 313.611 521.859 314.014 522.079C314.418 522.292 314.726 522.574 314.938 522.926V519.736H315.95V527.876H314.938V526.743C314.74 527.103 314.447 527.4 314.058 527.634C313.67 527.862 313.215 527.975 312.694 527.975C312.159 527.975 311.671 527.843 311.231 527.579C310.799 527.315 310.458 526.945 310.208 526.468C309.959 525.992 309.834 525.449 309.834 524.84ZM314.938 524.851C314.938 524.397 314.847 524.001 314.663 523.663C314.48 523.326 314.231 523.069 313.915 522.893C313.607 522.71 313.266 522.618 312.892 522.618C312.518 522.618 312.177 522.706 311.869 522.882C311.561 523.058 311.316 523.315 311.132 523.652C310.949 523.99 310.857 524.386 310.857 524.84C310.857 525.302 310.949 525.706 311.132 526.05C311.316 526.388 311.561 526.648 311.869 526.831C312.177 527.007 312.518 527.095 312.892 527.095C313.266 527.095 313.607 527.007 313.915 526.831C314.231 526.648 314.48 526.388 314.663 526.05C314.847 525.706 314.938 525.306 314.938 524.851ZM318.159 520.869C317.968 520.869 317.807 520.803 317.675 520.671C317.543 520.539 317.477 520.378 317.477 520.187C317.477 519.997 317.543 519.835 317.675 519.703C317.807 519.571 317.968 519.505 318.159 519.505C318.342 519.505 318.496 519.571 318.621 519.703C318.753 519.835 318.819 519.997 318.819 520.187C318.819 520.378 318.753 520.539 318.621 520.671C318.496 520.803 318.342 520.869 318.159 520.869ZM318.643 521.848V527.876H317.642V521.848H318.643ZM322.978 527.975C322.413 527.975 321.9 527.847 321.438 527.59C320.983 527.334 320.624 526.971 320.36 526.501C320.103 526.025 319.975 525.475 319.975 524.851C319.975 524.235 320.107 523.693 320.371 523.223C320.642 522.747 321.009 522.384 321.471 522.134C321.933 521.878 322.45 521.749 323.022 521.749C323.594 521.749 324.111 521.878 324.573 522.134C325.035 522.384 325.398 522.743 325.662 523.212C325.933 523.682 326.069 524.228 326.069 524.851C326.069 525.475 325.93 526.025 325.651 526.501C325.38 526.971 325.009 527.334 324.54 527.59C324.071 527.847 323.55 527.975 322.978 527.975ZM322.978 527.095C323.337 527.095 323.675 527.011 323.99 526.842C324.305 526.674 324.558 526.421 324.749 526.083C324.947 525.746 325.046 525.335 325.046 524.851C325.046 524.367 324.951 523.957 324.76 523.619C324.569 523.282 324.32 523.033 324.012 522.871C323.704 522.703 323.37 522.618 323.011 522.618C322.644 522.618 322.307 522.703 321.999 522.871C321.698 523.033 321.456 523.282 321.273 523.619C321.09 523.957 320.998 524.367 320.998 524.851C320.998 525.343 321.086 525.757 321.262 526.094C321.445 526.432 321.687 526.685 321.988 526.853C322.289 527.015 322.619 527.095 322.978 527.095ZM331.319 522.959C331.517 522.615 331.81 522.329 332.199 522.101C332.595 521.867 333.053 521.749 333.574 521.749C334.109 521.749 334.593 521.878 335.026 522.134C335.466 522.391 335.81 522.754 336.06 523.223C336.309 523.685 336.434 524.224 336.434 524.84C336.434 525.449 336.309 525.992 336.06 526.468C335.81 526.945 335.466 527.315 335.026 527.579C334.593 527.843 334.109 527.975 333.574 527.975C333.06 527.975 332.606 527.862 332.21 527.634C331.821 527.4 331.524 527.11 331.319 526.765V530.736H330.318V521.848H331.319V522.959ZM335.411 524.84C335.411 524.386 335.319 523.99 335.136 523.652C334.952 523.315 334.703 523.058 334.388 522.882C334.08 522.706 333.739 522.618 333.365 522.618C332.998 522.618 332.657 522.71 332.342 522.893C332.034 523.069 331.784 523.33 331.594 523.674C331.41 524.012 331.319 524.404 331.319 524.851C331.319 525.306 331.41 525.706 331.594 526.05C331.784 526.388 332.034 526.648 332.342 526.831C332.657 527.007 332.998 527.095 333.365 527.095C333.739 527.095 334.08 527.007 334.388 526.831C334.703 526.648 334.952 526.388 335.136 526.05C335.319 525.706 335.411 525.302 335.411 524.84ZM340.38 527.975C339.816 527.975 339.302 527.847 338.84 527.59C338.386 527.334 338.026 526.971 337.762 526.501C337.506 526.025 337.377 525.475 337.377 524.851C337.377 524.235 337.509 523.693 337.773 523.223C338.045 522.747 338.411 522.384 338.873 522.134C339.335 521.878 339.852 521.749 340.424 521.749C340.996 521.749 341.513 521.878 341.975 522.134C342.437 522.384 342.8 522.743 343.064 523.212C343.336 523.682 343.471 524.228 343.471 524.851C343.471 525.475 343.332 526.025 343.053 526.501C342.782 526.971 342.412 527.334 341.942 527.59C341.473 527.847 340.952 527.975 340.38 527.975ZM340.38 527.095C340.74 527.095 341.077 527.011 341.392 526.842C341.708 526.674 341.961 526.421 342.151 526.083C342.349 525.746 342.448 525.335 342.448 524.851C342.448 524.367 342.353 523.957 342.162 523.619C341.972 523.282 341.722 523.033 341.414 522.871C341.106 522.703 340.773 522.618 340.413 522.618C340.047 522.618 339.709 522.703 339.401 522.871C339.101 523.033 338.859 523.282 338.675 523.619C338.492 523.957 338.4 524.367 338.4 524.851C338.4 525.343 338.488 525.757 338.664 526.094C338.848 526.432 339.09 526.685 339.39 526.853C339.691 527.015 340.021 527.095 340.38 527.095ZM344.413 524.84C344.413 524.224 344.538 523.685 344.787 523.223C345.037 522.754 345.378 522.391 345.81 522.134C346.25 521.878 346.742 521.749 347.284 521.749C347.754 521.749 348.19 521.859 348.593 522.079C348.997 522.292 349.305 522.574 349.517 522.926V519.736H350.529V527.876H349.517V526.743C349.319 527.103 349.026 527.4 348.637 527.634C348.249 527.862 347.794 527.975 347.273 527.975C346.738 527.975 346.25 527.843 345.81 527.579C345.378 527.315 345.037 526.945 344.787 526.468C344.538 525.992 344.413 525.449 344.413 524.84ZM349.517 524.851C349.517 524.397 349.426 524.001 349.242 523.663C349.059 523.326 348.81 523.069 348.494 522.893C348.186 522.71 347.845 522.618 347.471 522.618C347.097 522.618 346.756 522.706 346.448 522.882C346.14 523.058 345.895 523.315 345.711 523.652C345.528 523.99 345.436 524.386 345.436 524.84C345.436 525.302 345.528 525.706 345.711 526.05C345.895 526.388 346.14 526.648 346.448 526.831C346.756 527.007 347.097 527.095 347.471 527.095C347.845 527.095 348.186 527.007 348.494 526.831C348.81 526.648 349.059 526.388 349.242 526.05C349.426 525.706 349.517 525.306 349.517 524.851ZM351.847 524.851C351.847 524.228 351.972 523.685 352.221 523.223C352.47 522.754 352.815 522.391 353.255 522.134C353.702 521.878 354.212 521.749 354.784 521.749C355.525 521.749 356.133 521.929 356.61 522.288C357.094 522.648 357.413 523.146 357.567 523.784H356.489C356.386 523.418 356.185 523.128 355.884 522.915C355.591 522.703 355.224 522.596 354.784 522.596C354.212 522.596 353.75 522.794 353.398 523.19C353.046 523.579 352.87 524.133 352.87 524.851C352.87 525.577 353.046 526.138 353.398 526.534C353.75 526.93 354.212 527.128 354.784 527.128C355.224 527.128 355.591 527.026 355.884 526.82C356.177 526.615 356.379 526.322 356.489 525.94H357.567C357.406 526.556 357.083 527.051 356.599 527.425C356.115 527.792 355.51 527.975 354.784 527.975C354.212 527.975 353.702 527.847 353.255 527.59C352.815 527.334 352.47 526.971 352.221 526.501C351.972 526.032 351.847 525.482 351.847 524.851ZM358.529 524.84C358.529 524.224 358.653 523.685 358.903 523.223C359.152 522.754 359.493 522.391 359.926 522.134C360.366 521.878 360.853 521.749 361.389 521.749C361.917 521.749 362.375 521.863 362.764 522.09C363.152 522.318 363.442 522.604 363.633 522.948V521.848H364.645V527.876H363.633V526.754C363.435 527.106 363.138 527.4 362.742 527.634C362.353 527.862 361.898 527.975 361.378 527.975C360.842 527.975 360.358 527.843 359.926 527.579C359.493 527.315 359.152 526.945 358.903 526.468C358.653 525.992 358.529 525.449 358.529 524.84ZM363.633 524.851C363.633 524.397 363.541 524.001 363.358 523.663C363.174 523.326 362.925 523.069 362.61 522.893C362.302 522.71 361.961 522.618 361.587 522.618C361.213 522.618 360.872 522.706 360.564 522.882C360.256 523.058 360.01 523.315 359.827 523.652C359.643 523.99 359.552 524.386 359.552 524.84C359.552 525.302 359.643 525.706 359.827 526.05C360.01 526.388 360.256 526.648 360.564 526.831C360.872 527.007 361.213 527.095 361.587 527.095C361.961 527.095 362.302 527.007 362.61 526.831C362.925 526.648 363.174 526.388 363.358 526.05C363.541 525.706 363.633 525.306 363.633 524.851ZM368.47 527.975C368.008 527.975 367.594 527.898 367.227 527.744C366.861 527.583 366.571 527.363 366.358 527.084C366.146 526.798 366.028 526.472 366.006 526.105H367.04C367.07 526.406 367.209 526.652 367.458 526.842C367.715 527.033 368.049 527.128 368.459 527.128C368.841 527.128 369.141 527.044 369.361 526.875C369.581 526.707 369.691 526.494 369.691 526.237C369.691 525.973 369.574 525.779 369.339 525.654C369.105 525.522 368.742 525.394 368.25 525.269C367.803 525.152 367.436 525.035 367.15 524.917C366.872 524.793 366.63 524.613 366.424 524.378C366.226 524.136 366.127 523.821 366.127 523.432C366.127 523.124 366.219 522.842 366.402 522.585C366.586 522.329 366.846 522.127 367.183 521.98C367.521 521.826 367.906 521.749 368.338 521.749C369.006 521.749 369.545 521.918 369.955 522.255C370.366 522.593 370.586 523.055 370.615 523.641H369.614C369.592 523.326 369.464 523.073 369.229 522.882C369.002 522.692 368.694 522.596 368.305 522.596C367.946 522.596 367.66 522.673 367.447 522.827C367.235 522.981 367.128 523.183 367.128 523.432C367.128 523.63 367.191 523.795 367.315 523.927C367.447 524.052 367.609 524.155 367.799 524.235C367.997 524.309 368.269 524.393 368.613 524.488C369.046 524.606 369.398 524.723 369.669 524.84C369.941 524.95 370.172 525.119 370.362 525.346C370.56 525.574 370.663 525.871 370.67 526.237C370.67 526.567 370.579 526.864 370.395 527.128C370.212 527.392 369.952 527.601 369.614 527.755C369.284 527.902 368.903 527.975 368.47 527.975ZM373.304 522.673V526.226C373.304 526.52 373.367 526.729 373.491 526.853C373.616 526.971 373.832 527.029 374.14 527.029H374.877V527.876H373.975C373.418 527.876 373 527.748 372.721 527.491C372.443 527.235 372.303 526.813 372.303 526.226V522.673H371.522V521.848H372.303V520.33H373.304V521.848H374.877V522.673H373.304Z" fill="#828282"/>
</g>
<path d="M77.4094 285.616H74.1944C74.1289 285.353 74.0785 285.048 74.0463 284.701C73.9808 284.027 73.9808 283.348 74.0463 282.674C74.079 282.328 74.1284 282.024 74.1944 281.759H82.2081V307.128C81.8069 307.198 81.4024 307.247 80.9962 307.275C80.5928 307.306 80.1884 307.323 79.7838 307.324C79.3962 307.322 79.0087 307.306 78.6223 307.275C78.2162 307.247 77.8119 307.197 77.4109 307.127V285.616L77.4094 285.616ZM105.306 291.996C105.306 291.073 105.182 290.191 104.935 289.35C104.689 288.508 104.324 287.776 103.847 287.15C103.37 286.523 102.758 286.021 102.016 285.642C101.274 285.262 100.392 285.072 99.3697 285.072C97.3581 285.072 95.8171 285.683 94.7448 286.903C93.6725 288.122 93.0215 289.82 92.7912 291.996H105.306ZM92.7418 295.655C92.8073 298.424 93.5249 300.452 94.8935 301.737C96.2621 303.022 98.2818 303.667 100.952 303.667C103.293 303.667 105.519 303.254 107.629 302.43C107.892 302.925 108.106 303.526 108.272 304.235C108.434 304.925 108.533 305.628 108.569 306.336C107.481 306.8 106.285 307.144 104.983 307.375C103.682 307.606 102.237 307.721 100.656 307.721C98.3468 307.721 96.3724 307.399 94.7196 306.756C93.0668 306.114 91.7103 305.206 90.638 304.036C89.5657 302.866 88.7836 301.482 88.2882 299.882C87.7929 298.282 87.546 296.528 87.546 294.615C87.546 292.736 87.7848 290.98 88.2631 289.348C88.7413 287.716 89.4755 286.299 90.4636 285.096C91.4518 283.893 92.698 282.936 94.1986 282.228C95.6992 281.52 97.4705 281.165 99.5158 281.165C101.263 281.165 102.796 281.467 104.117 282.055C105.437 282.643 106.54 283.465 107.431 284.504C108.321 285.543 108.997 286.779 109.458 288.212C109.92 289.644 110.151 291.204 110.151 292.886C110.151 293.347 110.134 293.833 110.101 294.344C110.074 294.781 110.041 295.218 110.002 295.655L92.7398 295.656L92.7418 295.655ZM115.547 281.759C115.891 281.696 116.237 281.647 116.585 281.61C116.93 281.577 117.277 281.561 117.624 281.562C117.987 281.562 118.349 281.578 118.712 281.61C119.075 281.643 119.405 281.694 119.702 281.759C119.8 282.253 119.898 282.905 119.998 283.712C120.097 284.518 120.147 285.203 120.147 285.764C120.839 284.644 121.759 283.67 122.892 282.846C124.024 282.022 125.488 281.61 127.269 281.61C127.533 281.61 127.805 281.619 128.085 281.635C128.325 281.648 128.565 281.672 128.802 281.709C128.871 282.019 128.92 282.333 128.951 282.649C128.984 282.978 129 283.324 129 283.687C129 284.083 128.975 284.495 128.926 284.923C128.879 285.336 128.821 285.749 128.754 286.159C128.486 286.093 128.212 286.06 127.937 286.06H127.269C126.379 286.06 125.53 286.184 124.722 286.431C123.914 286.678 123.188 287.116 122.545 287.741C121.901 288.366 121.386 289.225 121.013 290.313C120.64 291.402 120.444 292.802 120.444 294.516V307.127C120.042 307.197 119.638 307.247 119.232 307.275C118.787 307.309 118.383 307.324 118.02 307.324C117.616 307.323 117.212 307.306 116.808 307.275C116.386 307.245 115.965 307.195 115.547 307.128V281.759ZM80.8319 268.213C80.832 268.805 80.7252 269.392 80.5165 269.946C79.9622 270.154 79.3748 270.261 78.7825 270.262H78.7755C78.1832 270.262 77.5958 270.155 77.0415 269.946C76.8325 269.392 76.7255 268.805 76.7256 268.213V268.205C76.7256 267.596 76.8374 267.011 77.0405 266.472C77.5949 266.263 78.1825 266.156 78.775 266.157H78.7815C79.3738 266.156 79.9613 266.263 80.5155 266.472C80.7244 267.026 80.8312 267.614 80.8309 268.206V268.213L80.8319 268.213ZM86.8758 266.84H82.0836L85.4724 263.452C84.9396 262.704 84.2854 262.05 83.5369 261.518L80.1476 264.906V260.114C79.697 260.039 79.2409 260 78.784 260H78.7755C78.3104 260 77.8553 260.04 77.4114 260.114V264.906L74.0216 261.518C73.6482 261.784 73.2978 262.08 72.974 262.404L72.9725 262.406C72.6486 262.73 72.3523 263.08 72.0866 263.453L75.4764 266.841H70.6827C70.6827 266.841 70.5688 267.741 70.5688 268.206V268.211C70.5688 268.677 70.6081 269.133 70.6832 269.571H75.4769L72.0866 272.959C72.6199 273.707 73.2742 274.361 74.0226 274.894L77.4119 271.506V276.298C77.8553 276.372 78.3099 276.411 78.774 276.412H78.7855C79.2419 276.411 79.6975 276.373 80.1476 276.298V271.512L83.5374 274.9C83.9107 274.634 84.2613 274.338 84.5855 274.014H84.5865C84.9101 273.69 85.2062 273.339 85.4719 272.966L82.0831 269.577H86.8768C86.9509 269.134 86.9902 268.679 86.9902 268.215V268.203C86.9902 267.746 86.9519 267.296 86.8768 266.841L86.8758 266.84ZM0 306.436L13.3551 285.665H1.58227C1.48351 285.071 1.43463 284.413 1.43463 283.687C1.43463 282.995 1.48502 282.352 1.58328 281.758H20.626L20.8739 282.401L7.41954 303.22H20.0324C20.1322 303.891 20.1819 304.569 20.181 305.247C20.181 305.907 20.1316 306.533 20.0329 307.126H0.247923L0 306.436V306.436ZM38.5318 295.215C38.037 295.149 37.4106 295.084 36.6523 295.017C35.8939 294.951 35.2514 294.918 34.7238 294.918C32.679 294.918 31.1209 295.298 30.0501 296.056C28.9793 296.814 28.4376 297.968 28.4376 299.517C28.4376 300.506 28.618 301.28 28.9818 301.841C29.3456 302.402 29.7981 302.83 30.3423 303.127C30.8866 303.423 31.4877 303.605 32.1463 303.671C32.8049 303.736 33.4323 303.77 34.0259 303.77C34.8107 303.768 35.595 303.727 36.3756 303.646C37.1834 303.564 37.9004 303.439 38.5273 303.275V295.214L38.5318 295.215ZM38.5318 290.419C38.5318 288.473 38.037 287.121 37.0483 286.363C36.0597 285.605 34.6296 285.226 32.745 285.226C31.59 285.226 30.5106 285.316 29.5048 285.498C28.5099 285.676 27.5267 285.915 26.561 286.214C25.9341 285.126 25.6217 283.825 25.6217 282.307C26.7414 281.944 27.978 281.665 29.3305 281.467C30.683 281.269 31.9846 281.165 33.2383 281.165C36.5354 281.165 39.0418 281.92 40.7566 283.415C42.4714 284.91 43.3291 287.314 43.3291 290.611V306.48C42.1741 306.743 40.7732 307.015 39.1244 307.296C37.4575 307.577 35.7698 307.718 34.0793 307.717C32.4638 307.717 31.004 307.569 29.7019 307.272C28.3998 306.975 27.2942 306.498 26.3877 305.837C25.4868 305.186 24.7638 304.319 24.2848 303.316C23.791 302.293 23.5431 301.057 23.5431 299.606C23.5431 298.189 23.8313 296.944 24.4088 295.872C24.9759 294.813 25.78 293.899 26.7585 293.202C27.7477 292.494 28.885 291.966 30.1715 291.62C31.458 291.275 32.8095 291.1 34.228 291.1C35.2831 291.1 36.1489 291.125 36.8251 291.175C37.5014 291.224 38.0698 291.282 38.5313 291.348V290.414L38.5318 290.419ZM53.5685 302.978C54.193 303.209 54.8395 303.374 55.4979 303.473C56.1581 303.572 57.0147 303.621 58.0704 303.621C59.2571 303.621 60.345 303.432 61.3342 303.053C62.3128 302.682 63.187 302.08 63.882 301.297C64.591 300.506 65.1518 299.51 65.5635 298.305C65.9752 297.1 66.1823 295.677 66.1823 294.023C66.1823 291.385 65.695 289.287 64.723 287.743C63.7509 286.198 62.1581 285.419 59.95 285.419C59.1256 285.419 58.3334 285.567 57.5816 285.864C56.8298 286.161 56.1465 286.606 55.5529 287.199C54.9593 287.792 54.4815 288.543 54.1187 289.449C53.7559 290.356 53.5745 291.435 53.5745 292.689V302.973L53.5685 302.978ZM48.6715 281.764C49.0071 281.698 49.3447 281.648 49.6853 281.615C50.039 281.583 50.394 281.567 50.7491 281.567C51.0776 281.567 51.4243 281.584 51.7872 281.615C52.15 281.647 52.4956 281.699 52.8252 281.764C52.8575 281.831 52.8993 282.036 52.9492 282.382L53.0973 283.495L53.2455 284.632C53.2948 284.995 53.3195 285.227 53.3195 285.325C53.6486 284.798 54.0452 284.287 54.5062 283.792C54.9673 283.297 55.5211 282.852 56.1691 282.457C56.8172 282.061 57.5373 281.748 58.346 281.517C59.1548 281.286 60.0523 281.169 61.0419 281.169C62.5254 281.169 63.9026 281.417 65.1725 281.912C66.432 282.4 67.5527 283.189 68.4363 284.211C69.3433 285.25 70.0513 286.569 70.5628 288.167C71.0742 289.766 71.3287 291.654 71.3287 293.83C71.3287 298.182 70.1496 301.586 67.7913 304.042C65.433 306.497 62.0951 307.725 57.7756 307.725C57.0313 307.724 56.2878 307.675 55.5498 307.577C54.7909 307.478 54.1318 307.345 53.571 307.182V318.803C53.1531 318.871 52.7324 318.92 52.3102 318.951C51.8648 318.983 51.4601 319 51.0978 319C50.6936 318.998 50.2895 318.982 49.8864 318.951C49.4804 318.922 49.076 318.873 48.675 318.803V281.764H48.6715Z" fill="#FF4A00"/>
<path d="M85.262 159.649C84.0479 157.595 82.3156 155.89 80.2352 154.701C78.6469 153.787 77.0046 153.206 75.1502 152.954V146.375C76.0495 146.006 76.8163 145.378 77.3515 144.572C77.8866 143.767 78.1656 142.821 78.1521 141.856C78.1554 141.205 78.0288 140.559 77.7795 139.957C77.5303 139.354 77.1633 138.806 76.6996 138.345C76.236 137.883 75.6849 137.516 75.0779 137.267C74.4709 137.017 73.8201 136.888 73.1628 136.888C71.8313 136.888 70.5542 137.411 69.6112 138.342C68.6682 139.273 68.1362 140.537 68.1318 141.856C68.1318 143.875 69.2128 145.597 71.0714 146.375V152.917C69.5318 153.138 68.0381 153.603 66.6474 154.293L48.8727 140.958C48.9975 140.493 49.1056 140.011 49.1056 139.504C49.1056 136.464 46.6192 134 43.5507 134C40.4822 134 38 136.464 38 139.504C38 142.544 40.4864 145.008 43.5549 145.008C44.6026 145.008 45.5714 144.703 46.4071 144.204L47.5713 145.078L63.5166 156.468C62.6726 157.235 61.8867 158.108 61.2589 159.088C59.9866 161.087 59.2091 163.282 59.2091 165.68V166.174C59.2147 167.8 59.5103 169.412 60.0822 170.937C60.5645 172.238 61.2714 173.425 62.1487 174.496L56.8516 179.757C55.2841 179.18 53.5253 179.563 52.3403 180.737C51.5337 181.532 51.0805 182.616 51.0847 183.744C51.0888 184.873 51.5337 185.948 52.3445 186.752C53.1553 187.555 54.2405 188 55.3797 188C56.519 188 57.6125 187.555 58.4149 186.752C59.2174 185.948 59.6748 184.873 59.6706 183.744C59.6703 183.311 59.603 182.88 59.471 182.467L64.9427 177.046C65.6911 177.561 66.5019 177.993 67.3751 178.364C69.1696 179.144 71.1075 179.548 73.0671 179.551H73.4413C75.7364 179.551 77.9027 179.015 79.9359 177.923C82.0257 176.813 83.7816 175.174 85.025 173.173C86.3015 171.155 87 168.918 87 166.458V166.335C87 163.917 86.4345 161.688 85.2537 159.645L85.262 159.649ZM78.5804 171.027C77.0961 172.663 75.3872 173.672 73.458 173.672H73.0921C71.9902 173.672 70.9092 173.371 69.8573 172.819C68.7038 172.225 67.7265 171.343 67.0216 170.261C66.2566 169.19 65.8408 168.02 65.8408 166.78V166.409C65.8408 165.19 66.0778 164.032 66.6724 162.94C67.3085 161.704 68.1692 160.819 69.3126 160.081C70.456 159.344 71.6327 158.99 72.9715 158.99H73.0962C74.302 158.99 75.4537 159.224 76.5348 159.772C77.6299 160.343 78.5601 161.181 79.2373 162.207C79.9078 163.236 80.3225 164.408 80.4473 165.626L80.4764 166.397C80.4764 168.073 79.8278 169.626 78.5347 171.035L78.5804 171.027Z" fill="#F8761F"/>
<g clip-path="url(#clip1_0_1)">
<path d="M392.718 360.3C392.718 353.507 387.211 348 380.418 348H326.3C319.507 348 314 353.507 314 360.3V414.418C314 421.211 319.507 426.718 326.3 426.718H380.418C387.211 426.718 392.718 421.211 392.718 414.418V360.3Z" fill="#4A154B"/>
<path d="M341.984 392.561C341.984 394.848 340.135 396.697 337.847 396.697C335.56 396.697 333.711 394.848 333.711 392.561C333.711 390.273 335.56 388.424 337.847 388.424H341.984V392.561Z" fill="#E01E5A"/>
<path d="M344.053 392.561C344.053 390.273 345.902 388.424 348.189 388.424C350.477 388.424 352.326 390.273 352.326 392.561V402.902C352.326 405.189 350.477 407.038 348.189 407.038C345.902 407.038 344.053 405.189 344.053 402.902V392.561Z" fill="#E01E5A"/>
<path d="M348.189 375.952C345.902 375.952 344.053 374.103 344.053 371.816C344.053 369.528 345.902 367.679 348.189 367.679C350.477 367.679 352.326 369.528 352.326 371.816V375.952H348.189Z" fill="#36C5F0"/>
<path d="M348.189 378.052C350.476 378.052 352.325 379.9 352.325 382.188C352.325 384.476 350.476 386.324 348.189 386.324H337.816C335.529 386.324 333.68 384.476 333.68 382.188C333.68 379.9 335.529 378.052 337.816 378.052H348.189Z" fill="#36C5F0"/>
<path d="M364.766 382.188C364.766 379.9 366.615 378.052 368.902 378.052C371.19 378.052 373.039 379.9 373.039 382.188C373.039 384.476 371.19 386.324 368.902 386.324H364.766V382.188Z" fill="#2EB67D"/>
<path d="M362.697 382.188C362.697 384.476 360.848 386.324 358.56 386.324C356.273 386.324 354.424 384.476 354.424 382.188V371.816C354.424 369.528 356.273 367.679 358.56 367.679C360.848 367.679 362.697 369.528 362.697 371.816V382.188Z" fill="#2EB67D"/>
<path d="M358.56 398.766C360.848 398.766 362.697 400.615 362.697 402.902C362.697 405.189 360.848 407.038 358.56 407.038C356.273 407.038 354.424 405.189 354.424 402.902V398.766H358.56Z" fill="#ECB22E"/>
<path d="M358.56 396.697C356.273 396.697 354.424 394.848 354.424 392.561C354.424 390.273 356.273 388.424 358.56 388.424H368.933C371.22 388.424 373.069 390.273 373.069 392.561C373.069 394.848 371.22 396.697 368.933 396.697H358.56Z" fill="#ECB22E"/>
</g>
<path d="M369.931 48.141C368.855 48.141 367.767 47.9174 366.72 47.4569L344.386 37.505C340.393 35.732 338.593 31.0278 340.366 27.0366L350.318 4.70267C352.091 0.709586 356.795 -1.09039 360.786 0.682605L383.12 10.6345C387.113 12.4075 388.913 17.1117 387.14 21.1029L377.189 43.4368C375.863 46.3969 372.958 48.141 369.931 48.141ZM368.576 43.2711C370.264 44.0246 372.247 43.2576 373.001 41.5829L382.953 19.2489C383.706 17.5607 382.939 15.5777 381.265 14.8242L358.917 4.87227C357.229 4.11874 355.246 4.88575 354.492 6.56046L344.54 28.8944C343.787 30.5826 344.554 32.5656 346.229 33.3192L368.576 43.2711Z" fill="#089949"/>
<path d="M439.99 48.1567H415.534C411.165 48.1567 407.605 44.5972 407.605 40.2283V15.7726C407.605 11.4037 411.165 7.84424 415.534 7.84424H439.99C444.358 7.84424 447.918 11.4037 447.918 15.7726V40.2283C447.918 44.5972 444.358 48.1567 439.99 48.1567ZM415.534 12.4213C413.691 12.4213 412.184 13.9283 412.184 15.7707V40.2264C412.184 42.0688 413.691 43.5758 415.534 43.5758H439.99C441.832 43.5758 443.339 42.0688 443.339 40.2264V15.7707C443.339 13.9283 441.832 12.4213 439.99 12.4213H415.534Z" fill="#F9B21D"/>
<path d="M348.406 20.2529L345.113 27.6223C345.07 27.7052 345.03 27.7765 344.987 27.8459L346.271 35.7743C346.564 37.6031 345.321 39.3202 343.507 39.6132L319.36 43.5215C318.481 43.6602 317.587 43.4521 316.86 42.9356C316.134 42.4191 315.66 41.6367 315.521 40.7579L311.611 16.6086C311.472 15.7298 311.68 14.8356 312.197 14.1091C312.713 13.3825 313.495 12.9084 314.374 12.7697L338.522 8.86139C338.703 8.83441 338.884 8.81899 339.052 8.81899C340.657 8.81899 342.095 9.99071 342.361 11.6384L343.659 19.6227L347.065 11.9873L346.884 10.9119C346.186 6.5989 342.11 3.65419 337.797 4.35182L313.65 8.26011C311.57 8.58195 309.728 9.71127 308.498 11.4284C307.255 13.1455 306.768 15.2384 307.103 17.3332L311.011 41.4806C311.347 43.5735 312.478 45.4024 314.193 46.6454C315.548 47.636 317.153 48.139 318.813 48.139C319.231 48.139 319.664 48.112 320.096 48.0407L344.243 44.1324C348.556 43.4347 351.501 39.3588 350.803 35.0458L348.406 20.2529Z" fill="#E42527"/>
<path d="M377.37 31.7835L380.916 23.8416L379.91 16.4567C379.784 15.578 380.021 14.6972 380.565 13.9861C381.108 13.275 381.891 12.8144 382.785 12.7026L407.017 9.40909C407.171 9.3956 407.323 9.38211 407.478 9.38211C408.204 9.38211 408.902 9.61915 409.501 10.0663C409.613 10.1491 409.711 10.2474 409.808 10.3322C410.883 9.20096 412.292 8.39155 413.87 8.04273C413.423 7.42796 412.893 6.8845 412.265 6.41042C410.577 5.12693 408.495 4.58154 406.402 4.86098L382.143 8.15451C380.05 8.43395 378.179 9.52279 376.909 11.211C375.625 12.8992 375.08 14.9805 375.36 17.0734L377.37 31.7835Z" fill="#226DB4"/>
<path d="M418.603 35.8731L415.421 12.4233C413.635 12.4792 412.197 13.9593 412.197 15.7593V22.6412L414.082 36.4879C414.207 37.3666 413.97 38.2474 413.427 38.9585C412.883 39.6696 412.101 40.1302 411.207 40.242L386.975 43.5355C386.096 43.6608 385.215 43.4237 384.504 42.8803C383.793 42.3368 383.332 41.5544 383.22 40.6602L382.105 32.4389L378.559 40.3807L378.684 41.2749C378.963 43.3678 380.052 45.2391 381.74 46.5091C383.136 47.5691 384.797 48.1279 386.527 48.1279C386.89 48.1279 387.254 48.101 387.616 48.0586L411.82 44.792C413.912 44.5126 415.784 43.4237 417.054 41.7355C418.339 40.0454 418.883 37.966 418.603 35.8731Z" fill="#226DB4"/>
<path d="M350.235 59.7562L353.696 54.6473H350.847C350.693 54.6473 350.568 54.5221 350.568 54.3679V53.6837C350.568 53.5296 350.693 53.4043 350.847 53.4043H355.523C355.677 53.4043 355.802 53.5296 355.802 53.6837V53.9497C355.802 54.0056 355.789 54.0615 355.76 54.1039L352.368 59.2128H355.411C355.565 59.2128 355.69 59.338 355.69 59.4922V60.1764C355.69 60.3305 355.565 60.4558 355.411 60.4558H350.47C350.316 60.4558 350.19 60.3305 350.19 60.1764V59.9258C350.179 59.8526 350.206 59.7967 350.235 59.7562Z" fill="black"/>
<path d="M364.806 56.8807C364.806 54.7878 366.342 53.2788 368.435 53.2788C370.599 53.2788 372.063 54.7589 372.063 56.8942C372.063 59.0584 370.57 60.5519 368.406 60.5519C366.23 60.55 364.806 59.0565 364.806 56.8807ZM370.404 56.9077C370.404 55.6377 369.789 54.5488 368.408 54.5488C367.012 54.5488 366.48 55.6801 366.48 56.9635C366.48 58.1777 367.136 59.2954 368.477 59.2954C369.859 59.28 370.404 58.0948 370.404 56.9077Z" fill="black"/>
<path d="M381.991 53.3906H383.024C383.178 53.3906 383.303 53.5159 383.303 53.6701V56.266H386.234V53.6701C386.234 53.5159 386.359 53.3906 386.514 53.3906H387.547C387.701 53.3906 387.826 53.5159 387.826 53.6701V60.1608C387.826 60.3149 387.701 60.4402 387.547 60.4402H386.527C386.373 60.4402 386.248 60.3149 386.248 60.1608V57.536H383.316V60.1608C383.316 60.3149 383.191 60.4402 383.037 60.4402H382.004C381.85 60.4402 381.725 60.3149 381.725 60.1608V53.6701C381.711 53.5159 381.836 53.3906 381.991 53.3906Z" fill="black"/>
<path d="M397.47 56.8807C397.47 54.7878 399.006 53.2788 401.099 53.2788C403.263 53.2788 404.727 54.7589 404.727 56.8942C404.727 59.0584 403.234 60.5519 401.07 60.5519C398.894 60.55 397.47 59.0565 397.47 56.8807ZM403.053 56.9077C403.053 55.6377 402.438 54.5488 401.056 54.5488C399.661 54.5488 399.129 55.6801 399.129 56.9635C399.129 58.1777 399.784 59.2954 401.126 59.2954C402.509 59.28 403.053 58.0948 403.053 56.9077Z" fill="black"/>
<g clip-path="url(#clip2_0_1)">
<path d="M197.91 337H142.808C136.286 337 131 342.286 131 348.808V403.91C131 410.431 136.286 415.718 142.808 415.718H197.91C204.431 415.718 209.718 410.431 209.718 403.91V348.808C209.718 342.286 204.431 337 197.91 337Z" fill="#2D8CFF"/>
<path d="M196.803 391.887C198.033 392.194 199.109 391.58 199.724 390.657C200.032 390.196 200.032 389.427 200.032 387.736V364.52C200.032 362.829 200.032 362.214 199.724 361.599C199.263 360.369 198.033 359.908 196.803 360.369C193.574 362.522 186.502 368.825 186.348 371.439C186.225 371.9 186.225 372.669 186.225 373.745V379.587C186.225 380.817 186.225 381.279 186.348 381.894C186.502 383.124 186.963 384.2 187.578 384.815C189.423 386.198 195.573 391.733 196.957 391.733L196.803 391.887ZM140.84 365.75C140.84 363.444 140.84 362.214 141.301 361.599C141.609 360.984 142.531 360.369 142.992 359.908C143.607 359.447 144.683 359.447 147.143 359.447H166.977C172.819 359.447 175.74 359.447 178.046 360.677C179.737 361.907 181.582 362.983 182.659 365.289C183.888 367.595 183.888 370.516 183.888 376.359V386.813C183.888 389.12 183.888 390.35 183.427 390.965C183.12 391.58 182.197 392.194 181.736 392.656C181.121 393.117 180.045 393.117 177.585 393.117H157.752C151.909 393.117 148.988 393.117 146.682 391.887C144.991 390.657 143.146 389.581 142.07 387.275C140.84 384.968 140.84 382.047 140.84 376.205V365.75Z" fill="white"/>
</g>
<g clip-path="url(#clip3_0_1)">
<path d="M497.91 222H442.808C436.286 222 431 227.286 431 233.808V288.91C431 295.431 436.286 300.718 442.808 300.718H497.91C504.431 300.718 509.718 295.431 509.718 288.91V233.808C509.718 227.286 504.431 222 497.91 222Z" fill="#FFDD22"/>
<path d="M495.266 269.046L494.343 266.432C494.343 266.432 498.187 260.59 488.655 258.591C488.655 258.591 489.27 251.365 485.887 247.983C493.267 240.757 491.576 229.841 474.818 236.913C466.208 220.462 432.999 259.053 446.836 265.202C445.452 267.047 445.452 276.272 454.985 277.194C461.442 291.032 477.124 291.954 486.195 287.803C495.266 283.652 500.493 270.43 495.266 269.046ZM454.831 275.196C446.99 274.427 446.221 263.665 452.986 262.589C459.751 261.512 461.442 275.811 454.831 275.196ZM452.525 260.59C450.372 260.59 447.759 263.511 447.759 263.511C437.304 258.438 466.669 224.767 472.973 237.836C472.973 237.836 457.598 245.215 452.525 260.59ZM483.274 273.658C483.274 273.043 480.045 274.581 474.203 272.582C474.664 269.353 481.582 275.349 493.113 267.508L494.036 270.737C498.341 269.968 494.036 284.574 480.199 284.42C468.975 284.267 465.439 272.736 471.589 266.432C472.819 265.202 467.13 262.742 468.207 257.361C468.668 255.055 470.667 251.673 475.74 252.595C480.814 253.518 481.89 248.905 485.272 250.597C488.655 252.288 486.656 258.745 487.117 259.667C487.579 260.59 492.498 260.744 493.421 263.357C494.343 265.971 487.117 271.66 475.894 270.122C473.28 269.815 471.743 273.197 473.434 275.349C476.816 280.269 490.653 277.041 492.96 272.275C487.117 276.733 475.125 278.424 474.203 273.658C477.585 275.196 483.274 274.273 483.274 273.658ZM463.133 249.367C466.515 245.215 470.974 242.756 470.974 242.756L470.052 245.062C470.052 245.062 473.28 242.602 476.816 242.602L475.586 243.832C479.584 243.985 481.275 245.523 481.275 245.523C481.275 245.523 471.896 242.756 463.133 249.367ZM483.889 255.363C485.887 255.209 485.272 259.821 485.272 259.821H484.042C484.042 259.821 481.89 255.516 483.889 255.363ZM474.818 260.436C473.434 260.59 471.896 261.359 472.05 260.744C472.665 258.284 478.354 258.899 478.2 261.051C478.046 263.204 476.816 260.129 474.818 260.436ZM478.046 262.281C478.2 262.589 476.97 262.281 476.048 262.435C475.125 262.589 474.203 263.05 474.203 262.742C474.203 262.435 477.739 261.051 478.046 262.281ZM481.121 262.742C481.582 261.82 483.427 262.742 482.966 263.665C482.505 264.587 480.66 263.665 481.121 262.742ZM484.965 263.05C484.042 263.05 484.042 261.051 484.965 261.051C485.887 261.051 485.887 263.204 484.965 263.204V263.05ZM457.291 271.198C457.752 271.66 456.368 272.582 455.292 271.813C454.216 271.045 456.522 267.355 453.755 266.432C450.987 265.51 451.756 269.046 450.987 268.585C450.218 268.123 452.063 263.204 455.292 265.202C458.521 267.201 454.37 270.276 456.214 271.198C458.059 272.121 456.983 270.891 457.291 271.198Z" fill="#222222"/>
</g>
<defs>
<filter id="filter0_d_0_1" x="37.7852" y="473" width="446.338" height="167.008" filterUnits="userSpaceOnUse" color-interpolation-filters="sRGB">
<feFlood flood-opacity="0" result="BackgroundImageFix"/>
<feColorMatrix in="SourceAlpha" type="matrix" values="0 0 0 0 0 0 0 0 0 0 0 0 0 0 0 0 0 0 127 0" result="hardAlpha"/>
<feOffset dy="51.5436"/>
<feGaussianBlur stdDeviation="16.1074"/>
<feColorMatrix type="matrix" values="0 0 0 0 0 0 0 0 0 0.230208 0 0 0 0 0.425 0 0 0 0.08 0"/>
<feBlend mode="multiply" in2="BackgroundImageFix" result="effect1_dropShadow_0_1"/>
<feBlend mode="normal" in="SourceGraphic" in2="effect1_dropShadow_0_1" result="shape"/>
</filter>
<filter id="filter1_f_0_1" x="81.329" y="482.329" width="64.4298" height="64.4293" filterUnits="userSpaceOnUse" color-interpolation-filters="sRGB">
<feFlood flood-opacity="0" result="BackgroundImageFix"/>
<feBlend mode="normal" in="SourceGraphic" in2="BackgroundImageFix" result="shape"/>
<feGaussianBlur stdDeviation="2.57718" result="effect1_foregroundBlur_0_1"/>
</filter>
<clipPath id="clip0_0_1">
<rect x="82.6172" y="483.617" width="61.8523" height="61.8523" rx="30.9262" fill="white"/>
</clipPath>
<clipPath id="clip1_0_1">
<rect width="78.7175" height="78.7175" fill="white" transform="translate(314 348)"/>
</clipPath>
<clipPath id="clip2_0_1">
<rect width="78.7175" height="78.7175" fill="white" transform="translate(131 337)"/>
</clipPath>
<clipPath id="clip3_0_1">
<rect width="78.7175" height="78.7175" fill="white" transform="translate(431 222)"/>
</clipPath>
</defs>
</svg>
