<svg width="159" height="64" viewBox="0 0 159 64" fill="none" xmlns="http://www.w3.org/2000/svg">
<path d="M71.861 9.85909L64.5177 2.41925L60.4658 6.4209L67.809 13.8607L71.861 9.85909Z" fill="#1814F3"/>
<path d="M95.9795 15.1964C94.4018 16.8176 92.3187 17.7242 90.1136 17.7492C87.9085 17.7742 85.8454 16.9145 84.3043 15.329C84.3043 15.3287 76.6901 7.48967 76.6901 7.48967C75.6709 6.44112 73.9933 6.46013 72.9504 7.53204C72.445 8.05116 72.1623 8.7373 72.1541 9.46365C72.1459 10.19 72.4131 10.8699 72.9068 11.3777C73.4164 11.9021 74.0905 12.1594 74.7675 12.1518C75.4446 12.1441 76.1249 11.8712 76.6463 11.3354L77.1994 10.7669L81.1202 14.8035L80.568 15.371C78.9906 16.9922 76.9075 17.8988 74.7021 17.9238C72.497 17.9488 70.4337 17.0891 68.8926 15.5033C67.3516 13.9172 66.517 11.795 66.5427 9.52722C66.5683 7.25949 67.4513 5.11753 69.0286 3.49637C70.606 1.87521 72.6894 0.968568 74.8945 0.943588C77.0996 0.918607 79.1627 1.77802 80.7038 3.36385L86.4705 9.30097L88.3127 11.1977L88.318 11.2031C89.3372 12.2517 91.0148 12.2327 92.0578 11.1608C92.5631 10.6417 92.8458 9.95551 92.854 9.22915C92.8623 8.5028 92.595 7.82289 92.1013 7.31509C91.0824 6.26653 89.4048 6.28554 88.3616 7.35745L87.8084 7.92595L83.8877 3.88926L84.4401 3.32178C86.0175 1.70062 88.1006 0.793982 90.3057 0.769001C92.5108 0.74402 94.5742 1.60368 96.1153 3.18952C97.6565 4.77534 98.4912 6.89785 98.4655 9.16558C98.4398 11.4333 97.5569 13.575 95.9795 15.1964Z" fill="#1814F3"/>
<path d="M9.62197 54.2915L1.95437 31.9524L6.21745 31.9041L12.1174 50.2234L10.8449 50.2378L17.6387 31.7747L20.6928 31.7401L26.5928 50.0594L25.4157 50.0727L32.0186 31.6118L36.0272 31.5664L27.7878 54.0857L24.3837 54.1243L18.6616 36.9481L19.3615 36.9402L13.0261 54.253L9.62197 54.2915ZM43.0397 54.2311C41.6399 54.2469 40.4135 53.9321 39.3605 53.2866C38.3077 52.6199 37.4915 51.6643 36.9118 50.4197C36.3321 49.175 36.0521 47.6831 36.0718 45.944C36.0915 44.2048 36.4053 42.7168 37.013 41.4799C37.6211 40.2219 38.4591 39.2581 39.527 38.5886C40.5951 37.8978 41.8291 37.5446 43.2289 37.5287C44.5863 37.5133 45.7702 37.8392 46.7806 38.5064C47.8124 39.1521 48.4916 40.0351 48.8182 41.1553L48.4683 41.1593L48.8564 37.7831L52.6741 37.7398C52.603 38.398 52.5318 39.0668 52.4605 39.7462C52.4104 40.4254 52.3816 41.0938 52.3742 41.7512L52.2376 53.8088L48.2926 53.8534L48.2983 50.5452L48.6801 50.5408C48.3282 51.6476 47.629 52.5356 46.5822 53.2048C45.5355 53.8741 44.3547 54.2162 43.0397 54.2311ZM44.1878 51.1643C45.4392 51.1501 46.4515 50.7039 47.2249 49.8257C47.9985 48.9262 48.3955 47.5857 48.4156 45.8041C48.4358 44.0226 48.0691 42.7013 47.3154 41.8404C46.5617 40.9794 45.5592 40.5561 44.3078 40.5702C43.0565 40.5844 42.0441 41.0306 41.2707 41.9088C40.4973 42.7871 40.1005 44.117 40.0804 45.8986C40.0602 47.6802 40.4162 49.0121 41.1484 49.8945C41.9021 50.7555 42.9153 51.1787 44.1878 51.1643ZM61.1211 53.7081L54.3677 37.7206L58.599 37.6727L63.4832 50.1823L62.497 50.1934L67.7932 37.5685L71.7699 37.5235L64.6207 53.6685L61.1211 53.7081ZM81.1661 53.7991C78.4725 53.8297 76.3706 53.1112 74.8603 51.6439C73.3501 50.1765 72.6096 48.1491 72.6389 45.5615C72.6579 43.886 73.0032 42.4188 73.6749 41.16C74.3465 39.9012 75.2696 38.9153 76.444 38.2022C77.6397 37.4888 79.0223 37.1232 80.5917 37.1054C82.14 37.0879 83.4301 37.402 84.4619 38.0477C85.4937 38.6934 86.268 39.6071 86.7848 40.7888C87.3228 41.9703 87.5827 43.3564 87.5647 44.9471L87.5528 45.997L75.8453 46.1296L75.8691 44.0299L84.7452 43.9293L84.1993 44.3808C84.2161 42.8962 83.9108 41.7651 83.2834 40.9876C82.6772 40.2098 81.7803 39.8276 80.5926 39.8411C79.2776 39.856 78.2543 40.3341 77.5226 41.2755C76.8121 42.2166 76.4474 43.525 76.4284 45.2005L76.4237 45.6141C76.404 47.3533 76.8134 48.6528 77.6519 49.5128C78.5119 50.3513 79.7266 50.7617 81.2961 50.7439C82.2081 50.7336 83.0578 50.6073 83.8452 50.3651C84.654 50.1015 85.4221 49.6899 86.1495 49.1302L87.2963 51.7893C86.5258 52.413 85.6084 52.9005 84.5441 53.2519C83.4798 53.6033 82.3538 53.7857 81.1661 53.7991ZM96.4357 53.3081L96.6516 34.2515L89.2389 34.3354L89.2771 30.9632L108.206 30.7487L108.168 34.121L100.756 34.205L100.54 53.2616L96.4357 53.3081ZM114.248 53.4244C112.849 53.4402 111.622 53.1254 110.569 52.4799C109.516 51.8133 108.7 50.8576 108.12 49.613C107.541 48.3684 107.261 46.8765 107.28 45.1373C107.3 43.3981 107.614 41.9101 108.222 40.6732C108.83 39.4152 109.668 38.4514 110.736 37.7819C111.804 37.0912 113.038 36.7379 114.438 36.722C115.795 36.7066 116.979 37.0325 117.989 37.6997C119.021 38.3454 119.7 39.2284 120.027 40.3486L119.677 40.3526L120.065 36.9764L123.883 36.9331C123.812 37.5913 123.741 38.2601 123.669 38.9396C123.619 39.6187 123.59 40.2871 123.583 40.9446L123.446 53.0021L119.501 53.0468L119.507 49.7385L119.889 49.7341C119.537 50.8409 118.838 51.7289 117.791 52.3981C116.744 53.0674 115.563 53.4095 114.248 53.4244ZM115.396 50.3576C116.648 50.3434 117.66 49.8972 118.434 49.019C119.207 48.1196 119.604 46.779 119.624 44.9975C119.645 43.2159 119.278 41.8946 118.524 41.0337C117.77 40.1727 116.768 39.7494 115.517 39.7635C114.265 39.7777 113.253 40.2239 112.479 41.1022C111.706 41.9804 111.309 43.3103 111.289 45.0919C111.269 46.8735 111.625 48.2054 112.357 49.0878C113.111 49.9488 114.124 50.372 115.396 50.3576ZM135.14 59.995C133.656 60.0118 132.311 59.868 131.105 59.5636C129.921 59.2589 128.866 58.7831 127.941 58.1362L128.832 55.2632C129.443 55.6592 130.075 55.9807 130.73 56.2278C131.384 56.4749 132.061 56.658 132.759 56.7774C133.458 56.8967 134.168 56.9523 134.889 56.9441C136.373 56.9273 137.48 56.5436 138.21 55.7931C138.96 55.0636 139.343 54.0201 139.359 52.6628L139.402 48.8133L139.721 48.8097C139.369 49.9164 138.669 50.8044 137.623 51.4736C136.597 52.1427 135.416 52.4847 134.08 52.4999C132.638 52.5162 131.38 52.2124 130.305 51.5883C129.252 50.9429 128.436 50.019 127.855 48.8168C127.275 47.6146 126.994 46.197 127.013 44.5638C127.031 42.9307 127.344 41.5169 127.952 40.3225C128.559 39.1068 129.397 38.1749 130.464 37.5266C131.554 36.8568 132.819 36.5138 134.261 36.4974C135.619 36.4821 136.792 36.7975 137.782 37.4437C138.792 38.0684 139.461 38.9303 139.788 40.0293L139.504 39.8417L139.857 36.7521L143.707 36.7085C143.614 37.367 143.543 38.0358 143.493 38.715C143.443 39.3942 143.414 40.0625 143.407 40.72L143.277 52.1412C143.249 54.6651 142.538 56.5924 141.144 57.923C139.772 59.2745 137.77 59.9652 135.14 59.995ZM135.196 49.4335C136.469 49.4191 137.481 48.9835 138.233 48.1267C139.007 47.2485 139.402 46.014 139.42 44.4233C139.438 42.8326 139.07 41.6174 138.316 40.7777C137.584 39.9377 136.581 39.5249 135.309 39.5393C134.015 39.554 132.981 39.9898 132.208 40.8468C131.435 41.7039 131.039 42.9277 131.021 44.5184C131.003 46.1091 131.371 47.3349 132.125 48.1959C132.879 49.0356 133.903 49.4481 135.196 49.4335Z" fill="#1814F3"/>
<path d="M152.48 47.6685C151.233 47.6826 150.249 48.0835 149.527 48.8711C148.794 49.6588 148.427 50.6317 148.414 51.7788C148.401 52.9369 148.746 53.8906 149.461 54.662C150.165 55.4334 151.141 55.8121 152.388 55.798C153.635 55.7838 154.62 55.383 155.353 54.5952C156.074 53.8076 156.452 52.8457 156.466 51.6876C156.479 50.5405 156.122 49.5758 155.418 48.8044C154.703 48.033 153.728 47.6543 152.48 47.6685ZM149.439 51.7672C149.449 50.854 149.736 50.1047 150.277 49.4973C150.818 48.901 151.546 48.5921 152.47 48.5817C153.394 48.5712 154.126 48.8635 154.654 49.4477C155.181 50.043 155.44 50.7861 155.43 51.6993C155.42 52.6125 155.144 53.3728 154.602 53.969C154.061 54.5653 153.323 54.8632 152.399 54.8737C151.463 54.8843 150.743 54.6029 150.215 54.0187C149.687 53.4346 149.428 52.6803 149.439 51.7672ZM154.384 53.5595L154.382 53.76L153.369 53.7714L152.315 52.4249L151.792 52.4309L151.776 53.7895L150.841 53.8001L150.888 49.6685L152.825 49.6466C153.159 49.6428 153.459 49.7285 153.713 49.8815C153.957 50.0346 154.133 50.233 154.219 50.4659C154.305 50.7099 154.336 50.9545 154.322 51.1996C154.297 51.4449 154.205 51.6686 154.025 51.8711C153.845 52.0736 153.598 52.1988 153.308 52.2578L154.384 53.5595ZM151.813 50.5043L151.801 51.6291L152.792 51.6178C153.037 51.615 153.205 51.5241 153.307 51.3336C153.41 51.1432 153.412 50.9538 153.325 50.7655C153.227 50.5885 153.061 50.4902 152.816 50.4929L151.813 50.5043Z" fill="#1814F3"/>
</svg>
