<svg width="214" height="269" viewBox="0 0 214 269" fill="none" xmlns="http://www.w3.org/2000/svg">
<g clip-path="url(#clip0_42_5277)">
<path d="M198.794 62.6796C197.949 62.6796 197.138 62.3438 196.54 61.746C195.942 61.1482 195.606 60.3374 195.606 59.492V51.5973C195.606 50.7519 195.942 49.9411 196.54 49.3433C197.138 48.7455 197.949 48.4097 198.794 48.4097C199.639 48.4097 200.45 48.7455 201.048 49.3433C201.646 49.9411 201.982 50.7519 201.982 51.5973V59.492C201.982 60.3374 201.646 61.1482 201.048 61.746C200.45 62.3438 199.639 62.6796 198.794 62.6796Z" fill="#D9D9D9"/>
<path d="M198.794 48.335C198.345 48.3344 197.901 48.4287 197.491 48.6119C197.08 48.795 196.714 49.0627 196.414 49.3975C196.837 49.1885 197.302 49.0795 197.774 49.0788C198.615 49.0924 199.418 49.4327 200.013 50.0275C200.608 50.6224 200.948 51.4252 200.962 52.2664V60.1717C200.951 60.9609 200.648 61.7181 200.112 62.2968C200.672 62.0424 201.147 61.631 201.479 61.1125C201.811 60.5939 201.986 59.9904 201.982 59.3748V51.4801C201.971 50.6421 201.63 49.8422 201.033 49.2535C200.437 48.6649 199.632 48.3349 198.794 48.335Z" fill="#C5C5C5"/>
<path d="M148.164 62.6796C149.01 62.6796 149.82 62.3438 150.418 61.746C151.016 61.1482 151.352 60.3374 151.352 59.492V51.5973C151.352 50.7519 151.016 49.9411 150.418 49.3433C149.82 48.7455 149.01 48.4097 148.164 48.4097C147.319 48.4097 146.508 48.7455 145.91 49.3433C145.312 49.9411 144.977 50.7519 144.977 51.5973V59.492C144.977 60.3374 145.312 61.1482 145.91 61.746C146.508 62.3438 147.319 62.6796 148.164 62.6796Z" fill="#D9D9D9"/>
<path d="M148.164 48.335C148.613 48.3344 149.058 48.4287 149.468 48.6119C149.878 48.795 150.245 49.0627 150.544 49.3975C150.121 49.1885 149.656 49.0795 149.184 49.0788C148.343 49.0924 147.54 49.4327 146.945 50.0275C146.35 50.6224 146.01 51.4252 145.997 52.2664V60.1717C146.007 60.9609 146.31 61.7181 146.847 62.2968C146.304 62.0508 145.841 61.6575 145.51 61.1617C145.18 60.6659 144.995 60.0873 144.976 59.4917V51.597C144.967 51.1722 145.042 50.7496 145.197 50.3543C145.353 49.9589 145.586 49.5987 145.883 49.2947C146.18 48.9908 146.535 48.7493 146.927 48.5845C147.318 48.4197 147.739 48.3348 148.164 48.335Z" fill="#C5C5C5"/>
<path d="M198.794 84.9077C197.949 84.9077 197.138 84.5718 196.54 83.974C195.942 83.3762 195.606 82.5655 195.606 81.72V73.8253C195.62 72.9842 195.96 72.1813 196.555 71.5865C197.15 70.9916 197.953 70.6514 198.794 70.6377C199.639 70.6377 200.45 70.9735 201.048 71.5713C201.646 72.1691 201.982 72.9799 201.982 73.8253V81.72C201.982 82.5655 201.646 83.3762 201.048 83.974C200.45 84.5718 199.639 84.9077 198.794 84.9077Z" fill="#D9D9D9"/>
<path d="M198.794 70.5527C198.345 70.5521 197.901 70.6465 197.491 70.8296C197.08 71.0127 196.714 71.2805 196.414 71.6153C196.837 71.4063 197.302 71.2972 197.774 71.2965C198.615 71.3102 199.418 71.6504 200.013 72.2453C200.608 72.8401 200.948 73.643 200.962 74.4841V82.3895C200.951 83.1786 200.648 83.9358 200.112 84.5145C200.672 84.2601 201.147 83.8488 201.479 83.3302C201.811 82.8117 201.986 82.2082 201.982 81.5925V73.6979C201.971 72.8598 201.63 72.0599 201.033 71.4713C200.437 70.8827 199.632 70.5527 198.794 70.5527Z" fill="#C5C5C5"/>
<path d="M198.794 55.518H148.164V42.2149L151.639 7.6504C151.85 5.54637 152.838 3.59668 154.41 2.18207C155.982 0.767456 158.024 -0.0104902 160.139 0.000106855L186.873 0.000106855C188.987 -0.0104902 191.03 0.767456 192.602 2.18207C194.173 3.59668 195.161 5.54637 195.373 7.6504L198.847 42.2149L198.794 55.518Z" fill="#2D60FF"/>
<path d="M191.356 29.2305H155.602C154.269 29.2296 152.959 29.5872 151.812 30.2657C150.664 30.9443 149.72 31.9189 149.078 33.0875L148.164 42.2148V55.5178H198.762V42.2148L197.849 33.0875C197.209 31.9236 196.27 30.9521 195.128 30.2738C193.987 29.5956 192.684 29.2353 191.356 29.2305Z" fill="#C5C5C5"/>
<path d="M198.794 115.807H148.164V142.976L151.639 177.53C151.85 179.634 152.838 181.584 154.41 182.998C155.982 184.413 158.024 185.191 160.139 185.18H186.873C188.987 185.191 191.03 184.413 192.602 182.998C194.173 181.584 195.161 179.634 195.373 177.53L198.847 142.976L198.794 115.807Z" fill="#2D60FF"/>
<path d="M197.253 124.18V141.446L193.779 176.011C193.567 178.115 192.579 180.064 191.007 181.479C189.436 182.894 187.393 183.671 185.278 183.661H158.587C156.733 183.663 154.929 183.055 153.455 181.929C154.255 182.929 155.271 183.734 156.427 184.286C157.582 184.838 158.847 185.122 160.128 185.117H186.861C188.976 185.127 191.019 184.349 192.59 182.935C194.162 181.52 195.15 179.57 195.362 177.466L198.836 142.912V124.18H197.253Z" fill="#C5C5C5"/>
<path d="M197.253 61.0007V43.7238L193.779 9.16986C193.567 7.06583 192.579 5.11615 191.007 3.70153C189.436 2.28692 187.393 1.50894 185.278 1.51954L158.587 1.51954C156.735 1.51874 154.932 2.12317 153.455 3.24085C154.25 2.23149 155.264 1.41549 156.419 0.854182C157.575 0.29287 158.843 0.000862464 160.128 0.000106855L186.861 0.000106855C188.976 -0.0104902 191.019 0.767456 192.59 2.18207C194.162 3.59668 195.15 5.54637 195.362 7.6504L198.836 42.2149V61.0007H197.253Z" fill="#C5C5C5"/>
<path d="M148.164 132.51C149.994 137.761 153.413 142.313 157.946 145.534C162.479 148.756 167.902 150.487 173.463 150.488C179.024 150.487 184.447 148.756 188.98 145.534C193.514 142.313 196.932 137.761 198.762 132.51V120.822H148.164V132.51Z" fill="#C5C5C5"/>
<path d="M155.591 32.0146L191.367 32.0146C193.34 32.0146 195.231 32.7983 196.626 34.1931C198.021 35.588 198.805 37.4798 198.805 39.4525V122.331C198.813 125.659 198.165 128.955 196.897 132.032C195.63 135.109 193.768 137.905 191.417 140.261C189.067 142.617 186.276 144.487 183.202 145.762C180.128 147.037 176.833 147.694 173.506 147.694C170.174 147.701 166.875 147.05 163.795 145.778C160.716 144.507 157.919 142.639 155.563 140.284C153.208 137.928 151.341 135.131 150.069 132.052C148.797 128.973 148.146 125.673 148.153 122.341V39.4631C148.153 37.4905 148.937 35.5986 150.332 34.2038C151.727 32.8089 153.619 32.0253 155.591 32.0253V32.0146Z" fill="#07090C"/>
<path d="M198.794 39.4525C198.794 37.4798 198.011 35.588 196.616 34.1931C195.221 32.7983 193.329 32.0146 191.356 32.0146H186.501L148.164 80.5941V122.341C148.164 127.234 149.582 132.022 152.247 136.125C154.911 140.229 158.708 143.472 163.178 145.462L198.762 100.336L198.794 39.4525Z" fill="#1F2021"/>
<path d="M173.495 139.183C172.234 139.183 171.002 138.809 169.953 138.108C168.905 137.408 168.088 136.412 167.605 135.247C167.123 134.082 166.997 132.8 167.243 131.564C167.489 130.327 168.096 129.191 168.987 128.299C169.879 127.408 171.015 126.801 172.252 126.555C173.488 126.309 174.77 126.435 175.935 126.917C177.1 127.4 178.096 128.217 178.796 129.265C179.497 130.314 179.871 131.546 179.871 132.807C179.871 134.498 179.199 136.12 178.003 137.315C176.808 138.511 175.186 139.183 173.495 139.183ZM173.495 127.973C172.543 127.973 171.613 128.255 170.821 128.784C170.03 129.313 169.413 130.065 169.048 130.944C168.684 131.824 168.589 132.791 168.775 133.725C168.96 134.659 169.419 135.517 170.092 136.19C170.765 136.863 171.623 137.321 172.556 137.507C173.49 137.693 174.458 137.597 175.337 137.233C176.217 136.869 176.969 136.252 177.498 135.46C178.026 134.669 178.309 133.738 178.309 132.786C178.313 132.151 178.192 131.521 177.952 130.933C177.712 130.345 177.358 129.809 176.911 129.358C176.464 128.907 175.932 128.549 175.346 128.304C174.759 128.059 174.131 127.932 173.495 127.93V127.973Z" fill="#9C9B9B"/>
<path d="M167.088 132.744C167.088 133.678 167.294 134.602 167.69 135.448C168.087 136.295 168.665 137.044 169.383 137.642L170.382 136.367C169.852 135.923 169.426 135.368 169.133 134.743C168.839 134.117 168.685 133.435 168.682 132.744C168.681 131.857 168.925 130.987 169.388 130.231C169.85 129.475 170.513 128.862 171.303 128.459C172.093 128.056 172.979 127.88 173.863 127.95C174.747 128.02 175.594 128.333 176.311 128.855L177.299 127.601C176.202 126.777 174.867 126.333 173.495 126.337C172.653 126.332 171.817 126.495 171.038 126.816C170.259 127.136 169.551 127.608 168.955 128.204C168.359 128.8 167.888 129.507 167.567 130.287C167.247 131.066 167.084 131.901 167.088 132.744Z" fill="#B1B1B0"/>
<path d="M169.204 81.7986L166.74 79.303L165.411 80.6152L167.875 83.1109L169.204 81.7986Z" fill="#2D60FF"/>
<path d="M177.225 83.6601C176.708 84.1919 176.02 84.4849 175.289 84.4849C174.557 84.4849 173.87 84.1919 173.352 83.6602C173.352 83.6601 170.797 81.031 170.797 81.031C170.455 80.6794 169.899 80.6794 169.557 81.031C169.391 81.2013 169.3 81.4279 169.3 81.6688C169.3 81.9097 169.391 82.1363 169.557 82.3066C169.728 82.4825 169.952 82.5704 170.177 82.5704C170.401 82.5704 170.626 82.4824 170.797 82.3066L170.978 82.1201L172.294 83.4739L172.113 83.6601C171.596 84.1919 170.908 84.4849 170.177 84.4849C169.445 84.4849 168.758 84.1919 168.24 83.6601C167.723 83.1281 167.438 82.421 167.438 81.6688C167.438 80.9166 167.723 80.2094 168.24 79.6775C168.758 79.1457 169.445 78.8527 170.177 78.8527C170.908 78.8527 171.596 79.1456 172.113 79.6774L174.048 81.6686L174.667 82.3048L174.668 82.3066C175.01 82.6582 175.567 82.6582 175.909 82.3066C176.074 82.1363 176.166 81.9097 176.166 81.6688C176.166 81.4279 176.074 81.2013 175.909 81.031C175.567 80.6794 175.01 80.6794 174.668 81.031L174.487 81.2175L173.171 79.8637L173.352 79.6775C173.869 79.1457 174.557 78.8527 175.288 78.8527C176.02 78.8527 176.708 79.1457 177.225 79.6775C177.742 80.2094 178.027 80.9166 178.027 81.6688C178.027 82.421 177.742 83.1281 177.225 83.6601Z" fill="#2D60FF"/>
<path d="M155.505 93.5952L153.646 88.3302H154.646L156.08 92.6468H155.782L157.327 88.3302H158.044L159.478 92.6468H159.202L160.703 88.3302H161.644L159.77 93.5952H158.97L157.581 89.5475H157.746L156.304 93.5952H155.505ZM163.351 93.6699C163.022 93.6699 162.733 93.5927 162.484 93.4384C162.235 93.2791 162.041 93.0525 161.902 92.7588C161.762 92.465 161.693 92.114 161.693 91.7058C161.693 91.2975 161.762 90.949 161.902 90.6602C162.041 90.3665 162.235 90.1424 162.484 89.9881C162.733 89.8288 163.022 89.7491 163.351 89.7491C163.669 89.7491 163.948 89.8288 164.187 89.9881C164.431 90.1424 164.593 90.3515 164.673 90.6154H164.59L164.673 89.8238H165.569C165.554 89.9781 165.539 90.135 165.524 90.2943C165.514 90.4536 165.509 90.6104 165.509 90.7648V93.5952H164.583L164.576 92.8185H164.665C164.585 93.0774 164.424 93.284 164.18 93.4384C163.936 93.5927 163.659 93.6699 163.351 93.6699ZM163.612 92.953C163.906 92.953 164.142 92.8509 164.322 92.6468C164.501 92.4377 164.59 92.124 164.59 91.7058C164.59 91.2876 164.501 90.9764 164.322 90.7723C164.142 90.5681 163.906 90.4661 163.612 90.4661C163.318 90.4661 163.082 90.5681 162.903 90.7723C162.723 90.9764 162.634 91.2876 162.634 91.7058C162.634 92.124 162.721 92.4377 162.895 92.6468C163.074 92.8509 163.313 92.953 163.612 92.953ZM167.594 93.5952L165.966 89.8238H166.96L168.14 92.7737H167.908L169.118 89.8238H170.051L168.416 93.5952H167.594ZM172.301 93.6699C171.668 93.6699 171.173 93.4956 170.814 93.1471C170.456 92.7986 170.277 92.3207 170.277 91.7132C170.277 91.3199 170.354 90.9764 170.508 90.6826C170.663 90.3889 170.877 90.1599 171.151 89.9956C171.429 89.8313 171.753 89.7491 172.121 89.7491C172.485 89.7491 172.789 89.8263 173.033 89.9806C173.276 90.135 173.461 90.3515 173.585 90.6304C173.715 90.9092 173.779 91.2353 173.779 91.6087V91.8551H171.031V91.3622H173.115L172.988 91.4668C172.988 91.1183 172.913 90.8519 172.764 90.6677C172.619 90.4835 172.408 90.3914 172.129 90.3914C171.82 90.3914 171.581 90.5009 171.412 90.72C171.248 90.939 171.166 91.2452 171.166 91.6386V91.7356C171.166 92.1439 171.265 92.4501 171.464 92.6542C171.668 92.8534 171.955 92.953 172.323 92.953C172.537 92.953 172.736 92.9256 172.921 92.8708C173.11 92.8111 173.289 92.7165 173.458 92.587L173.735 93.2143C173.555 93.3587 173.341 93.4707 173.092 93.5504C172.843 93.6301 172.579 93.6699 172.301 93.6699ZM175.884 93.5952V89.1218H174.144V88.3302H178.588V89.1218H176.848V93.5952H175.884ZM180.067 93.6699C179.738 93.6699 179.449 93.5927 179.2 93.4384C178.951 93.2791 178.757 93.0525 178.618 92.7588C178.478 92.465 178.409 92.114 178.409 91.7058C178.409 91.2975 178.478 90.949 178.618 90.6602C178.757 90.3665 178.951 90.1424 179.2 89.9881C179.449 89.8288 179.738 89.7491 180.067 89.7491C180.385 89.7491 180.664 89.8288 180.903 89.9881C181.147 90.1424 181.309 90.3515 181.388 90.6154H181.306L181.388 89.8238H182.285C182.27 89.9781 182.255 90.135 182.24 90.2943C182.23 90.4536 182.225 90.6104 182.225 90.7648V93.5952H181.299L181.291 92.8185H181.381C181.301 93.0774 181.139 93.284 180.896 93.4384C180.652 93.5927 180.375 93.6699 180.067 93.6699ZM180.328 92.953C180.622 92.953 180.858 92.8509 181.037 92.6468C181.217 92.4377 181.306 92.124 181.306 91.7058C181.306 91.2876 181.217 90.9764 181.037 90.7723C180.858 90.5681 180.622 90.4661 180.328 90.4661C180.034 90.4661 179.798 90.5681 179.618 90.7723C179.439 90.9764 179.35 91.2876 179.35 91.7058C179.35 92.124 179.437 92.4377 179.611 92.6468C179.79 92.8509 180.029 92.953 180.328 92.953ZM184.989 95.2681C184.64 95.2681 184.324 95.2307 184.04 95.1561C183.762 95.0814 183.513 94.9669 183.294 94.8125L183.495 94.1404C183.64 94.235 183.789 94.3122 183.943 94.3719C184.098 94.4316 184.257 94.4765 184.421 94.5063C184.586 94.5362 184.752 94.5511 184.922 94.5511C185.27 94.5511 185.529 94.464 185.698 94.2898C185.873 94.1205 185.96 93.8765 185.96 93.5579V92.6542H186.034C185.955 92.9131 185.793 93.1197 185.549 93.2741C185.31 93.4284 185.034 93.5056 184.72 93.5056C184.382 93.5056 184.085 93.4309 183.831 93.2816C183.582 93.1272 183.388 92.9081 183.249 92.6244C183.109 92.3406 183.04 92.007 183.04 91.6236C183.04 91.2403 183.109 90.9092 183.249 90.6304C183.388 90.3466 183.582 90.13 183.831 89.9806C184.085 89.8263 184.382 89.7491 184.72 89.7491C185.039 89.7491 185.315 89.8263 185.549 89.9806C185.788 90.13 185.947 90.3341 186.027 90.593L185.96 90.5482L186.034 89.8238H186.938C186.918 89.9781 186.903 90.135 186.893 90.2943C186.883 90.4536 186.878 90.6104 186.878 90.7648V93.4459C186.878 94.0383 186.717 94.4889 186.393 94.7976C186.074 95.1112 185.606 95.2681 184.989 95.2681ZM184.974 92.7887C185.273 92.7887 185.509 92.6891 185.683 92.4899C185.863 92.2858 185.952 91.997 185.952 91.6236C185.952 91.2502 185.863 90.9639 185.683 90.7648C185.509 90.5656 185.273 90.4661 184.974 90.4661C184.67 90.4661 184.429 90.5656 184.25 90.7648C184.07 90.9639 183.981 91.2502 183.981 91.6236C183.981 91.997 184.07 92.2858 184.25 92.4899C184.429 92.6891 184.67 92.7887 184.974 92.7887Z" fill="white"/>
<path d="M191.247 86.5717C190.72 86.5717 190.307 86.7361 190.006 87.065C189.701 87.3939 189.55 87.8027 189.55 88.2867C189.55 88.7753 189.701 89.1794 190.006 89.5083C190.307 89.8372 190.72 90.0016 191.247 90.0016C191.773 90.0016 192.186 89.8372 192.492 89.5083C192.792 89.1794 192.947 88.7753 192.947 88.2867C192.947 87.8027 192.792 87.3939 192.492 87.065C192.186 86.7361 191.773 86.5717 191.247 86.5717ZM189.983 88.2867C189.983 87.9014 190.1 87.5866 190.326 87.3328C190.551 87.0838 190.857 86.957 191.247 86.957C191.637 86.957 191.947 87.0838 192.172 87.3328C192.398 87.5866 192.51 87.9014 192.51 88.2867C192.51 88.6719 192.398 88.9914 192.172 89.2405C191.947 89.4895 191.637 89.6116 191.247 89.6116C190.852 89.6116 190.546 89.4895 190.321 89.2405C190.095 88.9914 189.983 88.6719 189.983 88.2867ZM192.078 89.0666V89.1512H191.651L191.2 88.578H190.979V89.1512H190.584V87.408H191.402C191.543 87.408 191.669 87.4456 191.777 87.5114C191.881 87.5772 191.956 87.6617 191.994 87.7604C192.031 87.8638 192.045 87.9671 192.041 88.0705C192.031 88.1739 191.994 88.2679 191.918 88.3524C191.843 88.437 191.74 88.4887 191.618 88.5122L192.078 89.0666ZM190.979 87.7651V88.2397H191.397C191.5 88.2397 191.571 88.2021 191.613 88.1222C191.655 88.0423 191.655 87.9624 191.618 87.8826C191.575 87.8074 191.505 87.7651 191.402 87.7651H190.979Z" fill="white"/>
</g>
<g filter="url(#filter0_f_42_5277)">
<circle cx="94.9658" cy="125" r="60" fill="black" fill-opacity="0.25"/>
</g>
<circle cx="94.9658" cy="125" r="60" fill="url(#paint0_linear_42_5277)"/>
<path d="M88.3352 115.867L84.2892 111.768L82.0566 113.973L86.1027 118.072L88.3352 115.867Z" fill="white"/>
<path d="M101.624 118.808C100.755 119.701 99.6068 120.201 98.3918 120.215C97.1768 120.228 96.0401 119.755 95.191 118.881C95.191 118.881 90.9956 114.562 90.9956 114.562C90.4341 113.984 89.5098 113.994 88.9351 114.585C88.6567 114.871 88.5009 115.249 88.4964 115.649C88.4918 116.05 88.6391 116.424 88.9111 116.704C89.1919 116.993 89.5633 117.135 89.9363 117.13C90.3094 117.126 90.6842 116.976 90.9715 116.681L91.2763 116.367L93.4365 118.592L93.1323 118.904C92.2632 119.797 91.1154 120.297 89.9003 120.311C88.6853 120.325 87.5484 119.851 86.6994 118.977C85.8503 118.103 85.3904 116.934 85.4046 115.684C85.4187 114.435 85.9052 113.255 86.7743 112.361C87.6434 111.468 88.7913 110.969 90.0063 110.955C91.2213 110.941 92.358 111.415 93.2071 112.288L96.3845 115.56L97.3995 116.605L97.4024 116.608C97.964 117.186 98.8883 117.175 99.463 116.584C99.7414 116.298 99.8972 115.92 99.9017 115.52C99.9062 115.12 99.759 114.745 99.487 114.466C98.9256 113.888 98.0012 113.898 97.4264 114.489L97.1217 114.802L94.9614 112.578L95.2658 112.265C96.1349 111.372 97.2827 110.873 98.4976 110.859C99.7126 110.845 100.849 111.319 101.699 112.192C102.548 113.066 103.008 114.236 102.994 115.485C102.979 116.735 102.493 117.915 101.624 118.808Z" fill="white"/>
<path d="M65.38 137.092L62.3564 128.282L64.0375 128.263L66.3641 135.487L65.8623 135.493L68.5413 128.212L69.7457 128.199L72.0723 135.423L71.6081 135.428L74.2119 128.148L75.7926 128.13L72.5435 137.01L71.2011 137.026L68.9447 130.252L69.2207 130.249L66.7224 137.076L65.38 137.092ZM78.5579 137.068C78.0059 137.074 77.5223 136.95 77.1071 136.695C76.6919 136.432 76.3701 136.056 76.1415 135.565C75.9129 135.074 75.8025 134.486 75.8102 133.8C75.818 133.114 75.9417 132.527 76.1814 132.039C76.4212 131.543 76.7516 131.163 77.1727 130.899C77.5939 130.627 78.0806 130.488 78.6326 130.481C79.1678 130.475 79.6347 130.604 80.0331 130.867C80.44 131.122 80.7078 131.47 80.8366 131.911L80.6986 131.913L80.8517 130.582L82.3571 130.565C82.3291 130.824 82.301 131.088 82.2729 131.356C82.2532 131.624 82.2418 131.887 82.2389 132.146L82.185 136.901L80.6294 136.919L80.6316 135.614L80.7822 135.613C80.6434 136.049 80.3677 136.399 79.9549 136.663C79.5421 136.927 79.0765 137.062 78.5579 137.068ZM79.0107 135.858C79.5041 135.853 79.9034 135.677 80.2083 135.331C80.5134 134.976 80.6699 134.447 80.6779 133.745C80.6858 133.042 80.5412 132.521 80.244 132.182C79.9468 131.842 79.5515 131.675 79.058 131.681C78.5646 131.686 78.1653 131.862 77.8604 132.209C77.5554 132.555 77.3989 133.079 77.391 133.782C77.383 134.484 77.5234 135.01 77.8121 135.358C78.1093 135.697 78.5089 135.864 79.0107 135.858ZM85.6881 136.862L83.025 130.557L84.6935 130.538L86.6196 135.471L86.2307 135.476L88.3192 130.497L89.8874 130.479L87.0681 136.846L85.6881 136.862ZM93.5926 136.897C92.5304 136.909 91.7016 136.626 91.106 136.048C90.5105 135.469 90.2185 134.669 90.23 133.649C90.2375 132.988 90.3737 132.41 90.6386 131.913C90.9034 131.417 91.2674 131.028 91.7305 130.747C92.202 130.466 92.7472 130.321 93.3661 130.314C93.9767 130.308 94.4854 130.431 94.8923 130.686C95.2992 130.941 95.6045 131.301 95.8083 131.767C96.0204 132.233 96.123 132.779 96.1159 133.407L96.1112 133.821L91.4944 133.873L91.5038 133.045L95.004 133.005L94.7887 133.183C94.7954 132.598 94.675 132.152 94.4276 131.845C94.1885 131.539 93.8348 131.388 93.3665 131.393C92.8479 131.399 92.4444 131.588 92.1559 131.959C91.8757 132.33 91.7319 132.846 91.7244 133.507L91.7225 133.67C91.7148 134.356 91.8762 134.868 92.2069 135.207C92.546 135.538 93.025 135.7 93.6439 135.693C94.0035 135.689 94.3386 135.639 94.6491 135.543C94.9681 135.439 95.271 135.277 95.5578 135.056L96.01 136.105C95.7062 136.351 95.3444 136.543 94.9247 136.682C94.505 136.82 94.061 136.892 93.5926 136.897ZM99.614 136.704L99.6991 129.189L96.776 129.222L96.7911 127.892L104.256 127.808L104.241 129.138L101.318 129.171L101.232 136.685L99.614 136.704ZM106.638 136.75C106.086 136.756 105.603 136.632 105.187 136.377C104.772 136.114 104.45 135.737 104.222 135.247C103.993 134.756 103.883 134.168 103.891 133.482C103.898 132.796 104.022 132.209 104.262 131.721C104.501 131.225 104.832 130.845 105.253 130.581C105.674 130.309 106.161 130.169 106.713 130.163C107.248 130.157 107.715 130.286 108.113 130.549C108.52 130.803 108.788 131.152 108.917 131.593L108.779 131.595L108.932 130.264L110.437 130.246C110.409 130.506 110.381 130.77 110.353 131.038C110.333 131.306 110.322 131.569 110.319 131.828L110.265 136.583L108.71 136.601L108.712 135.296L108.862 135.294C108.724 135.731 108.448 136.081 108.035 136.345C107.622 136.609 107.157 136.744 106.638 136.75ZM107.091 135.54C107.584 135.535 107.984 135.359 108.289 135.012C108.594 134.658 108.75 134.129 108.758 133.427C108.766 132.724 108.622 132.203 108.324 131.863C108.027 131.524 107.632 131.357 107.138 131.363C106.645 131.368 106.246 131.544 105.941 131.89C105.636 132.237 105.479 132.761 105.471 133.464C105.463 134.166 105.604 134.692 105.892 135.04C106.19 135.379 106.589 135.546 107.091 135.54ZM114.877 139.341C114.291 139.347 113.761 139.291 113.286 139.171C112.819 139.05 112.403 138.863 112.038 138.608L112.389 137.475C112.63 137.631 112.879 137.758 113.137 137.855C113.396 137.953 113.662 138.025 113.938 138.072C114.213 138.119 114.493 138.141 114.778 138.138C115.363 138.131 115.8 137.98 116.087 137.684C116.383 137.396 116.534 136.985 116.54 136.449L116.557 134.931L116.683 134.93C116.544 135.366 116.268 135.716 115.856 135.98C115.451 136.244 114.986 136.379 114.459 136.385C113.89 136.391 113.394 136.272 112.97 136.026C112.555 135.771 112.233 135.407 112.004 134.933C111.775 134.459 111.664 133.9 111.672 133.256C111.679 132.612 111.802 132.054 112.042 131.583C112.282 131.104 112.612 130.736 113.033 130.481C113.462 130.216 113.961 130.081 114.53 130.075C115.065 130.069 115.528 130.193 115.918 130.448C116.317 130.694 116.581 131.034 116.71 131.467L116.598 131.393L116.737 130.175L118.255 130.158C118.218 130.418 118.19 130.681 118.171 130.949C118.151 131.217 118.139 131.481 118.136 131.74L118.085 136.244C118.074 137.239 117.794 137.999 117.244 138.524C116.703 139.057 115.914 139.329 114.877 139.341ZM114.899 135.176C115.401 135.17 115.8 134.998 116.096 134.661C116.401 134.314 116.557 133.827 116.565 133.2C116.572 132.573 116.427 132.094 116.129 131.763C115.84 131.431 115.445 131.269 114.943 131.274C114.433 131.28 114.025 131.452 113.72 131.79C113.416 132.128 113.26 132.61 113.252 133.238C113.245 133.865 113.39 134.348 113.688 134.688C113.985 135.019 114.389 135.182 114.899 135.176Z" fill="white"/>
<path d="M124.894 123.673C124.01 123.683 123.312 123.967 122.801 124.525C122.281 125.084 122.021 125.773 122.012 126.586C122.002 127.407 122.247 128.083 122.754 128.63C123.253 129.176 123.944 129.445 124.828 129.435C125.712 129.425 126.41 129.141 126.929 128.582C127.441 128.024 127.709 127.342 127.718 126.521C127.728 125.708 127.475 125.025 126.976 124.478C126.469 123.931 125.778 123.663 124.894 123.673ZM122.738 126.578C122.745 125.931 122.948 125.4 123.332 124.969C123.716 124.546 124.231 124.327 124.886 124.32C125.541 124.313 126.06 124.52 126.434 124.934C126.808 125.356 126.992 125.882 126.984 126.53C126.977 127.177 126.781 127.716 126.398 128.138C126.014 128.561 125.491 128.772 124.836 128.78C124.173 128.787 123.662 128.588 123.288 128.174C122.914 127.76 122.731 127.225 122.738 126.578ZM126.243 127.848L126.242 127.99L125.523 127.998L124.777 127.044L124.406 127.048L124.395 128.011L123.732 128.019L123.765 125.09L125.138 125.075C125.375 125.072 125.587 125.133 125.768 125.241C125.94 125.35 126.065 125.491 126.126 125.656C126.187 125.828 126.209 126.002 126.199 126.176C126.181 126.349 126.116 126.508 125.988 126.651C125.861 126.795 125.686 126.884 125.48 126.926L126.243 127.848ZM124.421 125.683L124.412 126.48L125.115 126.472C125.288 126.47 125.407 126.406 125.48 126.271C125.552 126.136 125.554 126.001 125.492 125.868C125.423 125.742 125.305 125.673 125.131 125.675L124.421 125.683Z" fill="white"/>
<g filter="url(#filter1_f_42_5277)">
<rect x="67.5" y="207.169" width="102" height="17" rx="8.5" fill="black"/>
</g>
<defs>
<filter id="filter0_f_42_5277" x="0.96582" y="31" width="188" height="188" filterUnits="userSpaceOnUse" color-interpolation-filters="sRGB">
<feFlood flood-opacity="0" result="BackgroundImageFix"/>
<feBlend mode="normal" in="SourceGraphic" in2="BackgroundImageFix" result="shape"/>
<feGaussianBlur stdDeviation="17" result="effect1_foregroundBlur_42_5277"/>
</filter>
<filter id="filter1_f_42_5277" x="23.5" y="163.169" width="190" height="105" filterUnits="userSpaceOnUse" color-interpolation-filters="sRGB">
<feFlood flood-opacity="0" result="BackgroundImageFix"/>
<feBlend mode="normal" in="SourceGraphic" in2="BackgroundImageFix" result="shape"/>
<feGaussianBlur stdDeviation="22" result="effect1_foregroundBlur_42_5277"/>
</filter>
<linearGradient id="paint0_linear_42_5277" x1="94.9658" y1="65" x2="94.9658" y2="289.16" gradientUnits="userSpaceOnUse">
<stop stop-color="#2D60FF"/>
<stop offset="1" stop-color="#2D60FF"/>
</linearGradient>
<clipPath id="clip0_42_5277">
<rect width="57.0692" height="185.169" fill="white" transform="translate(144.966)"/>
</clipPath>
</defs>
</svg>
