<svg width="18" height="14" viewBox="0 0 18 14" fill="none" xmlns="http://www.w3.org/2000/svg">
<path d="M10.5498 14H12.5498L7.5498 0H5.5498L0.549805 14H2.5498L3.9498 10H9.0498L10.5498 14ZM4.64981 8L6.5498 2.8L8.4498 8H4.64981ZM17.4498 12.5C17.4498 12.7967 17.3618 13.0867 17.197 13.3334C17.0322 13.58 16.7979 13.7723 16.5238 13.8858C16.2497 13.9993 15.9481 14.0291 15.6572 13.9712C15.3662 13.9133 15.0989 13.7704 14.8891 13.5607C14.6794 13.3509 14.5365 13.0836 14.4786 12.7926C14.4207 12.5017 14.4505 12.2001 14.564 11.926C14.6775 11.6519 14.8698 11.4176 15.1164 11.2528C15.3631 11.088 15.6531 11 15.9498 11C16.3476 11 16.7292 11.158 17.0105 11.4393C17.2918 11.7206 17.4498 12.1022 17.4498 12.5ZM17.4498 8.5C17.4498 8.79667 17.3618 9.08668 17.197 9.33335C17.0322 9.58003 16.7979 9.77229 16.5238 9.88582C16.2497 9.99935 15.9481 10.0291 15.6572 9.97118C15.3662 9.9133 15.0989 9.77044 14.8891 9.56066C14.6794 9.35088 14.5365 9.08361 14.4786 8.79264C14.4207 8.50166 14.4505 8.20006 14.564 7.92597C14.6775 7.65189 14.8698 7.41762 15.1164 7.2528C15.3631 7.08797 15.6531 7 15.9498 7C16.3476 7 16.7292 7.15804 17.0105 7.43934C17.2918 7.72064 17.4498 8.10218 17.4498 8.5ZM17.4498 4.5C17.4498 4.79667 17.3618 5.08668 17.197 5.33335C17.0322 5.58003 16.7979 5.77229 16.5238 5.88582C16.2497 5.99935 15.9481 6.02906 15.6572 5.97118C15.3662 5.9133 15.0989 5.77044 14.8891 5.56066C14.6794 5.35088 14.5365 5.08361 14.4786 4.79264C14.4207 4.50166 14.4505 4.20006 14.564 3.92597C14.6775 3.65189 14.8698 3.41762 15.1164 3.2528C15.3631 3.08797 15.6531 3 15.9498 3C16.3476 3 16.7292 3.15804 17.0105 3.43934C17.2918 3.72064 17.4498 4.10218 17.4498 4.5Z" fill="black"/>
</svg>
