<svg width="274" height="155" viewBox="0 0 274 155" fill="none" xmlns="http://www.w3.org/2000/svg">
<g clip-path="url(#clip0_46_2655)">
<path d="M266.912 0L7.08755 0C3.1732 0 0 3.18182 0 7.1068L0 147.893C0 151.818 3.1732 155 7.08755 155L266.912 155C270.827 155 274 151.818 274 147.893V7.1068C274 3.18182 270.827 0 266.912 0Z" fill="#1814F3"/>
<path d="M129.194 67.6948L125.055 63.5023L122.822 65.7068L126.962 69.8994L129.194 67.6948Z" fill="white"/>
<path d="M142.669 70.8217C141.8 71.7152 140.645 72.2073 139.416 72.2073C138.188 72.2073 137.033 71.7152 136.164 70.8218C136.164 70.8217 131.871 66.4049 131.871 66.4049C131.296 65.8141 130.361 65.8141 129.787 66.4049C129.509 66.691 129.355 67.0716 129.355 67.4764C129.355 67.8811 129.509 68.2617 129.787 68.5478C130.074 68.8433 130.452 68.9909 130.829 68.9909C131.206 68.9909 131.583 68.8431 131.871 68.5478L132.175 68.2345L134.386 70.5089L134.082 70.8217C133.213 71.7152 132.058 72.2073 130.829 72.2073C129.6 72.2073 128.445 71.7152 127.576 70.8217C126.707 69.928 126.229 68.74 126.229 67.4764C126.229 66.2127 126.707 65.0246 127.576 64.1311C128.445 63.2376 129.6 62.7455 130.829 62.7455C132.058 62.7455 133.213 63.2374 134.082 64.1309L137.333 67.4761L138.371 68.5448L138.374 68.5478C138.949 69.1386 139.884 69.1386 140.458 68.5478C140.737 68.2617 140.89 67.8811 140.89 67.4764C140.89 67.0716 140.737 66.691 140.458 66.4049C139.884 65.8141 138.949 65.8141 138.374 66.4049L138.07 66.7182L135.859 64.4438L136.164 64.1311C137.032 63.2376 138.188 62.7455 139.416 62.7455C140.645 62.7455 141.8 63.2376 142.669 64.1311C143.538 65.0246 144.017 66.2127 144.017 67.4764C144.017 68.74 143.538 69.928 142.669 70.8217Z" fill="white"/>
<path d="M106.181 88.7529L103.057 79.9078H104.738L107.147 87.1596H106.645L109.242 79.9078H110.447L112.855 87.1596H112.391L114.913 79.9078H116.494L113.345 88.7529H112.002L109.669 81.9528H109.945L107.523 88.7529H106.181ZM119.361 88.8784C118.809 88.8784 118.324 88.7487 117.906 88.4895C117.487 88.2218 117.161 87.8412 116.927 87.3477C116.693 86.8543 116.576 86.2646 116.576 85.5787C116.576 84.8929 116.693 84.3074 116.927 83.8222C117.161 83.3288 117.487 82.9524 117.906 82.6931C118.324 82.4254 118.809 82.2916 119.361 82.2916C119.896 82.2916 120.365 82.4254 120.766 82.6931C121.176 82.9524 121.448 83.3037 121.582 83.747H121.444L121.582 82.4171H123.087C123.062 82.6763 123.037 82.9398 123.012 83.2075C122.995 83.4751 122.987 83.7386 122.987 83.9979V88.7529H121.431L121.419 87.4481H121.569C121.435 87.8831 121.163 88.2302 120.754 88.4895C120.344 88.7487 119.88 88.8784 119.361 88.8784ZM119.8 87.6739C120.294 87.6739 120.691 87.5025 120.992 87.1596C121.293 86.8083 121.444 86.2813 121.444 85.5787C121.444 84.8761 121.293 84.3534 120.992 84.0104C120.691 83.6675 120.294 83.496 119.8 83.496C119.307 83.496 118.909 83.6675 118.608 84.0104C118.307 84.3534 118.157 84.8761 118.157 85.5787C118.157 86.2813 118.303 86.8083 118.596 87.1596C118.897 87.5025 119.298 87.6739 119.8 87.6739ZM126.49 88.7529L123.755 82.4171H125.424L127.406 87.3728H127.017L129.05 82.4171H130.618L127.87 88.7529H126.49ZM134.397 88.8784C133.334 88.8784 132.502 88.5856 131.9 88.0002C131.298 87.4147 130.997 86.6117 130.997 85.5913C130.997 84.9305 131.126 84.3534 131.386 83.8599C131.645 83.3664 132.005 82.9816 132.465 82.7056C132.933 82.4296 133.477 82.2916 134.096 82.2916C134.706 82.2916 135.216 82.4212 135.626 82.6805C136.036 82.9398 136.346 83.3037 136.555 83.7721C136.772 84.2404 136.881 84.7883 136.881 85.4156V85.8296H132.264V85.0016H135.764L135.551 85.1772C135.551 84.5917 135.425 84.1443 135.175 83.8348C134.932 83.5253 134.576 83.3706 134.108 83.3706C133.59 83.3706 133.188 83.5546 132.904 83.9226C132.628 84.2906 132.49 84.805 132.49 85.4658V85.6289C132.49 86.3148 132.657 86.8292 132.991 87.1721C133.334 87.5067 133.815 87.6739 134.434 87.6739C134.794 87.6739 135.129 87.6279 135.438 87.5359C135.756 87.4356 136.057 87.2767 136.341 87.0592L136.806 88.1131C136.504 88.3556 136.145 88.5438 135.727 88.6777C135.308 88.8115 134.865 88.8784 134.397 88.8784ZM140.417 88.7529V81.2377H137.494V79.9078H144.959V81.2377H142.035V88.7529H140.417ZM147.443 88.8784C146.891 88.8784 146.406 88.7487 145.988 88.4895C145.57 88.2218 145.243 87.8412 145.009 87.3477C144.775 86.8543 144.658 86.2646 144.658 85.5787C144.658 84.8929 144.775 84.3074 145.009 83.8222C145.243 83.3288 145.57 82.9524 145.988 82.6931C146.406 82.4254 146.891 82.2916 147.443 82.2916C147.978 82.2916 148.447 82.4254 148.848 82.6931C149.258 82.9524 149.53 83.3037 149.664 83.747H149.526L149.664 82.4171H151.169C151.144 82.6763 151.119 82.9398 151.094 83.2075C151.077 83.4751 151.069 83.7386 151.069 83.9979V88.7529H149.513L149.501 87.4481H149.651C149.517 87.8831 149.246 88.2302 148.836 88.4895C148.426 88.7487 147.962 88.8784 147.443 88.8784ZM147.882 87.6739C148.376 87.6739 148.773 87.5025 149.074 87.1596C149.375 86.8083 149.526 86.2813 149.526 85.5787C149.526 84.8761 149.375 84.3534 149.074 84.0104C148.773 83.6675 148.376 83.496 147.882 83.496C147.389 83.496 146.991 83.6675 146.69 84.0104C146.389 84.3534 146.239 84.8761 146.239 85.5787C146.239 86.2813 146.385 86.8083 146.678 87.1596C146.979 87.5025 147.38 87.6739 147.882 87.6739ZM155.713 91.5633C155.127 91.5633 154.596 91.5006 154.119 91.3751C153.651 91.2496 153.233 91.0573 152.865 90.798L153.203 89.6688C153.446 89.8277 153.697 89.9574 153.956 90.0577C154.215 90.1581 154.483 90.2334 154.759 90.2836C155.035 90.3338 155.315 90.3589 155.6 90.3589C156.185 90.3589 156.62 90.2125 156.904 89.9197C157.197 89.6354 157.344 89.2255 157.344 88.6902V87.1721H157.469C157.335 87.607 157.063 87.9541 156.654 88.2134C156.252 88.4727 155.788 88.6024 155.261 88.6024C154.692 88.6024 154.194 88.4769 153.768 88.226C153.35 87.9667 153.024 87.5987 152.789 87.1219C152.555 86.6452 152.438 86.0848 152.438 85.4407C152.438 84.7967 152.555 84.2404 152.789 83.7721C153.024 83.2953 153.35 82.9315 153.768 82.6805C154.194 82.4212 154.692 82.2916 155.261 82.2916C155.796 82.2916 156.26 82.4212 156.654 82.6805C157.055 82.9315 157.323 83.2744 157.457 83.7093L157.344 83.634L157.469 82.4171H158.987C158.954 82.6763 158.929 82.9398 158.912 83.2075C158.895 83.4751 158.887 83.7386 158.887 83.9979V88.502C158.887 89.4973 158.615 90.2543 158.071 90.7729C157.536 91.2998 156.75 91.5633 155.713 91.5633ZM155.688 87.3979C156.189 87.3979 156.587 87.2306 156.879 86.8961C157.181 86.5531 157.331 86.068 157.331 85.4407C157.331 84.8134 157.181 84.3325 156.879 83.9979C156.587 83.6633 156.189 83.496 155.688 83.496C155.177 83.496 154.772 83.6633 154.471 83.9979C154.169 84.3325 154.019 84.8134 154.019 85.4407C154.019 86.068 154.169 86.5531 154.471 86.8961C154.772 87.2306 155.177 87.3979 155.688 87.3979Z" fill="white"/>
<path d="M166.225 75.9936C165.341 75.9936 164.646 76.2699 164.141 76.8224C163.628 77.375 163.375 78.0617 163.375 78.8747C163.375 79.6957 163.628 80.3745 164.141 80.927C164.646 81.4796 165.341 81.7559 166.225 81.7559C167.109 81.7559 167.803 81.4796 168.316 80.927C168.822 80.3745 169.082 79.6957 169.082 78.8747C169.082 78.0617 168.822 77.375 168.316 76.8224C167.803 76.2699 167.109 75.9936 166.225 75.9936ZM164.101 78.8747C164.101 78.2275 164.299 77.6986 164.678 77.2724C165.056 76.854 165.57 76.6409 166.225 76.6409C166.88 76.6409 167.401 76.854 167.78 77.2724C168.159 77.6986 168.348 78.2275 168.348 78.8747C168.348 79.522 168.159 80.0588 167.78 80.4771C167.401 80.8955 166.88 81.1007 166.225 81.1007C165.562 81.1007 165.049 80.8955 164.67 80.4771C164.291 80.0588 164.101 79.522 164.101 78.8747ZM167.622 80.1851V80.3271H166.904L166.146 79.3641H165.775V80.3271H165.112V77.3987H166.485C166.722 77.3987 166.935 77.4618 167.117 77.5723C167.29 77.6828 167.417 77.8249 167.48 77.9907C167.543 78.1643 167.567 78.338 167.559 78.5116C167.543 78.6853 167.48 78.8432 167.353 78.9852C167.227 79.1273 167.054 79.2142 166.848 79.2536L167.622 80.1851ZM165.775 77.9986V78.7958H166.477C166.651 78.7958 166.769 78.7327 166.84 78.5985C166.911 78.4643 166.911 78.3301 166.848 78.1959C166.777 78.0696 166.659 77.9986 166.485 77.9986H165.775Z" fill="white"/>
</g>
<defs>
<clipPath id="clip0_46_2655">
<rect width="274" height="155" fill="white"/>
</clipPath>
</defs>
</svg>
