<svg width="18" height="14" viewBox="0 0 18 14" fill="none" xmlns="http://www.w3.org/2000/svg">
<path d="M0 7.20305H18V8.70305H13.6342C13.8711 9.20027 13.9906 9.74524 13.9836 10.296C13.9977 10.8184 13.8855 11.3366 13.6567 11.8066C13.428 12.2765 13.0893 12.6844 12.6694 12.9957C11.6579 13.7073 10.4378 14.0609 9.20251 14.0001C8.29996 14.0062 7.4062 13.8226 6.57916 13.4611C5.82387 13.1478 5.16917 12.633 4.68652 11.9729C4.24212 11.3428 4.00762 10.5886 4.01636 9.81749V9.70411H4.30359V9.70301H4.64508V9.70411H6.02V9.81745C6.00433 10.1688 6.07382 10.5188 6.22253 10.8376C6.37125 11.1563 6.59479 11.4344 6.87413 11.6481C7.55154 12.1304 8.372 12.3698 9.20249 12.3274C9.93562 12.3753 10.6645 12.1836 11.2792 11.7812C11.507 11.6127 11.6901 11.3909 11.8124 11.1352C11.9346 10.8796 11.9923 10.5978 11.9804 10.3147C11.9964 10.0411 11.9459 9.76774 11.8332 9.51796C11.7205 9.26817 11.5491 9.04937 11.3335 8.88026C11.2451 8.81623 11.1533 8.75706 11.0585 8.70301H0V7.20305ZM13.3447 2.05992C12.9232 1.40493 12.3271 0.880702 11.6236 0.54631C10.8394 0.17272 9.97928 -0.0142283 9.11072 0.000110516C7.8996 -0.0518674 6.70883 0.324152 5.74719 1.06224C5.33435 1.38109 5.00134 1.79159 4.77448 2.26131C4.54762 2.73103 4.43313 3.24708 4.44006 3.76866C4.43656 4.26295 4.54659 4.75145 4.76166 5.19652H7.35834C7.27496 5.14287 7.17297 5.09075 7.10565 5.03588C6.90219 4.88579 6.73702 4.6898 6.62358 4.46385C6.51014 4.23789 6.45164 3.98835 6.45282 3.73552C6.43773 3.44691 6.49242 3.15892 6.61226 2.89593C6.73209 2.63294 6.91354 2.4027 7.14124 2.22472C7.71733 1.82519 8.41088 1.63065 9.11072 1.67229C9.87165 1.62391 10.6231 1.86251 11.2167 2.34099C11.465 2.57478 11.6594 2.85979 11.7865 3.17624C11.9136 3.49269 11.9703 3.83301 11.9527 4.17357V4.28698H13.9559V4.17357C13.9592 3.42497 13.7471 2.69122 13.3447 2.05992Z" fill="black"/>
</svg>
