<svg width="18" height="14" viewBox="0 0 18 14" fill="none" xmlns="http://www.w3.org/2000/svg">
<path d="M4.68164 4.97424e-05C3.7419 -0.015152 2.82533 0.292192 2.08472 0.870853C1.3441 1.44951 0.824193 2.26453 0.611645 3.18005C0.397522 4.21903 0.604883 5.30052 1.18811 6.18662C1.77135 7.07272 2.68268 7.69085 3.72164 7.90505L3.74864 7.91005C4.01786 7.96999 4.29284 8.00017 4.56864 8.00005V14H6.56865V2.00005H8.56864V14H10.5686V2.00005H12.5686V4.97424e-05H4.68164ZM2.53164 4.00005C2.53164 3.46962 2.74236 2.96091 3.11743 2.58584C3.4925 2.21076 4.00121 2.00005 4.53164 2.00005V6.00005C4.00121 6.00005 3.4925 5.78934 3.11743 5.41426C2.74236 5.03919 2.53164 4.53048 2.53164 4.00005ZM17.4716 12.491C17.4716 12.7877 17.3837 13.0777 17.2188 13.3244C17.054 13.5711 16.8198 13.7633 16.5457 13.8769C16.2716 13.9904 15.97 14.0201 15.679 13.9622C15.388 13.9043 15.1208 13.7615 14.911 13.5517C14.7012 13.3419 14.5583 13.0747 14.5005 12.7837C14.4426 12.4927 14.4723 12.1911 14.5858 11.917C14.6994 11.6429 14.8916 11.4087 15.1383 11.2438C15.385 11.079 15.675 10.991 15.9716 10.991C16.3695 10.991 16.751 11.1491 17.0323 11.4304C17.3136 11.7117 17.4716 12.0932 17.4716 12.491ZM17.4716 8.49105C17.4716 8.78772 17.3837 9.07773 17.2188 9.3244C17.054 9.57108 16.8198 9.76334 16.5457 9.87687C16.2716 9.9904 15.97 10.0201 15.679 9.96223C15.388 9.90435 15.1208 9.76149 14.911 9.55171C14.7012 9.34193 14.5583 9.07466 14.5005 8.78368C14.4426 8.49271 14.4723 8.19111 14.5858 7.91702C14.6994 7.64294 14.8916 7.40867 15.1383 7.24384C15.385 7.07902 15.675 6.99105 15.9716 6.99105C16.3695 6.99105 16.751 7.14909 17.0323 7.43039C17.3136 7.71169 17.4716 8.09323 17.4716 8.49105ZM17.4716 4.49105C17.4716 4.78772 17.3837 5.07773 17.2188 5.3244C17.054 5.57108 16.8198 5.76334 16.5457 5.87687C16.2716 5.9904 15.97 6.02011 15.679 5.96223C15.388 5.90435 15.1208 5.76149 14.911 5.55171C14.7012 5.34193 14.5583 5.07466 14.5005 4.78368C14.4426 4.49271 14.4723 4.19111 14.5858 3.91702C14.6994 3.64294 14.8916 3.40867 15.1383 3.24385C15.385 3.07902 15.675 2.99105 15.9716 2.99105C16.3695 2.99105 16.751 3.14909 17.0323 3.43039C17.3136 3.71169 17.4716 4.09323 17.4716 4.49105Z" fill="black"/>
</svg>
