<svg width="20" height="19" viewBox="0 0 20 19" fill="none" xmlns="http://www.w3.org/2000/svg">
<path d="M7.89969 8.313C7.90827 8.2061 7.93114 8.10083 7.9677 8H4.2767L6.1367 2.8L7.97769 7.948C8.05229 7.67728 8.21313 7.43826 8.43581 7.26719C8.6585 7.09611 8.93089 7.00231 9.21169 7H9.6377L7.13769 0H5.1377L0.137695 14H2.1377L3.5677 10H7.89969V8.313ZM10.5507 15.04C10.0839 14.475 9.84968 13.7535 9.89569 13.022V10.312C9.8953 10.1396 9.92897 9.96881 9.99476 9.80945C10.0606 9.65009 10.1572 9.5053 10.2791 9.38339C10.401 9.26149 10.5458 9.16486 10.7051 9.09906C10.8645 9.03327 11.0353 8.9996 11.2077 9H14.3207C15.1038 9.09082 15.8209 9.48238 16.3207 10.092C16.3207 10.092 18.0487 11.91 19.2847 13.02C19.4325 13.1258 19.5579 13.2598 19.6539 13.4141C19.7498 13.5685 19.8144 13.7402 19.844 13.9196C19.8735 14.0989 19.8674 14.2823 19.826 14.4593C19.7846 14.6363 19.7087 14.8034 19.6027 14.951C19.5467 15.0288 19.483 15.1008 19.4127 15.166L16.0657 18.476C15.8568 18.753 15.5466 18.9357 15.2031 18.9841C14.8596 19.0325 14.5109 18.9425 14.2337 18.734C14.1359 18.661 14.049 18.5745 13.9757 18.477L12.2657 16.749L10.5507 15.04ZM13.0307 11.08C12.826 11.0811 12.6301 11.1632 12.486 11.3085C12.3418 11.4538 12.2612 11.6503 12.2617 11.855C12.2622 12.0597 12.3439 12.2558 12.4888 12.4003C12.6337 12.5448 12.83 12.626 13.0347 12.626C13.2394 12.626 13.4357 12.5448 13.5806 12.4003C13.7255 12.2558 13.8072 12.0597 13.8077 11.855C13.8082 11.6503 13.7276 11.4538 13.5834 11.3085C13.4392 11.1632 13.2434 11.0811 13.0387 11.08H13.0307Z" fill="black"/>
</svg>
