<svg width="378" height="378" viewBox="0 0 378 378" fill="none" xmlns="http://www.w3.org/2000/svg">
<path d="M75.4263 364.288C89.1011 364.288 102.469 360.379 113.839 353.055C125.209 345.731 134.071 335.321 139.304 323.142C144.537 310.963 145.907 297.561 143.239 284.632C140.571 271.702 133.986 259.826 124.316 250.504C114.647 241.183 102.327 234.835 88.915 232.263C75.503 229.691 61.601 231.011 48.9671 236.056C36.3332 241.101 25.5349 249.644 17.9375 260.605C10.3402 271.566 6.28516 284.452 6.28516 297.635C6.28516 315.312 13.5696 332.266 26.5361 344.766C39.5026 357.266 57.0889 364.288 75.4263 364.288ZM75.4263 267.338C81.6421 267.338 87.7184 269.115 92.8866 272.444C98.0549 275.773 102.083 280.505 104.462 286.041C106.84 291.577 107.463 297.669 106.25 303.546C105.038 309.423 102.044 314.821 97.6491 319.058C93.2538 323.295 87.6539 326.181 81.5576 327.35C75.4612 328.519 69.1421 327.919 63.3994 325.626C57.6567 323.332 52.7484 319.449 49.295 314.467C45.8417 309.485 43.9985 303.627 43.9985 297.635C43.9985 289.6 47.3096 281.894 53.2035 276.212C59.0973 270.53 67.0911 267.338 75.4263 267.338Z" fill="#ECEDEF"/>
<path d="M370.848 79.4983C370.848 66.3156 366.793 53.429 359.195 42.468C351.598 31.507 340.8 22.9639 328.166 17.9191C315.532 12.8743 301.63 11.5544 288.218 14.1262C274.806 16.698 262.486 23.0461 252.816 32.3676C243.147 41.6892 236.562 53.5656 233.894 66.495C231.226 79.4244 232.595 92.826 237.829 105.005C243.062 117.184 251.924 127.594 263.294 134.918C274.664 142.242 288.032 146.151 301.707 146.151C320.044 146.151 337.63 139.129 350.597 126.629C363.563 114.129 370.848 97.1757 370.848 79.4983ZM270.279 79.4983C270.279 73.5062 272.122 67.6486 275.575 62.6663C279.029 57.6841 283.937 53.8009 289.68 51.5078C295.422 49.2147 301.741 48.6147 307.838 49.7837C313.934 50.9527 319.534 53.8382 323.929 58.0753C328.325 62.3123 331.318 67.7107 332.53 73.5877C333.743 79.4647 333.121 85.5564 330.742 91.0924C328.363 96.6284 324.335 101.36 319.167 104.689C313.999 108.018 307.922 109.795 301.707 109.795C293.371 109.795 285.378 106.603 279.484 100.921C273.59 95.2396 270.279 87.5335 270.279 79.4983Z" fill="#ECEDEF"/>
<path d="M187.813 310.481L256.954 377.134L283.604 351.442L246.645 315.813H307.992C317.072 315.813 326.063 314.089 334.452 310.74C342.84 307.39 350.462 302.48 356.883 296.291C363.303 290.102 368.396 282.754 371.871 274.667C375.345 266.581 377.134 257.913 377.134 249.16V182.508H339.42V249.16C339.42 257.196 336.109 264.902 330.215 270.583C324.321 276.265 316.328 279.457 307.992 279.457H246.645L283.604 243.828L256.954 218.137L187.813 284.789C184.281 288.198 182.298 292.818 182.298 297.635C182.298 302.452 184.281 307.073 187.813 310.481Z" fill="#ECEDEF"/>
<path d="M0 127.973V194.626H37.7134V127.973C37.7134 119.938 41.0245 112.232 46.9183 106.55C52.8122 100.869 60.806 97.6767 69.1411 97.6767H130.488L93.5291 133.306L120.18 158.997L189.321 92.3445C192.852 88.9361 194.836 84.3158 194.836 79.4986C194.836 74.6814 192.852 70.0612 189.321 66.6528L120.18 0L93.5291 25.6916L130.488 61.3206H69.1411C50.8038 61.3206 33.2174 68.3429 20.251 80.8428C7.28449 93.3426 0 110.296 0 127.973Z" fill="#ECEDEF"/>
</svg>
