<svg width="202" height="219" viewBox="0 0 202 219" fill="none" xmlns="http://www.w3.org/2000/svg">
<g clip-path="url(#clip0_46_2664)">
<path d="M197.828 62.6794C196.983 62.6794 196.172 62.3435 195.574 61.7457C194.976 61.1479 194.641 60.3372 194.641 59.4917V51.5971C194.641 50.7516 194.976 49.9408 195.574 49.343C196.172 48.7452 196.983 48.4094 197.828 48.4094C198.674 48.4094 199.484 48.7452 200.082 49.343C200.68 49.9408 201.016 50.7516 201.016 51.5971V59.4917C201.016 60.3372 200.68 61.1479 200.082 61.7457C199.484 62.3435 198.674 62.6794 197.828 62.6794Z" fill="#D9D9D9"/>
<path d="M197.828 48.3352C197.379 48.3346 196.935 48.429 196.525 48.6121C196.115 48.7952 195.748 49.0629 195.448 49.3978C195.871 49.1888 196.337 49.0797 196.808 49.079C197.649 49.0927 198.452 49.4329 199.047 50.0278C199.642 50.6226 199.982 51.4255 199.996 52.2666V60.172C199.985 60.9611 199.683 61.7183 199.146 62.297C199.706 62.0426 200.181 61.6312 200.513 61.1127C200.845 60.5942 201.02 59.9907 201.016 59.3751V51.4803C201.005 50.6423 200.664 49.8424 200.067 49.2538C199.471 48.6651 198.666 48.3351 197.828 48.3352Z" fill="#C5C5C5"/>
<path d="M147.198 62.6794C148.044 62.6794 148.855 62.3435 149.452 61.7457C150.05 61.1479 150.386 60.3372 150.386 59.4917V51.5971C150.386 50.7516 150.05 49.9408 149.452 49.343C148.855 48.7452 148.044 48.4094 147.198 48.4094C146.353 48.4094 145.542 48.7452 144.944 49.343C144.347 49.9408 144.011 50.7516 144.011 51.5971V59.4917C144.011 60.3372 144.347 61.1479 144.944 61.7457C145.542 62.3435 146.353 62.6794 147.198 62.6794Z" fill="#D9D9D9"/>
<path d="M147.198 48.3352C147.647 48.3346 148.092 48.429 148.502 48.6121C148.912 48.7952 149.279 49.0629 149.578 49.3978C149.155 49.1888 148.69 49.0797 148.218 49.079C147.377 49.0927 146.574 49.4329 145.979 50.0278C145.385 50.6226 145.044 51.4255 145.031 52.2666V60.172C145.041 60.9611 145.344 61.7183 145.881 62.297C145.338 62.051 144.875 61.6578 144.544 61.1619C144.214 60.6661 144.029 60.0875 144.011 59.4919V51.5972C144.001 51.1724 144.076 50.7499 144.232 50.3545C144.387 49.9592 144.621 49.5989 144.918 49.295C145.215 48.9911 145.569 48.7496 145.961 48.5848C146.353 48.4199 146.773 48.3351 147.198 48.3352Z" fill="#C5C5C5"/>
<path d="M197.828 84.9079C196.983 84.9079 196.172 84.5721 195.574 83.9743C194.976 83.3765 194.641 82.5657 194.641 81.7203V73.8256C194.654 72.9844 194.995 72.1816 195.589 71.5867C196.184 70.9919 196.987 70.6516 197.828 70.6379C198.674 70.6379 199.484 70.9738 200.082 71.5716C200.68 72.1694 201.016 72.9802 201.016 73.8256V81.7203C201.016 82.5657 200.68 83.3765 200.082 83.9743C199.484 84.5721 198.674 84.9079 197.828 84.9079Z" fill="#D9D9D9"/>
<path d="M197.828 70.553C197.379 70.5524 196.935 70.6468 196.525 70.8299C196.115 71.013 195.748 71.2807 195.448 71.6155C195.871 71.4066 196.337 71.2975 196.808 71.2967C197.649 71.3104 198.452 71.6507 199.047 72.2455C199.642 72.8404 199.982 73.6432 199.996 74.4844V82.3897C199.985 83.1789 199.683 83.9361 199.146 84.5148C199.706 84.2603 200.181 83.849 200.513 83.3305C200.845 82.812 201.02 82.2084 201.016 81.5928V73.6981C201.005 72.8601 200.664 72.0602 200.067 71.4716C199.471 70.8829 198.666 70.5529 197.828 70.553Z" fill="#C5C5C5"/>
<path d="M197.828 55.518H147.198V42.2149L150.673 7.6504C150.884 5.54637 151.872 3.59668 153.444 2.18207C155.016 0.767456 157.059 -0.0104902 159.173 0.000106855L185.907 0.000106855C188.021 -0.0104902 190.064 0.767456 191.636 2.18207C193.208 3.59668 194.196 5.54637 194.407 7.6504L197.882 42.2149L197.828 55.518Z" fill="#2D60FF"/>
<path d="M190.391 29.2305H154.636C153.303 29.2296 151.994 29.5872 150.846 30.2657C149.698 30.9443 148.754 31.9189 148.112 33.0875L147.198 42.2148V55.5178H197.797V42.2148L196.883 33.0875C196.243 31.9236 195.304 30.9521 194.163 30.2738C193.021 29.5956 191.719 29.2353 190.391 29.2305Z" fill="#C5C5C5"/>
<path d="M197.828 115.807H147.198V142.976L150.673 177.53C150.884 179.634 151.872 181.584 153.444 182.998C155.016 184.413 157.059 185.191 159.173 185.18H185.907C188.021 185.191 190.064 184.413 191.636 182.998C193.208 181.584 194.196 179.634 194.407 177.53L197.882 142.976L197.828 115.807Z" fill="#2D60FF"/>
<path d="M196.287 124.179V141.446L192.813 176.01C192.601 178.114 191.613 180.064 190.041 181.479C188.47 182.893 186.427 183.671 184.312 183.661H157.621C155.767 183.663 153.963 183.054 152.489 181.929C153.29 182.928 154.305 183.734 155.461 184.286C156.616 184.838 157.882 185.122 159.162 185.116H185.896C188.01 185.127 190.053 184.349 191.625 182.934C193.196 181.52 194.185 179.57 194.396 177.466L197.871 142.912V124.179H196.287Z" fill="#C5C5C5"/>
<path d="M196.287 61.0007V43.7238L192.813 9.16986C192.601 7.06583 191.613 5.11615 190.041 3.70153C188.47 2.28692 186.427 1.50894 184.312 1.51954L157.621 1.51954C155.769 1.51874 153.967 2.12317 152.489 3.24085C153.284 2.23149 154.298 1.41549 155.453 0.854182C156.609 0.29287 157.877 0.000862464 159.162 0.000106855L185.896 0.000106855C188.01 -0.0104902 190.053 0.767456 191.625 2.18207C193.196 3.59668 194.185 5.54637 194.396 7.6504L197.871 42.2149V61.0007H196.287Z" fill="#C5C5C5"/>
<path d="M147.198 132.51C149.028 137.761 152.447 142.313 156.98 145.534C161.513 148.756 166.936 150.487 172.497 150.488C178.059 150.487 183.482 148.756 188.015 145.534C192.548 142.313 195.966 137.761 197.797 132.51V120.822H147.198V132.51Z" fill="#C5C5C5"/>
<path d="M154.625 32.0144L190.401 32.0144C192.374 32.0144 194.266 32.798 195.661 34.1929C197.055 35.5877 197.839 37.4796 197.839 39.4522V122.331C197.847 125.658 197.199 128.955 195.932 132.032C194.664 135.109 192.802 137.905 190.452 140.261C188.102 142.617 185.31 144.486 182.236 145.762C179.163 147.037 175.868 147.694 172.54 147.694C169.209 147.701 165.909 147.05 162.83 145.778C159.751 144.506 156.953 142.639 154.597 140.284C152.242 137.928 150.375 135.13 149.103 132.051C147.832 128.972 147.181 125.673 147.188 122.341V39.4628C147.188 37.4902 147.971 35.5984 149.366 34.2035C150.761 32.8087 152.653 32.025 154.625 32.025V32.0144Z" fill="#07090C"/>
<path d="M197.828 39.4522C197.828 37.4796 197.045 35.5877 195.65 34.1929C194.255 32.798 192.363 32.0144 190.391 32.0144H185.535L147.198 80.5939V122.341C147.198 127.234 148.616 132.022 151.281 136.125C153.946 140.229 157.742 143.472 162.212 145.462L197.797 100.336L197.828 39.4522Z" fill="#1F2021"/>
<path d="M172.53 139.183C171.269 139.183 170.036 138.809 168.988 138.108C167.939 137.408 167.122 136.412 166.64 135.247C166.157 134.082 166.031 132.8 166.277 131.564C166.523 130.327 167.13 129.191 168.022 128.299C168.913 127.408 170.049 126.801 171.286 126.555C172.522 126.309 173.804 126.435 174.969 126.917C176.134 127.4 177.13 128.217 177.83 129.265C178.531 130.314 178.905 131.546 178.905 132.807C178.905 134.498 178.233 136.12 177.038 137.315C175.842 138.511 174.22 139.183 172.53 139.183ZM172.53 127.973C171.578 127.973 170.647 128.255 169.855 128.784C169.064 129.313 168.447 130.065 168.083 130.944C167.718 131.824 167.623 132.791 167.809 133.725C167.994 134.659 168.453 135.517 169.126 136.19C169.799 136.863 170.657 137.321 171.591 137.507C172.524 137.693 173.492 137.597 174.372 137.233C175.251 136.869 176.003 136.252 176.532 135.46C177.061 134.669 177.343 133.738 177.343 132.786C177.347 132.151 177.226 131.521 176.986 130.933C176.746 130.345 176.392 129.809 175.945 129.358C175.498 128.907 174.966 128.549 174.38 128.304C173.794 128.059 173.165 127.932 172.53 127.93V127.973Z" fill="#9C9B9B"/>
<path d="M166.122 132.744C166.122 133.678 166.328 134.602 166.724 135.448C167.121 136.295 167.699 137.044 168.417 137.642L169.416 136.367C168.887 135.923 168.46 135.368 168.167 134.743C167.873 134.117 167.719 133.435 167.716 132.744C167.715 131.857 167.959 130.987 168.422 130.231C168.885 129.475 169.548 128.862 170.338 128.459C171.127 128.056 172.013 127.88 172.897 127.95C173.781 128.02 174.628 128.333 175.345 128.855L176.333 127.601C175.236 126.777 173.901 126.333 172.529 126.337C171.687 126.332 170.852 126.495 170.072 126.816C169.293 127.136 168.585 127.608 167.989 128.204C167.394 128.8 166.922 129.507 166.601 130.287C166.281 131.066 166.118 131.901 166.122 132.744Z" fill="#B1B1B0"/>
<path d="M168.238 81.7989L165.774 79.3032L164.445 80.6155L166.909 83.1111L168.238 81.7989Z" fill="#2D60FF"/>
<path d="M176.259 83.6598C175.742 84.1917 175.054 84.4846 174.323 84.4846C173.591 84.4846 172.904 84.1917 172.387 83.6599C172.387 83.6598 169.831 81.0308 169.831 81.0308C169.489 80.6791 168.933 80.6791 168.591 81.0308C168.425 81.2011 168.334 81.4276 168.334 81.6686C168.334 81.9095 168.425 82.136 168.591 82.3063C168.762 82.4822 168.986 82.5701 169.211 82.5701C169.436 82.5701 169.66 82.4821 169.831 82.3063L170.012 82.1198L171.328 83.4737L171.147 83.6598C170.63 84.1917 169.942 84.4846 169.211 84.4846C168.48 84.4846 167.792 84.1917 167.275 83.6598C166.757 83.1279 166.473 82.4207 166.473 81.6686C166.473 80.9164 166.757 80.2091 167.275 79.6773C167.792 79.1454 168.48 78.8525 169.211 78.8525C169.942 78.8525 170.63 79.1453 171.147 79.6772L173.082 81.6684L173.701 82.3045L173.703 82.3063C174.045 82.658 174.601 82.658 174.943 82.3063C175.109 82.136 175.2 81.9095 175.2 81.6686C175.2 81.4276 175.109 81.2011 174.943 81.0308C174.601 80.6791 174.045 80.6791 173.703 81.0308L173.521 81.2173L172.205 79.8635L172.386 79.6773C172.904 79.1454 173.591 78.8525 174.323 78.8525C175.054 78.8525 175.742 79.1454 176.259 79.6773C176.776 80.2091 177.061 80.9164 177.061 81.6686C177.061 82.4207 176.776 83.1279 176.259 83.6598Z" fill="#2D60FF"/>
<path d="M154.539 93.5952L152.68 88.3302H153.681L155.114 92.6468H154.816L156.362 88.3302H157.079L158.512 92.6468H158.236L159.737 88.3302H160.678L158.804 93.5952H158.005L156.616 89.5475H156.78L155.339 93.5952H154.539ZM162.385 93.6699C162.056 93.6699 161.768 93.5927 161.519 93.4384C161.27 93.2791 161.075 93.0525 160.936 92.7588C160.797 92.465 160.727 92.114 160.727 91.7058C160.727 91.2975 160.797 90.949 160.936 90.6602C161.075 90.3665 161.27 90.1424 161.519 89.9881C161.768 89.8288 162.056 89.7491 162.385 89.7491C162.704 89.7491 162.982 89.8288 163.221 89.9881C163.465 90.1424 163.627 90.3515 163.707 90.6154H163.625L163.707 89.8238H164.603C164.588 89.9781 164.573 90.135 164.558 90.2943C164.548 90.4536 164.543 90.6104 164.543 90.7648V93.5952H163.617L163.61 92.8185H163.699C163.62 93.0774 163.458 93.284 163.214 93.4384C162.97 93.5927 162.694 93.6699 162.385 93.6699ZM162.646 92.953C162.94 92.953 163.177 92.8509 163.356 92.6468C163.535 92.4377 163.625 92.124 163.625 91.7058C163.625 91.2876 163.535 90.9764 163.356 90.7723C163.177 90.5681 162.94 90.4661 162.646 90.4661C162.353 90.4661 162.116 90.5681 161.937 90.7723C161.758 90.9764 161.668 91.2876 161.668 91.7058C161.668 92.124 161.755 92.4377 161.929 92.6468C162.109 92.8509 162.348 92.953 162.646 92.953ZM166.629 93.5952L165.001 89.8238H165.994L167.174 92.7737H166.942L168.152 89.8238H169.086L167.45 93.5952H166.629ZM171.335 93.6699C170.703 93.6699 170.207 93.4956 169.849 93.1471C169.49 92.7986 169.311 92.3207 169.311 91.7132C169.311 91.3199 169.388 90.9764 169.542 90.6826C169.697 90.3889 169.911 90.1599 170.185 89.9956C170.464 89.8313 170.787 89.7491 171.156 89.7491C171.519 89.7491 171.823 89.8263 172.067 89.9806C172.311 90.135 172.495 90.3515 172.619 90.6304C172.749 90.9092 172.814 91.2353 172.814 91.6087V91.8551H170.065V91.3622H172.149L172.022 91.4668C172.022 91.1183 171.947 90.8519 171.798 90.6677C171.653 90.4835 171.442 90.3914 171.163 90.3914C170.854 90.3914 170.615 90.5009 170.446 90.72C170.282 90.939 170.2 91.2452 170.2 91.6386V91.7356C170.2 92.1439 170.299 92.4501 170.498 92.6542C170.703 92.8534 170.989 92.953 171.357 92.953C171.571 92.953 171.77 92.9256 171.955 92.8708C172.144 92.8111 172.323 92.7165 172.492 92.587L172.769 93.2143C172.589 93.3587 172.375 93.4707 172.126 93.5504C171.878 93.6301 171.614 93.6699 171.335 93.6699ZM174.918 93.5952V89.1218H173.178V88.3302H177.622V89.1218H175.882V93.5952H174.918ZM179.101 93.6699C178.772 93.6699 178.483 93.5927 178.234 93.4384C177.985 93.2791 177.791 93.0525 177.652 92.7588C177.512 92.465 177.443 92.114 177.443 91.7058C177.443 91.2975 177.512 90.949 177.652 90.6602C177.791 90.3665 177.985 90.1424 178.234 89.9881C178.483 89.8288 178.772 89.7491 179.101 89.7491C179.419 89.7491 179.698 89.8288 179.937 89.9881C180.181 90.1424 180.343 90.3515 180.423 90.6154H180.34L180.423 89.8238H181.319C181.304 89.9781 181.289 90.135 181.274 90.2943C181.264 90.4536 181.259 90.6104 181.259 90.7648V93.5952H180.333L180.326 92.8185H180.415C180.335 93.0774 180.174 93.284 179.93 93.4384C179.686 93.5927 179.409 93.6699 179.101 93.6699ZM179.362 92.953C179.656 92.953 179.892 92.8509 180.072 92.6468C180.251 92.4377 180.34 92.124 180.34 91.7058C180.34 91.2876 180.251 90.9764 180.072 90.7723C179.892 90.5681 179.656 90.4661 179.362 90.4661C179.068 90.4661 178.832 90.5681 178.653 90.7723C178.473 90.9764 178.384 91.2876 178.384 91.7058C178.384 92.124 178.471 92.4377 178.645 92.6468C178.824 92.8509 179.063 92.953 179.362 92.953ZM184.023 95.2681C183.675 95.2681 183.358 95.2307 183.075 95.1561C182.796 95.0814 182.547 94.9669 182.328 94.8125L182.529 94.1404C182.674 94.235 182.823 94.3122 182.978 94.3719C183.132 94.4316 183.291 94.4765 183.456 94.5063C183.62 94.5362 183.787 94.5511 183.956 94.5511C184.304 94.5511 184.563 94.464 184.733 94.2898C184.907 94.1205 184.994 93.8765 184.994 93.5579V92.6542H185.069C184.989 92.9131 184.827 93.1197 184.583 93.2741C184.344 93.4284 184.068 93.5056 183.754 93.5056C183.416 93.5056 183.119 93.4309 182.866 93.2816C182.617 93.1272 182.422 92.9081 182.283 92.6244C182.144 92.3406 182.074 92.007 182.074 91.6236C182.074 91.2403 182.144 90.9092 182.283 90.6304C182.422 90.3466 182.617 90.13 182.866 89.9806C183.119 89.8263 183.416 89.7491 183.754 89.7491C184.073 89.7491 184.349 89.8263 184.583 89.9806C184.822 90.13 184.982 90.3341 185.061 90.593L184.994 90.5482L185.069 89.8238H185.972C185.952 89.9781 185.937 90.135 185.927 90.2943C185.918 90.4536 185.913 90.6104 185.913 90.7648V93.4459C185.913 94.0383 185.751 94.4889 185.427 94.7976C185.108 95.1112 184.64 95.2681 184.023 95.2681ZM184.008 92.7887C184.307 92.7887 184.543 92.6891 184.718 92.4899C184.897 92.2858 184.987 91.997 184.987 91.6236C184.987 91.2502 184.897 90.9639 184.718 90.7648C184.543 90.5656 184.307 90.4661 184.008 90.4661C183.704 90.4661 183.463 90.5656 183.284 90.7648C183.105 90.9639 183.015 91.2502 183.015 91.6236C183.015 91.997 183.105 92.2858 183.284 92.4899C183.463 92.6891 183.704 92.7887 184.008 92.7887Z" fill="white"/>
<path d="M190.281 86.5717C189.754 86.5717 189.341 86.7361 189.04 87.065C188.735 87.3939 188.585 87.8027 188.585 88.2867C188.585 88.7753 188.735 89.1794 189.04 89.5083C189.341 89.8372 189.754 90.0016 190.281 90.0016C190.807 90.0016 191.22 89.8372 191.526 89.5083C191.827 89.1794 191.982 88.7753 191.982 88.2867C191.982 87.8027 191.827 87.3939 191.526 87.065C191.22 86.7361 190.807 86.5717 190.281 86.5717ZM189.017 88.2867C189.017 87.9014 189.134 87.5866 189.36 87.3328C189.585 87.0838 189.891 86.957 190.281 86.957C190.671 86.957 190.981 87.0838 191.206 87.3328C191.432 87.5866 191.545 87.9014 191.545 88.2867C191.545 88.6719 191.432 88.9914 191.206 89.2405C190.981 89.4895 190.671 89.6116 190.281 89.6116C189.886 89.6116 189.581 89.4895 189.355 89.2405C189.13 88.9914 189.017 88.6719 189.017 88.2867ZM191.112 89.0666V89.1512H190.685L190.234 88.578H190.013V89.1512H189.618V87.408H190.436C190.577 87.408 190.704 87.4456 190.812 87.5114C190.915 87.5772 190.99 87.6617 191.028 87.7604C191.065 87.8638 191.079 87.9671 191.075 88.0705C191.065 88.1739 191.028 88.2679 190.953 88.3524C190.877 88.437 190.774 88.4887 190.652 88.5122L191.112 89.0666ZM190.013 87.7651V88.2397H190.431C190.534 88.2397 190.605 88.2021 190.647 88.1222C190.69 88.0423 190.69 87.9624 190.652 87.8826C190.61 87.8074 190.539 87.7651 190.436 87.7651H190.013Z" fill="white"/>
</g>
<g filter="url(#filter0_f_46_2664)">
<circle cx="94" cy="125" r="60" fill="black" fill-opacity="0.25"/>
</g>
<circle cx="94" cy="125" r="60" fill="url(#paint0_linear_46_2664)"/>
<path d="M87.3694 115.867L83.3234 111.768L81.0908 113.973L85.1368 118.072L87.3694 115.867Z" fill="white"/>
<path d="M100.658 118.808C99.7887 119.702 98.641 120.201 97.426 120.215C96.211 120.229 95.0742 119.755 94.2251 118.881C94.2251 118.881 90.0298 114.562 90.0298 114.562C89.4683 113.984 88.5439 113.995 87.9693 114.585C87.6908 114.871 87.5351 115.249 87.5305 115.65C87.526 116.05 87.6733 116.424 87.9453 116.704C88.2261 116.993 88.5975 117.135 88.9705 117.131C89.3436 117.126 89.7184 116.976 90.0057 116.681L90.3105 116.368L92.4707 118.592L92.1665 118.904C91.2974 119.798 90.1496 120.297 88.9345 120.311C87.7195 120.325 86.5826 119.851 85.7335 118.977C84.8844 118.103 84.4246 116.934 84.4387 115.685C84.4529 114.435 84.9394 113.255 85.8085 112.362C86.6776 111.468 87.8255 110.969 89.0405 110.955C90.2555 110.941 91.3922 111.415 92.2413 112.289L95.4187 115.56L96.4337 116.605L96.4366 116.608C96.9982 117.186 97.9225 117.175 98.4972 116.585C98.7756 116.299 98.9314 115.921 98.9359 115.52C98.9404 115.12 98.7932 114.746 98.5212 114.466C97.9597 113.888 97.0354 113.899 96.4606 114.489L96.1559 114.802L93.9956 112.578L94.3 112.266C95.1691 111.372 96.3168 110.873 97.5318 110.859C98.7468 110.845 99.8837 111.319 100.733 112.193C101.582 113.066 102.042 114.236 102.028 115.485C102.014 116.735 101.527 117.915 100.658 118.808Z" fill="white"/>
<path d="M64.4142 137.092L61.3906 128.282L63.0717 128.263L65.3983 135.487L64.8965 135.493L67.5755 128.212L68.7799 128.199L71.1065 135.423L70.6423 135.428L73.2461 128.148L74.8268 128.13L71.5777 137.01L70.2353 137.026L67.9789 130.252L68.2549 130.249L65.7566 137.076L64.4142 137.092ZM77.5921 137.068C77.0401 137.074 76.5565 136.95 76.1413 136.695C75.7261 136.432 75.4042 136.056 75.1756 135.565C74.947 135.074 74.8366 134.486 74.8444 133.8C74.8522 133.114 74.9759 132.527 75.2156 132.039C75.4553 131.543 75.7858 131.163 76.2069 130.899C76.6281 130.627 77.1147 130.488 77.6667 130.481C78.202 130.475 78.6689 130.604 79.0673 130.867C79.4742 131.122 79.742 131.47 79.8708 131.911L79.7328 131.913L79.8859 130.582L81.3913 130.565C81.3633 130.824 81.3352 131.088 81.3071 131.356C81.2873 131.624 81.276 131.887 81.2731 132.146L81.2192 136.901L79.6635 136.919L79.6658 135.614L79.8163 135.613C79.6776 136.049 79.4018 136.399 78.9891 136.663C78.5763 136.927 78.1107 137.062 77.5921 137.068ZM78.0449 135.858C78.5383 135.853 78.9375 135.677 79.2425 135.331C79.5476 134.976 79.7041 134.447 79.7121 133.745C79.72 133.042 79.5754 132.521 79.2782 132.182C78.981 131.842 78.5856 131.675 78.0922 131.681C77.5987 131.686 77.1995 131.862 76.8945 132.209C76.5896 132.555 76.4331 133.079 76.4251 133.782C76.4172 134.484 76.5576 135.01 76.8463 135.358C77.1435 135.697 77.543 135.864 78.0449 135.858ZM84.7223 136.862L82.0592 130.557L83.7277 130.538L85.6538 135.471L85.2649 135.476L87.3534 130.497L88.9216 130.479L86.1023 136.846L84.7223 136.862ZM92.6268 136.897C91.5646 136.909 90.7358 136.626 90.1402 136.048C89.5447 135.469 89.2527 134.669 89.2642 133.649C89.2717 132.988 89.4079 132.41 89.6727 131.913C89.9376 131.417 90.3016 131.028 90.7647 130.747C91.2362 130.466 91.7814 130.321 92.4003 130.314C93.0109 130.308 93.5196 130.431 93.9265 130.686C94.3334 130.941 94.6387 131.301 94.8425 131.767C95.0546 132.233 95.1571 132.779 95.15 133.407L95.1453 133.821L90.5286 133.873L90.538 133.045L94.0382 133.005L93.8229 133.183C93.8295 132.598 93.7092 132.152 93.4618 131.845C93.2227 131.539 92.869 131.388 92.4006 131.393C91.8821 131.399 91.4786 131.588 91.19 131.959C90.9099 132.33 90.766 132.846 90.7585 133.507L90.7567 133.67C90.7489 134.356 90.9104 134.868 91.241 135.207C91.5802 135.538 92.0592 135.7 92.6781 135.693C93.0377 135.689 93.3728 135.639 93.6833 135.543C94.0022 135.439 94.3051 135.277 94.592 135.056L95.0442 136.105C94.7404 136.351 94.3786 136.543 93.9589 136.682C93.5392 136.82 93.0952 136.892 92.6268 136.897ZM98.6482 136.704L98.7333 129.189L95.8102 129.222L95.8253 127.892L103.29 127.808L103.275 129.138L100.352 129.171L100.267 136.685L98.6482 136.704ZM105.672 136.75C105.12 136.756 104.637 136.632 104.222 136.377C103.806 136.114 103.485 135.737 103.256 135.247C103.027 134.756 102.917 134.168 102.925 133.482C102.932 132.796 103.056 132.209 103.296 131.721C103.536 131.225 103.866 130.845 104.287 130.581C104.708 130.309 105.195 130.169 105.747 130.163C106.282 130.157 106.749 130.286 107.148 130.549C107.554 130.803 107.822 131.152 107.951 131.593L107.813 131.595L107.966 130.264L109.472 130.246C109.444 130.506 109.416 130.77 109.387 131.038C109.368 131.306 109.356 131.569 109.353 131.828L109.3 136.583L107.744 136.601L107.746 135.296L107.897 135.294C107.758 135.731 107.482 136.081 107.069 136.345C106.657 136.609 106.191 136.744 105.672 136.75ZM106.125 135.54C106.619 135.535 107.018 135.359 107.323 135.012C107.628 134.658 107.784 134.129 107.792 133.427C107.8 132.724 107.656 132.203 107.358 131.863C107.061 131.524 106.666 131.357 106.172 131.363C105.679 131.368 105.28 131.544 104.975 131.89C104.67 132.237 104.513 132.761 104.505 133.464C104.497 134.166 104.638 134.692 104.927 135.04C105.224 135.379 105.623 135.546 106.125 135.54ZM113.911 139.341C113.326 139.347 112.795 139.291 112.32 139.171C111.853 139.05 111.437 138.863 111.072 138.608L111.423 137.475C111.664 137.631 111.914 137.758 112.172 137.855C112.43 137.953 112.697 138.025 112.972 138.072C113.247 138.119 113.527 138.141 113.812 138.138C114.397 138.131 114.834 137.98 115.121 137.684C115.417 137.396 115.568 136.985 115.574 136.449L115.592 134.931L115.717 134.93C115.578 135.366 115.303 135.716 114.89 135.98C114.485 136.244 114.02 136.379 113.493 136.385C112.924 136.391 112.428 136.272 112.004 136.026C111.589 135.771 111.267 135.407 111.038 134.933C110.809 134.459 110.699 133.9 110.706 133.256C110.713 132.612 110.837 132.054 111.076 131.583C111.316 131.104 111.646 130.736 112.067 130.481C112.497 130.216 112.996 130.081 113.564 130.075C114.1 130.069 114.562 130.193 114.952 130.448C115.351 130.694 115.615 131.034 115.744 131.467L115.632 131.393L115.771 130.175L117.289 130.158C117.253 130.418 117.224 130.681 117.205 130.949C117.185 131.217 117.174 131.481 117.171 131.74L117.12 136.244C117.108 137.239 116.828 137.999 116.278 138.524C115.737 139.057 114.948 139.329 113.911 139.341ZM113.933 135.176C114.435 135.17 114.834 134.998 115.131 134.661C115.436 134.314 115.592 133.827 115.599 133.2C115.606 132.573 115.461 132.094 115.163 131.763C114.874 131.431 114.479 131.269 113.977 131.274C113.467 131.28 113.06 131.452 112.755 131.79C112.45 132.128 112.294 132.61 112.287 133.238C112.28 133.865 112.425 134.348 112.722 134.688C113.019 135.019 113.423 135.182 113.933 135.176Z" fill="white"/>
<path d="M123.928 123.673C123.044 123.683 122.346 123.967 121.835 124.525C121.315 125.084 121.055 125.773 121.046 126.586C121.037 127.407 121.281 128.083 121.788 128.63C122.287 129.176 122.979 129.445 123.863 129.435C124.747 129.425 125.444 129.141 125.964 128.582C126.475 128.024 126.743 127.342 126.752 126.521C126.762 125.708 126.509 125.025 126.01 124.478C125.503 123.931 124.812 123.663 123.928 123.673ZM121.772 126.578C121.779 125.931 121.983 125.4 122.366 124.969C122.75 124.546 123.265 124.327 123.921 124.32C124.576 124.313 125.094 124.52 125.468 124.934C125.842 125.356 126.026 125.882 126.018 126.53C126.011 127.177 125.816 127.716 125.432 128.138C125.048 128.561 124.525 128.772 123.87 128.78C123.207 128.787 122.696 128.588 122.322 128.174C121.948 127.76 121.765 127.225 121.772 126.578ZM125.277 127.848L125.276 127.99L124.558 127.998L123.811 127.044L123.44 127.048L123.429 128.011L122.766 128.019L122.799 125.09L124.172 125.075C124.409 125.072 124.622 125.133 124.802 125.241C124.974 125.35 125.099 125.491 125.16 125.656C125.221 125.828 125.243 126.002 125.233 126.176C125.216 126.349 125.151 126.508 125.023 126.651C124.895 126.795 124.72 126.884 124.514 126.926L125.277 127.848ZM123.455 125.683L123.446 126.48L124.149 126.472C124.322 126.47 124.441 126.406 124.514 126.271C124.587 126.136 124.588 126.001 124.526 125.868C124.457 125.742 124.339 125.673 124.166 125.675L123.455 125.683Z" fill="white"/>
<defs>
<filter id="filter0_f_46_2664" x="0" y="31" width="188" height="188" filterUnits="userSpaceOnUse" color-interpolation-filters="sRGB">
<feFlood flood-opacity="0" result="BackgroundImageFix"/>
<feBlend mode="normal" in="SourceGraphic" in2="BackgroundImageFix" result="shape"/>
<feGaussianBlur stdDeviation="17" result="effect1_foregroundBlur_46_2664"/>
</filter>
<linearGradient id="paint0_linear_46_2664" x1="94" y1="65" x2="94" y2="289.16" gradientUnits="userSpaceOnUse">
<stop stop-color="#2D60FF"/>
<stop offset="1" stop-color="#2D60FF"/>
</linearGradient>
<clipPath id="clip0_46_2664">
<rect width="57.0692" height="185.169" fill="white" transform="translate(144)"/>
</clipPath>
</defs>
</svg>
